#VRML V2.0 utf8
# 3D model generated by easyeda2kicad.py (https://github.com/uPesy/easyeda2kicad.py)

Shape{
    appearance Appearance {
        material  Material 	{
            diffuseColor 0.0 0.5019607843137255 0.0
            specularColor 0.0 0.25098039215686274 0.0
            ambientIntensity 0.2947
            transparency 0.0
            shininess 0.5
        }
    }
    geometry IndexedFaceSet {
        ccw TRUE
        solid FALSE
        coord DEF co Coordinate {
            point [
                0.0 -2.0473 0.0079, 0.0 -2.4016 0.0079, -0.0946 -2.4016 0.0079, -1.7323 2.0472 0.0079, -1.7323 2.4015 0.0079, -1.6142 2.4015 0.0079, -2.5984 2.0472 0.0079, -3.1496 -0.2384 0.0079, -2.9134 2.0472 0.0079, -3.1496 2.4015 0.0079, -2.9134 2.4015 0.0079, -1.6142 2.0472 0.0079, -1.2992 2.0472 0.0079, -0.133 0.1577 0.0079, -2.5984 2.4015 0.0079, -2.4803 2.4015 0.0079, -2.4803 2.0472 0.0079, -2.1654 2.4015 0.0079, -2.0472 2.4015 0.0079, -2.1654 2.0472 0.0079, -2.0472 2.0472 0.0079, -1.2992 2.4015 0.0079, -1.1811 2.4015 0.0079, -1.1811 2.0472 0.0079, -0.8661 2.0472 0.0079, -0.8661 2.4015 0.0079, -0.2441 0.1577 0.0079, -0.301 0.1517 0.0079, -0.347 0.1355 0.0079, -0.6275 0.1577 0.0079, -0.3899 0.1068 0.0079, -0.24 -0.236 0.0079, -0.133 -0.236 0.0079, -0.0946 -0.2384 0.0079, -0.0946 2.4015 0.0079, -0.3903 0.1064 0.0079, -0.4181 0.0755 0.0079, -0.4364 0.0417 0.0079, -0.447 0.0029 0.0079, -0.4499 -0.0342 0.0079, -0.4787 -0.236 0.0079, -0.834 -0.236 0.0079, -0.7764 -0.236 0.0079, -0.4443 -0.0868 0.0079, -0.4302 -0.1281 0.0079, -0.4076 -0.1633 0.0079, -0.6803 0.1577 0.0079, -0.3752 -0.1943 0.0079, -0.3341 -0.2182 0.0079, -0.2888 -0.2317 0.0079, -0.5363 -0.236 0.0079, -0.5739 -0.1255 0.0079, -0.7365 -0.1255 0.0079, -1.1811 -2.0473 0.0079, -1.1811 -2.4016 0.0079, -1.2992 -2.4016 0.0079, -1.2992 -2.0473 0.0079, -1.6142 -2.0473 0.0079, -0.8661 -2.0473 0.0079, -0.8661 -2.4016 0.0079, -2.0472 -2.0473 0.0079, -2.0472 -2.4016 0.0079, -2.1654 -2.4016 0.0079, -2.1654 -2.0473 0.0079, -2.4803 -2.0473 0.0079, -1.7323 -2.0473 0.0079, -1.7323 -2.4016 0.0079, -1.6142 -2.4016 0.0079, -2.9134 -2.4016 0.0079, -3.1496 -2.4016 0.0079, -2.9134 -2.0473 0.0079, -2.5984 -2.0473 0.0079, -2.5984 -2.4016 0.0079, -2.4803 -2.4016 0.0079, 1.2992 -2.0473 0.0079, 1.2992 -2.4016 0.0079, 1.1811 -2.4016 0.0079, 0.4331 -2.4016 0.0079, 0.315 -2.4016 0.0079, 0.4331 -2.0473 0.0079, 0.315 -2.0473 0.0079, 2.5984 -2.0473 0.0079, 3.1496 -0.2384 0.0079, 2.9134 -2.0473 0.0079, 3.1496 -2.4016 0.0079, 2.9134 -2.4016 0.0079, 0.3137 -0.2384 0.0079, 0.3295 -0.2406 0.0079, 0.3402 -0.2408 0.0079, 0.3634 -0.2384 0.0079, 0.8661 -2.4016 0.0079, 0.748 -2.4016 0.0079, 0.8661 -2.0473 0.0079, 0.748 -2.0473 0.0079, 2.5984 -2.4016 0.0079, 2.4803 -2.4016 0.0079, 2.4803 -2.0473 0.0079, 2.1654 -2.0473 0.0079, 1.1811 -2.0473 0.0079, 2.1654 -2.4016 0.0079, 2.0472 -2.4016 0.0079, 2.0472 -2.0473 0.0079, 1.7323 -2.0473 0.0079, 1.7323 -2.4016 0.0079, 1.6142 -2.4016 0.0079, 1.6142 -2.0473 0.0079, 0.1551 0.1577 0.0079, 0.2319 -0.1723 0.0079, 0.1551 -0.236 0.0079, 0.2319 -0.2156 0.0079, 0.2739 -0.2328 0.0079, 0.315 2.4015 0.0079, 0.4331 2.4015 0.0079, 0.315 2.0472 0.0079, 0.4331 2.0472 0.0079, -0.0562 -0.236 0.0079, -0.0562 -0.1928 0.0079, 1.1811 2.0472 0.0079, 1.1811 2.4015 0.0079, 1.2992 2.4015 0.0079, 1.2992 2.0472 0.0079, 1.6142 2.0472 0.0079, -0.0466 0.1577 0.0079, 0.0 2.0472 0.0079, 0.8661 2.0472 0.0079, 0.748 2.0472 0.0079, 0.8661 2.4015 0.0079, 0.748 2.4015 0.0079, 0.3629 0.115 0.0079, 0.3923 0.1043 0.0079, 0.239 -0.1763 0.0079, 0.4196 0.0861 0.0079, 0.4434 0.0599 0.0079, 0.472 -0.0433 0.0079, 0.468 -0.0859 0.0079, 0.4573 -0.1198 0.0079, 0.3697 -0.1934 0.0079, 0.333 -0.1976 0.0079, 0.3984 -0.1829 0.0079, 0.4225 -0.1666 0.0079, 0.441 -0.1471 0.0079, 0.2807 -0.1918 0.0079, 0.4596 0.0295 0.0079, 0.4701 -0.0127 0.0079, -0.0466 0.1145 0.0079, 0.0 2.4015 0.0079, 0.504 0.054 0.0079, 0.4809 0.0909 0.0079, 0.7072 0.1577 0.0079, 0.76 0.1577 0.0079, 0.76 -0.236 0.0079, 0.5584 -0.236 0.0079, 0.3887 -0.2357 0.0079, 0.4269 -0.2226 0.0079, 2.0472 2.0472 0.0079, 2.0472 2.4015 0.0079, 2.1654 2.4015 0.0079, -0.037 -0.0583 0.0079, 0.1023 -0.0583 0.0079, 0.1023 -0.1928 0.0079, 2.1654 2.0472 0.0079, 2.4803 2.0472 0.0079, 0.4454 0.125 0.0079, -0.037 -0.0151 0.0079, 0.1023 -0.0151 0.0079, 0.1023 0.1145 0.0079, 1.7323 2.0472 0.0079, 1.7323 2.4015 0.0079, 1.6142 2.4015 0.0079, 0.4586 -0.2024 0.0079, 0.4881 -0.1712 0.0079, 0.5584 -0.1928 0.0079, 0.5091 -0.1338 0.0079, 0.7072 -0.1928 0.0079, 2.9134 2.4015 0.0079, 3.1496 2.4015 0.0079, 2.9134 2.0472 0.0079, 2.5984 2.0472 0.0079, 2.5984 2.4015 0.0079, 2.4803 2.4015 0.0079, 0.521 -0.0921 0.0079, 0.5248 -0.0465 0.0079, 0.5191 0.0094 0.0079, 0.408 0.1466 0.0079, 0.3641 0.1593 0.0079, 0.3246 0.1625 0.0079, 0.2774 0.1593 0.0079, 0.2319 0.1469 0.0079, 0.2319 0.0941 0.0079, 0.2763 0.1131 0.0079, 0.3241 0.1193 0.0079
            ]
        }
        coordIndex [
            0,1,2,-1,3,4,5,-1,6,7,8,-1,8,7,9,-1,8,9,10,-1,11,12,13,-1,14,15,6,-1,6,15,16,-1,17,18,19,-1,19,18,20,-1,21,22,12,-1,12,22,23,-1,12,23,13,-1,13,23,24,-1,13,24,25,-1,5,11,3,-1,3,11,13,-1,3,13,20,-1,20,13,26,-1,20,26,19,-1,27,28,29,-1,29,28,30,-1,31,32,33,-1,33,32,13,-1,33,13,34,-1,34,13,25,-1,30,35,29,-1,29,35,36,-1,29,36,37,-1,37,38,29,-1,29,38,39,-1,29,39,40,-1,41,42,33,-1,39,43,40,-1,40,43,44,-1,40,44,45,-1,26,27,19,-1,19,27,29,-1,19,29,16,-1,16,29,46,-1,16,46,6,-1,6,46,41,-1,6,41,7,-1,7,41,33,-1,45,47,40,-1,40,47,48,-1,40,48,49,-1,49,31,40,-1,40,31,33,-1,40,33,50,-1,50,33,42,-1,50,42,51,-1,51,42,52,-1,53,54,55,-1,56,57,7,-1,55,56,53,-1,53,56,7,-1,53,7,58,-1,58,7,33,-1,58,33,59,-1,59,33,2,-1,60,61,62,-1,63,64,7,-1,62,63,60,-1,60,63,7,-1,60,7,65,-1,65,7,57,-1,65,57,66,-1,66,57,67,-1,68,69,70,-1,70,69,7,-1,70,7,71,-1,71,7,64,-1,71,64,72,-1,72,64,73,-1,74,75,76,-1,77,78,79,-1,79,78,80,-1,81,82,83,-1,83,82,84,-1,83,84,85,-1,2,33,0,-1,0,33,86,-1,0,86,80,-1,80,86,87,-1,80,87,88,-1,88,89,80,-1,80,89,82,-1,80,82,79,-1,90,91,92,-1,92,91,93,-1,94,95,81,-1,81,95,96,-1,81,96,82,-1,82,96,97,-1,98,92,82,-1,82,92,93,-1,82,93,79,-1,99,100,97,-1,97,100,101,-1,97,101,82,-1,82,101,102,-1,103,104,102,-1,102,104,105,-1,102,105,82,-1,82,105,74,-1,82,74,98,-1,98,74,76,-1,106,107,108,-1,108,107,109,-1,108,109,110,-1,111,112,113,-1,113,112,114,-1,110,86,108,-1,108,86,33,-1,108,33,115,-1,115,33,116,-1,117,118,119,-1,120,121,82,-1,106,122,123,-1,119,120,117,-1,117,120,82,-1,117,82,124,-1,124,82,125,-1,124,125,126,-1,126,125,127,-1,128,129,130,-1,130,129,131,-1,130,131,132,-1,133,134,130,-1,130,134,135,-1,136,137,138,-1,138,137,139,-1,135,140,130,-1,130,140,139,-1,130,139,141,-1,141,139,137,-1,132,142,130,-1,130,142,143,-1,130,143,133,-1,144,33,122,-1,122,33,34,-1,122,34,123,-1,123,34,145,-1,146,147,148,-1,149,82,150,-1,150,82,89,-1,150,89,151,-1,151,89,152,-1,151,152,153,-1,154,155,156,-1,157,158,159,-1,160,161,82,-1,147,162,148,-1,148,162,123,-1,148,123,149,-1,149,123,113,-1,149,113,82,-1,82,113,114,-1,82,114,125,-1,159,116,157,-1,157,116,33,-1,157,33,163,-1,163,33,144,-1,163,144,164,-1,164,144,165,-1,156,160,154,-1,154,160,82,-1,154,82,166,-1,166,82,121,-1,166,121,167,-1,167,121,168,-1,153,169,151,-1,151,169,170,-1,151,170,171,-1,171,170,172,-1,171,172,173,-1,174,175,176,-1,176,175,82,-1,176,82,177,-1,177,82,161,-1,177,161,178,-1,178,161,179,-1,172,180,173,-1,173,180,181,-1,173,181,148,-1,148,181,182,-1,148,182,146,-1,162,183,123,-1,123,183,184,-1,123,184,185,-1,185,186,123,-1,123,186,187,-1,123,187,106,-1,106,187,188,-1,106,188,107,-1,107,188,189,-1,107,189,130,-1,130,189,190,-1,130,190,128,-1,
        ]
    }
}
Shape{
    appearance Appearance {
        material  Material 	{
            diffuseColor 1.0 1.0 0.0
            specularColor 0.5019607843137255 0.5019607843137255 0.0
            ambientIntensity 0.886
            transparency 0.0
            shininess 0.5
        }
    }
    geometry IndexedFaceSet {
        ccw TRUE
        solid FALSE
        coord DEF co Coordinate {
            point [
                0.0591 2.4054 0.0, 0.0 2.4054 0.0, 0.0591 2.4054 0.3346, 0.0 2.4054 0.3346, 0.2559 2.4054 0.3346, 0.315 2.4054 0.3346, 0.2559 2.4054 0.0, 0.315 2.4054 0.0, 0.4921 2.4054 0.0, 0.4331 2.4054 0.0, 0.4921 2.4054 0.3346, 0.4331 2.4054 0.3346, 0.689 2.4054 0.3346, 0.748 2.4054 0.3346, 0.689 2.4054 0.0, 0.748 2.4054 0.0, -1.122 2.4054 0.0, -1.1811 2.4054 0.0, -1.122 2.4054 0.3346, -1.1811 2.4054 0.3346, -0.9252 2.4054 0.3346, -0.8661 2.4054 0.3346, -0.9252 2.4054 0.0, -0.8661 2.4054 0.0, -2.8543 2.4054 0.0, -2.9134 2.4054 0.0, -2.8543 2.4054 0.3346, -2.9134 2.4054 0.3346, -2.6575 2.4054 0.3346, -2.5984 2.4054 0.3346, -2.6575 2.4054 0.0, -2.5984 2.4054 0.0, -2.4213 2.4054 0.0, -2.4803 2.4054 0.0, -2.4213 2.4054 0.3346, -2.4803 2.4054 0.3346, -2.2244 2.4054 0.3346, -2.1654 2.4054 0.3346, -2.2244 2.4054 0.0, -2.1654 2.4054 0.0, 2.6575 2.4054 0.0, 2.5984 2.4054 0.0, 2.6575 2.4054 0.3346, 2.5984 2.4054 0.3346, 2.8543 2.4054 0.3346, 2.9134 2.4054 0.3346, 2.8543 2.4054 0.0, 2.9134 2.4054 0.0, 2.2244 2.4054 0.0, 2.1654 2.4054 0.0, 2.2244 2.4054 0.3346, 2.1654 2.4054 0.3346, 2.4213 2.4054 0.3346, 2.4803 2.4054 0.3346, 2.4213 2.4054 0.0, 2.4803 2.4054 0.0, 1.7913 2.4054 0.0, 1.7323 2.4054 0.0, 1.7913 2.4054 0.3346, 1.7323 2.4054 0.3346, 1.9882 2.4054 0.3346, 2.0472 2.4054 0.3346, 1.9882 2.4054 0.0, 2.0472 2.4054 0.0, 1.3583 2.4054 0.0, 1.2992 2.4054 0.0, 1.3583 2.4054 0.3346, 1.2992 2.4054 0.3346, 1.5551 2.4054 0.3346, 1.6142 2.4054 0.3346, 1.5551 2.4054 0.0, 1.6142 2.4054 0.0, 0.9252 2.4054 0.0, 0.8661 2.4054 0.0, 0.9252 2.4054 0.3346, 0.8661 2.4054 0.3346, 1.122 2.4054 0.3346, 1.1811 2.4054 0.3346, 1.122 2.4054 0.0, 1.1811 2.4054 0.0, -1.5551 2.4054 0.0, -1.6142 2.4054 0.0, -1.5551 2.4054 0.3346, -1.6142 2.4054 0.3346, -1.3583 2.4054 0.3346, -1.2992 2.4054 0.3346, -1.3583 2.4054 0.0, -1.2992 2.4054 0.0, -1.9882 2.4054 0.0, -2.0472 2.4054 0.0, -1.9882 2.4054 0.3346, -2.0472 2.4054 0.3346, -1.7913 2.4054 0.3346, -1.7323 2.4054 0.3346, -1.7913 2.4054 0.0, -1.7323 2.4054 0.0, -2.5984 -2.4056 0.0, -2.5984 -2.4056 0.3346, -2.6575 -2.4056 0.0, -2.6575 -2.4056 0.3346, -2.1654 -2.4056 0.0, -2.1654 -2.4056 0.3346, -2.2244 -2.4056 0.0, -2.2244 -2.4056 0.3346, -1.7323 -2.4056 0.0, -1.7323 -2.4056 0.3346, -1.7913 -2.4056 0.0, -1.7913 -2.4056 0.3346, -1.2992 -2.4056 0.0, -1.2992 -2.4056 0.3346, -1.3583 -2.4056 0.0, -1.3583 -2.4056 0.3346, -0.8661 -2.4056 0.0, -0.8661 -2.4056 0.3346, -0.9252 -2.4056 0.0, -0.9252 -2.4056 0.3346, 0.315 -2.4056 0.0, 0.315 -2.4056 0.3346, 0.2559 -2.4056 0.0, 0.2559 -2.4056 0.3346, 0.748 -2.4056 0.0, 0.748 -2.4056 0.3346, 0.689 -2.4056 0.0, 0.689 -2.4056 0.3346, 1.1811 -2.4056 0.0, 1.1811 -2.4056 0.3346, 1.122 -2.4056 0.0, 1.122 -2.4056 0.3346, 1.6142 -2.4056 0.0, 1.6142 -2.4056 0.3346, 1.5551 -2.4056 0.0, 1.5551 -2.4056 0.3346, 2.0472 -2.4056 0.0, 2.0472 -2.4056 0.3346, 1.9882 -2.4056 0.0, 1.9882 -2.4056 0.3346, 2.4803 -2.4056 0.0, 2.4803 -2.4056 0.3346, 2.4213 -2.4056 0.0, 2.4213 -2.4056 0.3346, 2.9134 -2.4056 0.0, 2.9134 -2.4056 0.3346, 2.8543 -2.4056 0.0, 2.8543 -2.4056 0.3346
            ]
        }
        coordIndex [
            0,1,2,-1,2,1,3,-1,4,5,6,-1,6,5,7,-1,8,9,10,-1,10,9,11,-1,12,13,14,-1,14,13,15,-1,16,17,18,-1,18,17,19,-1,20,21,22,-1,22,21,23,-1,24,25,26,-1,26,25,27,-1,28,29,30,-1,30,29,31,-1,32,33,34,-1,34,33,35,-1,36,37,38,-1,38,37,39,-1,40,41,42,-1,42,41,43,-1,44,45,46,-1,46,45,47,-1,48,49,50,-1,50,49,51,-1,52,53,54,-1,54,53,55,-1,56,57,58,-1,58,57,59,-1,60,61,62,-1,62,61,63,-1,64,65,66,-1,66,65,67,-1,68,69,70,-1,70,69,71,-1,72,73,74,-1,74,73,75,-1,76,77,78,-1,78,77,79,-1,80,81,82,-1,82,81,83,-1,84,85,86,-1,86,85,87,-1,88,89,90,-1,90,89,91,-1,92,93,94,-1,94,93,95,-1,96,97,98,-1,98,97,99,-1,100,101,102,-1,102,101,103,-1,104,105,106,-1,106,105,107,-1,108,109,110,-1,110,109,111,-1,112,113,114,-1,114,113,115,-1,116,117,118,-1,118,117,119,-1,120,121,122,-1,122,121,123,-1,124,125,126,-1,126,125,127,-1,128,129,130,-1,130,129,131,-1,132,133,134,-1,134,133,135,-1,136,137,138,-1,138,137,139,-1,140,141,142,-1,142,141,143,-1,
        ]
    }
}
Shape{
    appearance Appearance {
        material  Material 	{
            diffuseColor 0.7529411764705882 0.7529411764705882 0.7529411764705882
            specularColor 0.3764705882352941 0.3764705882352941 0.3764705882352941
            ambientIntensity 0.7529
            transparency 0.0
            shininess 0.5
        }
    }
    geometry IndexedFaceSet {
        ccw TRUE
        solid FALSE
        coord DEF co Coordinate {
            point [
                2.7559 -2.2048 0.3307, 2.7559 -2.2048 0.7559, -2.7559 -2.2048 0.3307, -2.7559 -2.2048 0.7559, -2.7559 2.2047 0.3307, -2.7559 2.2047 0.7559, 2.7559 2.2047 0.3307, 2.7559 2.2047 0.7559
            ]
        }
        coordIndex [
            0,1,2,-1,2,1,3,-1,4,5,6,-1,6,5,7,-1,
        ]
    }
}
Shape{
    appearance Appearance {
        material  Material 	{
            diffuseColor 0.0 0.5019607843137255 0.0
            specularColor 0.0 0.25098039215686274 0.0
            ambientIntensity 0.2947
            transparency 0.0
            shininess 0.5
        }
    }
    geometry IndexedFaceSet {
        ccw TRUE
        solid FALSE
        coord DEF co Coordinate {
            point [
                -2.0472 2.4015 0.0079, -2.1654 2.4015 0.0079, -2.0472 2.4015 0.3307, -2.1654 2.4015 0.3307, -1.7323 2.4015 0.3307, -1.6142 2.4015 0.3307, -1.7323 2.4015 0.0079, -1.6142 2.4015 0.0079, 0.8661 2.4015 0.0079, 0.748 2.4015 0.0079, 0.8661 2.4015 0.3307, 0.748 2.4015 0.3307, 1.1811 2.4015 0.3307, 1.2992 2.4015 0.3307, 1.1811 2.4015 0.0079, 1.2992 2.4015 0.0079, 1.6142 2.4015 0.3307, 1.7323 2.4015 0.3307, 1.6142 2.4015 0.0079, 1.7323 2.4015 0.0079, 2.0472 2.4015 0.3307, 2.1654 2.4015 0.3307, 2.0472 2.4015 0.0079, 2.1654 2.4015 0.0079, 2.4803 2.4015 0.3307, 2.5984 2.4015 0.3307, 2.4803 2.4015 0.0079, 2.5984 2.4015 0.0079, -2.4803 2.4015 0.0079, -2.5984 2.4015 0.0079, -2.4803 2.4015 0.3307, -2.5984 2.4015 0.3307, -1.2992 2.4015 0.3307, -1.1811 2.4015 0.3307, -1.2992 2.4015 0.0079, -1.1811 2.4015 0.0079, -2.9134 2.4015 0.0079, -3.1496 2.4015 0.0079, -2.9134 2.4015 0.3307, -3.1496 2.4015 0.3307, 2.9134 -2.4016 0.0079, 3.1496 -2.4016 0.0079, 2.9134 -2.4016 0.3307, 3.1496 -2.4016 0.3307, 2.5984 -2.4016 0.3307, 2.4803 -2.4016 0.3307, 2.5984 -2.4016 0.0079, 2.4803 -2.4016 0.0079, 2.1654 -2.4016 0.3307, 2.0472 -2.4016 0.3307, 2.1654 -2.4016 0.0079, 2.0472 -2.4016 0.0079, 1.7323 -2.4016 0.3307, 1.6142 -2.4016 0.3307, 1.7323 -2.4016 0.0079, 1.6142 -2.4016 0.0079, 1.2992 -2.4016 0.3307, 1.1811 -2.4016 0.3307, 1.2992 -2.4016 0.0079, 1.1811 -2.4016 0.0079, 0.8661 -2.4016 0.3307, 0.748 -2.4016 0.3307, 0.8661 -2.4016 0.0079, 0.748 -2.4016 0.0079, 0.4331 -2.4016 0.3307, 0.315 -2.4016 0.3307, 0.4331 -2.4016 0.0079, 0.315 -2.4016 0.0079, 0.0 -2.4016 0.3307, -0.8661 -2.4016 0.3307, 0.0 -2.4016 0.0079, -0.8661 -2.4016 0.0079, -1.1811 -2.4016 0.3307, -1.2992 -2.4016 0.3307, -1.1811 -2.4016 0.0079, -1.2992 -2.4016 0.0079, -1.6142 -2.4016 0.3307, -1.7323 -2.4016 0.3307, -1.6142 -2.4016 0.0079, -1.7323 -2.4016 0.0079, -2.0472 -2.4016 0.3307, -2.1654 -2.4016 0.3307, -2.0472 -2.4016 0.0079, -2.1654 -2.4016 0.0079, 0.4331 2.4015 0.0079, 0.315 2.4015 0.0079, 0.4331 2.4015 0.3307, 0.315 2.4015 0.3307, -0.8661 2.4015 0.3307, 0.0 2.4015 0.3307, -0.8661 2.4015 0.0079, 0.0 2.4015 0.0079, -2.4803 -2.4016 0.3307, -2.5984 -2.4016 0.3307, -2.4803 -2.4016 0.0079, -2.5984 -2.4016 0.0079, 3.1496 2.4015 0.3307, 3.1496 2.4015 0.0079, 2.9134 2.4015 0.3307, 2.9134 2.4015 0.0079, -3.1496 -2.4016 0.3307, -3.1496 -2.4016 0.0079, -2.9134 -2.4016 0.3307, -2.9134 -2.4016 0.0079, 2.9134 2.2834 0.3307, 0.4331 2.2834 0.3307, 2.5984 2.2834 0.3307, 2.4803 2.2834 0.3307, -1.6142 2.2834 0.3307, 2.8069 2.1979 0.3307, 2.8543 2.1783 0.3307, 2.8951 2.147 0.3307, -2.7559 2.2047 0.3307, 1.1811 2.2834 0.3307, 0.8661 2.2834 0.3307, 0.315 2.2834 0.3307, 0.0 2.2834 0.3307, 2.9134 -2.2835 0.3307, 0.748 2.2834 0.3307, -0.8661 2.2834 0.3307, -1.1811 2.2834 0.3307, 1.2992 2.2834 0.3307, -1.7323 2.2834 0.3307, -2.0472 2.2834 0.3307, -1.2992 2.2834 0.3307, 0.8661 -2.2835 0.3307, 1.1811 -2.2835 0.3307, 2.7559 -2.2048 0.3307, 2.7559 2.2047 0.3307, 2.1654 2.2834 0.3307, 0.748 -2.2835 0.3307, 1.6142 -2.2835 0.3307, 2.0472 2.2834 0.3307, 1.7323 2.2834 0.3307, -2.1654 2.2834 0.3307, -2.4803 2.2834 0.3307, -2.8069 2.1979 0.3307, 1.7323 -2.2835 0.3307, 2.0472 -2.2835 0.3307, 1.2992 -2.2835 0.3307, 1.6142 2.2834 0.3307, -2.5984 2.2834 0.3307, -2.9134 2.2834 0.3307, -2.9264 2.1062 0.3307, -2.8951 2.147 0.3307, -2.8543 2.1783 0.3307, 2.4803 -2.2835 0.3307, 2.5984 -2.2835 0.3307, -2.9134 -2.2835 0.3307, -2.8069 -2.1981 0.3307, -2.8543 -2.1784 0.3307, -2.8951 -2.1471 0.3307, -2.5984 -2.2835 0.3307, -2.4803 -2.2835 0.3307, 2.9264 2.1062 0.3307, 2.946 2.0588 0.3307, 2.9528 2.0078 0.3307, -2.946 2.0588 0.3307, -2.9264 -2.1064 0.3307, -2.946 -2.0589 0.3307, -2.9528 -2.0079 0.3307, -2.9528 2.0078 0.3307, 2.8951 -2.1471 0.3307, 2.8543 -2.1784 0.3307, 2.8069 -2.1981 0.3307, 2.1654 -2.2835 0.3307, 2.9528 -2.0079 0.3307, 2.946 -2.0589 0.3307, 2.9264 -2.1064 0.3307, -1.2992 -2.2835 0.3307, -1.1811 -2.2835 0.3307, -0.8661 -2.2835 0.3307, -2.7559 -2.2048 0.3307, -2.1654 -2.2835 0.3307, 0.315 -2.2835 0.3307, 0.0 -2.2835 0.3307, 0.4331 -2.2835 0.3307, -2.0472 -2.2835 0.3307, -1.7323 -2.2835 0.3307, -1.6142 -2.2835 0.3307
            ]
        }
        coordIndex [
            0,1,2,-1,2,1,3,-1,4,5,6,-1,6,5,7,-1,8,9,10,-1,10,9,11,-1,12,13,14,-1,14,13,15,-1,16,17,18,-1,18,17,19,-1,20,21,22,-1,22,21,23,-1,24,25,26,-1,26,25,27,-1,28,29,30,-1,30,29,31,-1,32,33,34,-1,34,33,35,-1,36,37,38,-1,38,37,39,-1,40,41,42,-1,42,41,43,-1,44,45,46,-1,46,45,47,-1,48,49,50,-1,50,49,51,-1,52,53,54,-1,54,53,55,-1,56,57,58,-1,58,57,59,-1,60,61,62,-1,62,61,63,-1,64,65,66,-1,66,65,67,-1,68,69,70,-1,70,69,71,-1,72,73,74,-1,74,73,75,-1,76,77,78,-1,78,77,79,-1,80,81,82,-1,82,81,83,-1,84,85,86,-1,86,85,87,-1,88,89,90,-1,90,89,91,-1,92,93,94,-1,94,93,95,-1,96,43,97,-1,97,43,41,-1,98,96,99,-1,99,96,97,-1,100,39,101,-1,101,39,37,-1,102,100,103,-1,103,100,101,-1,96,98,104,-1,105,86,87,-1,25,24,106,-1,106,24,107,-1,108,5,4,-1,109,110,104,-1,104,110,111,-1,112,113,114,-1,112,115,116,-1,117,42,43,-1,10,11,114,-1,114,11,118,-1,114,118,112,-1,112,118,105,-1,112,105,115,-1,115,105,87,-1,89,88,116,-1,116,88,119,-1,116,119,112,-1,112,119,120,-1,121,13,12,-1,112,122,123,-1,33,32,120,-1,120,32,124,-1,120,124,112,-1,112,124,108,-1,112,108,122,-1,122,108,4,-1,125,126,127,-1,109,104,128,-1,128,104,106,-1,128,106,112,-1,112,106,107,-1,112,107,129,-1,130,61,60,-1,131,53,52,-1,21,20,129,-1,129,20,132,-1,129,132,112,-1,112,132,133,-1,2,3,123,-1,123,3,134,-1,123,134,112,-1,112,134,135,-1,112,135,136,-1,137,138,127,-1,52,137,131,-1,131,137,127,-1,131,127,139,-1,139,127,126,-1,139,126,56,-1,56,126,57,-1,17,16,133,-1,133,16,140,-1,133,140,112,-1,112,140,121,-1,112,121,113,-1,113,121,12,-1,30,31,135,-1,135,31,141,-1,135,141,136,-1,136,141,142,-1,143,144,142,-1,142,144,145,-1,142,145,136,-1,45,44,146,-1,146,44,147,-1,100,102,148,-1,149,150,148,-1,148,150,151,-1,93,92,152,-1,152,92,153,-1,111,154,104,-1,104,154,155,-1,104,155,96,-1,96,155,156,-1,96,156,43,-1,38,39,142,-1,142,39,157,-1,142,157,143,-1,151,158,148,-1,148,158,159,-1,148,159,100,-1,100,159,160,-1,100,160,39,-1,39,160,161,-1,39,161,157,-1,162,163,117,-1,117,163,164,-1,49,48,138,-1,138,48,165,-1,138,165,127,-1,127,165,146,-1,127,146,164,-1,164,146,147,-1,164,147,117,-1,156,166,43,-1,43,166,167,-1,43,167,117,-1,117,167,168,-1,117,168,162,-1,169,73,72,-1,170,171,127,-1,149,148,172,-1,172,148,152,-1,172,152,127,-1,127,152,153,-1,127,153,173,-1,174,127,175,-1,175,127,171,-1,175,171,68,-1,68,171,69,-1,60,125,130,-1,130,125,127,-1,130,127,176,-1,176,127,174,-1,176,174,64,-1,64,174,65,-1,81,80,173,-1,173,80,177,-1,173,177,127,-1,127,177,178,-1,77,76,178,-1,178,76,179,-1,178,179,127,-1,127,179,169,-1,127,169,170,-1,170,169,72,-1,
        ]
    }
}
Shape{
    appearance Appearance {
        material  Material 	{
            diffuseColor 0.7529411764705882 0.7529411764705882 0.7529411764705882
            specularColor 0.3764705882352941 0.3764705882352941 0.3764705882352941
            ambientIntensity 0.7529
            transparency 0.0
            shininess 0.5
        }
    }
    geometry IndexedFaceSet {
        ccw TRUE
        solid FALSE
        coord DEF co Coordinate {
            point [
                2.9528 2.0078 0.3307, 2.9528 2.0078 0.7559, 2.9528 -2.0079 0.3307, 2.9528 -2.0079 0.7559, -2.9528 -2.0079 0.3307, -2.9528 -2.0079 0.7559, -2.9528 2.0078 0.3307, -2.9528 2.0078 0.7559, 2.287 1.5123 0.9528, 2.2604 1.5469 0.9528, -2.7559 -2.0079 0.9528, 2.7559 2.0078 0.9528, 2.5665 1.5872 0.9528, 2.7559 -2.0079 0.9528, 2.5498 1.5469 0.9528, 2.5233 1.5123 0.9528, 2.4887 1.4858 0.9528, 2.4484 1.4691 0.9528, 2.5498 1.714 0.9528, 2.5665 1.6737 0.9528, 2.5722 1.6305 0.9528, 2.2381 1.6305 0.9528, 2.2437 1.6737 0.9528, -2.7559 2.0078 0.9528, 2.2604 1.714 0.9528, 2.287 1.7486 0.9528, 2.2437 1.5872 0.9528, 2.4484 1.7919 0.9528, 2.4887 1.7752 0.9528, 2.5233 1.7486 0.9528, 2.3216 1.7752 0.9528, 2.3619 1.7919 0.9528, 2.4051 1.7976 0.9528, 2.4051 1.4634 0.9528, 2.3619 1.4691 0.9528, 2.3216 1.4858 0.9528, 2.7559 -2.2048 0.7559, 2.7559 -2.2048 0.3307, 2.8069 -2.1981 0.3307, 2.8069 -2.1981 0.7559, 2.8543 -2.1784 0.3307, 2.8543 -2.1784 0.7559, 2.8951 -2.1471 0.3307, 2.8951 -2.1471 0.7559, 2.9264 -2.1064 0.3307, 2.9264 -2.1064 0.7559, 2.946 -2.0589 0.3307, 2.946 -2.0589 0.7559, -2.7559 -2.0589 0.946, 2.7559 -2.0589 0.946, -2.7559 -2.1064 0.9264, 2.7559 -2.1064 0.9264, -2.7559 -2.1471 0.8951, 2.7559 -2.1471 0.8951, -2.7559 -2.1784 0.8543, 2.7559 -2.1784 0.8543, -2.7559 -2.1981 0.8069, 2.7559 -2.1981 0.8069, -2.7559 -2.2048 0.7559, -2.946 -2.0589 0.3307, -2.946 -2.0589 0.7559, -2.9264 -2.1064 0.3307, -2.9264 -2.1064 0.7559, -2.8951 -2.1471 0.3307, -2.8951 -2.1471 0.7559, -2.8543 -2.1784 0.3307, -2.8543 -2.1784 0.7559, -2.8069 -2.1981 0.3307, -2.8069 -2.1981 0.7559, -2.7559 -2.2048 0.3307, 2.946 -2.0079 0.8069, 2.9396 -2.0572 0.8069, 2.8411 -2.0572 0.9264, 2.8 -2.0334 0.946, 2.7919 -2.044 0.946, 2.7691 -2.0572 0.946, 2.8051 -2.0211 0.946, 2.851 -2.0334 0.9264, 2.8904 -2.044 0.8951, 2.8069 -2.0079 0.946, 2.8255 -2.0775 0.9264, 2.7814 -2.0521 0.946, 2.8051 -2.0932 0.9264, 2.7814 -2.103 0.9264, 2.8543 -2.0079 0.9264, 2.8951 -2.0079 0.8951, 2.9264 -2.0079 0.8543, 2.8765 -2.0775 0.8951, 2.8543 -2.1064 0.8951, 2.8255 -2.1285 0.8951, 2.7919 -2.1424 0.8951, 2.9206 -2.0521 0.8543, 2.9035 -2.0932 0.8543, 2.8765 -2.1285 0.8543, 2.8411 -2.1556 0.8543, 2.8 -2.1726 0.8543, 2.9206 -2.103 0.8069, 2.8904 -2.1424 0.8069, 2.851 -2.1726 0.8069, 2.8051 -2.1916 0.8069, -2.8051 -2.1916 0.8069, -2.8051 -2.0932 0.9264, -2.7814 -2.0521 0.946, -2.7919 -2.044 0.946, -2.8069 -2.0079 0.946, -2.8051 -2.0211 0.946, -2.7691 -2.0572 0.946, -2.7814 -2.103 0.9264, -2.7919 -2.1424 0.8951, -2.8255 -2.0775 0.9264, -2.8 -2.0334 0.946, -2.8411 -2.0572 0.9264, -2.851 -2.0334 0.9264, -2.8543 -2.0079 0.9264, -2.8255 -2.1285 0.8951, -2.8543 -2.1064 0.8951, -2.8765 -2.0775 0.8951, -2.8904 -2.044 0.8951, -2.8951 -2.0079 0.8951, -2.8 -2.1726 0.8543, -2.8411 -2.1556 0.8543, -2.8765 -2.1285 0.8543, -2.9035 -2.0932 0.8543, -2.9206 -2.0521 0.8543, -2.9264 -2.0079 0.8543, -2.851 -2.1726 0.8069, -2.8904 -2.1424 0.8069, -2.9206 -2.103 0.8069, -2.9396 -2.0572 0.8069, -2.946 -2.0079 0.8069, 2.946 2.0588 0.3307, 2.946 2.0588 0.7559, 2.9264 2.1062 0.3307, 2.9264 2.1062 0.7559, 2.8951 2.147 0.3307, 2.8951 2.147 0.7559, 2.8543 2.1783 0.3307, 2.8543 2.1783 0.7559, 2.8069 2.1979 0.3307, 2.8069 2.1979 0.7559, 2.7559 2.2047 0.3307, 2.7559 2.2047 0.7559, 2.8069 2.0078 0.946, 2.8543 2.0078 0.9264, 2.8951 2.0078 0.8951, 2.9264 2.0078 0.8543, 2.946 2.0078 0.8069, -2.8069 2.0078 0.946, -2.8543 2.0078 0.9264, -2.8951 2.0078 0.8951, -2.9264 2.0078 0.8543, -2.946 2.0078 0.8069, -2.7559 2.2047 0.7559, -2.7559 2.2047 0.3307, -2.8069 2.1979 0.3307, -2.8069 2.1979 0.7559, -2.8543 2.1783 0.3307, -2.8543 2.1783 0.7559, -2.8951 2.147 0.3307, -2.8951 2.147 0.7559, -2.9264 2.1062 0.3307, -2.9264 2.1062 0.7559, -2.946 2.0588 0.3307, -2.946 2.0588 0.7559, 2.7559 2.1979 0.8069, 2.8051 2.1915 0.8069, 2.8051 2.093 0.9264, 2.7814 2.0519 0.946, 2.7919 2.0438 0.946, 2.8051 2.021 0.946, 2.7691 2.057 0.946, 2.7814 2.1029 0.9264, 2.7919 2.1423 0.8951, 2.7559 2.0588 0.946, 2.8255 2.0774 0.9264, 2.8 2.0333 0.946, 2.8411 2.057 0.9264, 2.851 2.0333 0.9264, 2.7559 2.1062 0.9264, 2.7559 2.147 0.8951, 2.7559 2.1783 0.8543, 2.8255 2.1284 0.8951, 2.8543 2.1062 0.8951, 2.8765 2.0774 0.8951, 2.8904 2.0438 0.8951, 2.8 2.1725 0.8543, 2.8411 2.1554 0.8543, 2.8765 2.1284 0.8543, 2.9035 2.093 0.8543, 2.9206 2.0519 0.8543, 2.851 2.1725 0.8069, 2.8904 2.1423 0.8069, 2.9206 2.1029 0.8069, 2.9396 2.057 0.8069, -2.9396 2.057 0.8069, -2.8411 2.057 0.9264, -2.8 2.0333 0.946, -2.7919 2.0438 0.946, -2.7559 2.0588 0.946, -2.7691 2.057 0.946, -2.8051 2.021 0.946, -2.851 2.0333 0.9264, -2.8904 2.0438 0.8951, -2.8255 2.0774 0.9264, -2.7814 2.0519 0.946, -2.8051 2.093 0.9264, -2.7814 2.1029 0.9264, -2.7559 2.1062 0.9264, -2.8765 2.0774 0.8951, -2.8543 2.1062 0.8951, -2.8255 2.1284 0.8951, -2.7919 2.1423 0.8951, -2.7559 2.147 0.8951, -2.9206 2.0519 0.8543, -2.9035 2.093 0.8543, -2.8765 2.1284 0.8543, -2.8411 2.1554 0.8543, -2.8 2.1725 0.8543, -2.7559 2.1783 0.8543, -2.9206 2.1029 0.8069, -2.8904 2.1423 0.8069, -2.851 2.1725 0.8069, -2.8051 2.1915 0.8069, -2.7559 2.1979 0.8069
            ]
        }
        coordIndex [
            0,1,2,-1,2,1,3,-1,4,5,6,-1,6,5,7,-1,8,9,10,-1,11,12,13,-1,13,12,14,-1,14,15,13,-1,13,15,16,-1,13,16,17,-1,18,19,11,-1,11,19,20,-1,11,20,12,-1,21,22,23,-1,23,22,24,-1,23,24,25,-1,10,9,23,-1,23,9,26,-1,23,26,21,-1,27,28,11,-1,11,28,29,-1,11,29,18,-1,25,30,23,-1,23,30,31,-1,23,31,11,-1,11,31,32,-1,11,32,27,-1,17,33,13,-1,13,33,34,-1,13,34,10,-1,10,34,35,-1,10,35,8,-1,36,37,38,-1,36,38,39,-1,39,38,40,-1,39,40,41,-1,41,40,42,-1,41,42,43,-1,43,42,44,-1,43,44,45,-1,45,44,46,-1,45,46,47,-1,47,46,2,-1,47,2,3,-1,13,10,48,-1,13,48,49,-1,49,48,50,-1,49,50,51,-1,51,50,52,-1,51,52,53,-1,53,52,54,-1,53,54,55,-1,55,54,56,-1,55,56,57,-1,57,56,58,-1,57,58,36,-1,5,4,59,-1,5,59,60,-1,60,59,61,-1,60,61,62,-1,62,61,63,-1,62,63,64,-1,64,63,65,-1,64,65,66,-1,66,65,67,-1,66,67,68,-1,68,67,69,-1,68,69,58,-1,3,70,71,-1,72,73,74,-1,13,49,75,-1,74,73,13,-1,76,13,73,-1,76,73,77,-1,77,73,72,-1,77,72,78,-1,79,13,76,-1,80,81,82,-1,82,81,75,-1,82,75,83,-1,83,75,49,-1,83,49,51,-1,79,76,84,-1,84,76,77,-1,84,77,85,-1,85,77,78,-1,85,78,86,-1,87,80,88,-1,88,80,82,-1,88,82,89,-1,89,82,83,-1,89,83,90,-1,90,83,51,-1,90,51,53,-1,91,87,92,-1,92,87,88,-1,92,88,93,-1,93,88,89,-1,93,89,94,-1,94,89,90,-1,94,90,95,-1,95,90,53,-1,95,53,55,-1,70,91,71,-1,71,91,92,-1,71,92,96,-1,96,92,93,-1,96,93,97,-1,97,93,94,-1,97,94,98,-1,98,94,95,-1,98,95,99,-1,99,95,55,-1,99,55,57,-1,3,71,47,-1,47,71,96,-1,47,96,45,-1,45,96,97,-1,45,97,43,-1,43,97,98,-1,43,98,41,-1,41,98,99,-1,41,99,39,-1,39,99,57,-1,39,57,36,-1,81,13,75,-1,70,86,91,-1,91,86,78,-1,91,78,87,-1,87,78,72,-1,87,72,80,-1,80,72,74,-1,80,74,81,-1,81,74,13,-1,58,56,100,-1,101,102,103,-1,10,104,105,-1,103,102,10,-1,106,10,102,-1,106,102,107,-1,107,102,101,-1,107,101,108,-1,48,10,106,-1,109,110,111,-1,111,110,105,-1,111,105,112,-1,112,105,104,-1,112,104,113,-1,48,106,50,-1,50,106,107,-1,50,107,52,-1,52,107,108,-1,52,108,54,-1,114,109,115,-1,115,109,111,-1,115,111,116,-1,116,111,112,-1,116,112,117,-1,117,112,113,-1,117,113,118,-1,119,114,120,-1,120,114,115,-1,120,115,121,-1,121,115,116,-1,121,116,122,-1,122,116,117,-1,122,117,123,-1,123,117,118,-1,123,118,124,-1,56,119,100,-1,100,119,120,-1,100,120,125,-1,125,120,121,-1,125,121,126,-1,126,121,122,-1,126,122,127,-1,127,122,123,-1,127,123,128,-1,128,123,124,-1,128,124,129,-1,58,100,68,-1,68,100,125,-1,68,125,66,-1,66,125,126,-1,66,126,64,-1,64,126,127,-1,64,127,62,-1,62,127,128,-1,62,128,60,-1,60,128,129,-1,60,129,5,-1,110,10,105,-1,56,54,119,-1,119,54,108,-1,119,108,114,-1,114,108,101,-1,114,101,109,-1,109,101,103,-1,109,103,110,-1,110,103,10,-1,1,0,130,-1,1,130,131,-1,131,130,132,-1,131,132,133,-1,133,132,134,-1,133,134,135,-1,135,134,136,-1,135,136,137,-1,137,136,138,-1,137,138,139,-1,139,138,140,-1,139,140,141,-1,11,13,79,-1,11,79,142,-1,142,79,84,-1,142,84,143,-1,143,84,85,-1,143,85,144,-1,144,85,86,-1,144,86,145,-1,145,86,70,-1,145,70,146,-1,146,70,3,-1,146,3,1,-1,10,23,147,-1,10,147,104,-1,104,147,148,-1,104,148,113,-1,113,148,149,-1,113,149,118,-1,118,149,150,-1,118,150,124,-1,124,150,151,-1,124,151,129,-1,129,151,7,-1,129,7,5,-1,152,153,154,-1,152,154,155,-1,155,154,156,-1,155,156,157,-1,157,156,158,-1,157,158,159,-1,159,158,160,-1,159,160,161,-1,161,160,162,-1,161,162,163,-1,163,162,6,-1,163,6,7,-1,141,164,165,-1,166,167,168,-1,11,142,169,-1,168,167,11,-1,170,11,167,-1,170,167,171,-1,171,167,166,-1,171,166,172,-1,173,11,170,-1,174,175,176,-1,176,175,169,-1,176,169,177,-1,177,169,142,-1,177,142,143,-1,173,170,178,-1,178,170,171,-1,178,171,179,-1,179,171,172,-1,179,172,180,-1,181,174,182,-1,182,174,176,-1,182,176,183,-1,183,176,177,-1,183,177,184,-1,184,177,143,-1,184,143,144,-1,185,181,186,-1,186,181,182,-1,186,182,187,-1,187,182,183,-1,187,183,188,-1,188,183,184,-1,188,184,189,-1,189,184,144,-1,189,144,145,-1,164,185,165,-1,165,185,186,-1,165,186,190,-1,190,186,187,-1,190,187,191,-1,191,187,188,-1,191,188,192,-1,192,188,189,-1,192,189,193,-1,193,189,145,-1,193,145,146,-1,141,165,139,-1,139,165,190,-1,139,190,137,-1,137,190,191,-1,137,191,135,-1,135,191,192,-1,135,192,133,-1,133,192,193,-1,133,193,131,-1,131,193,146,-1,131,146,1,-1,175,11,169,-1,164,180,185,-1,185,180,172,-1,185,172,181,-1,181,172,166,-1,181,166,174,-1,174,166,168,-1,174,168,175,-1,175,168,11,-1,7,151,194,-1,195,196,197,-1,23,198,199,-1,197,196,23,-1,200,23,196,-1,200,196,201,-1,201,196,195,-1,201,195,202,-1,147,23,200,-1,203,204,205,-1,205,204,199,-1,205,199,206,-1,206,199,198,-1,206,198,207,-1,147,200,148,-1,148,200,201,-1,148,201,149,-1,149,201,202,-1,149,202,150,-1,208,203,209,-1,209,203,205,-1,209,205,210,-1,210,205,206,-1,210,206,211,-1,211,206,207,-1,211,207,212,-1,213,208,214,-1,214,208,209,-1,214,209,215,-1,215,209,210,-1,215,210,216,-1,216,210,211,-1,216,211,217,-1,217,211,212,-1,217,212,218,-1,151,213,194,-1,194,213,214,-1,194,214,219,-1,219,214,215,-1,219,215,220,-1,220,215,216,-1,220,216,221,-1,221,216,217,-1,221,217,222,-1,222,217,218,-1,222,218,223,-1,7,194,163,-1,163,194,219,-1,163,219,161,-1,161,219,220,-1,161,220,159,-1,159,220,221,-1,159,221,157,-1,157,221,222,-1,157,222,155,-1,155,222,223,-1,155,223,152,-1,204,23,199,-1,151,150,213,-1,213,150,202,-1,213,202,208,-1,208,202,195,-1,208,195,203,-1,203,195,197,-1,203,197,204,-1,204,197,23,-1,23,11,173,-1,23,173,198,-1,198,173,178,-1,198,178,207,-1,207,178,179,-1,207,179,212,-1,212,179,180,-1,212,180,218,-1,218,180,164,-1,218,164,223,-1,223,164,141,-1,223,141,152,-1,
        ]
    }
}
Shape{
    appearance Appearance {
        material  Material 	{
            diffuseColor 1.0 1.0 0.0
            specularColor 0.5019607843137255 0.5019607843137255 0.0
            ambientIntensity 0.886
            transparency 0.0
            shininess 0.5
        }
    }
    geometry IndexedFaceSet {
        ccw TRUE
        solid FALSE
        coord DEF co Coordinate {
            point [
                -2.5984 -2.0473 0.0, -2.9134 -2.0473 0.0, -2.5984 -2.0473 0.0079, -2.9134 -2.0473 0.0079, -2.5984 -2.2835 0.3307, -2.5984 -2.2835 0.3346, -2.5984 -2.4016 0.3307, -2.5984 -2.4056 0.3346, -2.5984 -2.4016 0.0079, -2.5984 -2.4056 0.0, -2.9134 -2.4016 0.0079, -2.9134 -2.4056 0.0, -2.9134 -2.4016 0.3307, -2.9134 -2.4056 0.3346, -2.9134 -2.2835 0.3307, -2.9134 -2.2835 0.3346, -2.8543 -2.4056 0.3346, -2.851 -2.3801 0.3346, -2.8255 -2.336 0.3346, -2.8051 -2.3203 0.3346, -2.7814 -2.3105 0.3346, -2.7559 -2.3072 0.3346, -2.7304 -2.3105 0.3346, -2.7067 -2.3203 0.3346, -2.8411 -2.3564 0.3346, -2.6863 -2.336 0.3346, -2.6707 -2.3564 0.3346, -2.6608 -2.3801 0.3346, -2.6575 -2.4056 0.3346, -2.8543 -2.4056 0.0, -2.6575 -2.4056 0.0, -2.6608 -2.3801 0.0, -2.6707 -2.3564 0.0, -2.6863 -2.336 0.0, -2.7067 -2.3203 0.0, -2.7304 -2.3105 0.0, -2.7559 -2.3072 0.0, -2.7814 -2.3105 0.0, -2.8051 -2.3203 0.0, -2.8255 -2.336 0.0, -2.8411 -2.3564 0.0, -2.851 -2.3801 0.0, 0.0 2.0472 0.0, 0.315 2.0472 0.0, 0.0 2.0472 0.0079, 0.315 2.0472 0.0079, 0.0 2.2834 0.3307, 0.0 2.2834 0.3346, 0.0 2.4015 0.3307, 0.0 2.4054 0.3346, 0.0 2.4015 0.0079, 0.0 2.4054 0.0, 0.315 2.4015 0.0079, 0.315 2.4054 0.0, 0.315 2.4015 0.3307, 0.315 2.4054 0.3346, 0.315 2.2834 0.3307, 0.315 2.2834 0.3346, 0.1226 2.3134 0.3346, 0.1016 2.3244 0.3346, 0.2559 2.4054 0.3346, 0.253 2.3819 0.3346, 0.2312 2.3402 0.3346, 0.2134 2.3244 0.3346, 0.1924 2.3134 0.3346, 0.1693 2.3077 0.3346, 0.1456 2.3077 0.3346, 0.0838 2.3402 0.3346, 0.0703 2.3597 0.3346, 0.0619 2.3819 0.3346, 0.0591 2.4054 0.3346, 0.2446 2.3597 0.3346, 0.0591 2.4054 0.0, 0.0619 2.3819 0.0, 0.0838 2.3402 0.0, 0.1016 2.3244 0.0, 0.1924 2.3134 0.0, 0.2134 2.3244 0.0, 0.0703 2.3597 0.0, 0.1226 2.3134 0.0, 0.1456 2.3077 0.0, 0.1693 2.3077 0.0, 0.2312 2.3402 0.0, 0.2446 2.3597 0.0, 0.253 2.3819 0.0, 0.2559 2.4054 0.0, 0.4331 2.0472 0.0, 0.748 2.0472 0.0, 0.4331 2.0472 0.0079, 0.748 2.0472 0.0079, 0.4331 2.2834 0.3307, 0.4331 2.2834 0.3346, 0.4331 2.4015 0.3307, 0.4331 2.4054 0.3346, 0.4331 2.4015 0.0079, 0.4331 2.4054 0.0, 0.748 2.4015 0.0079, 0.748 2.4054 0.0, 0.748 2.4015 0.3307, 0.748 2.4054 0.3346, 0.748 2.2834 0.3307, 0.748 2.2834 0.3346, 0.5556 2.3134 0.3346, 0.5346 2.3244 0.3346, 0.6465 2.3244 0.3346, 0.6642 2.3402 0.3346, 0.6777 2.3597 0.3346, 0.5169 2.3402 0.3346, 0.5034 2.3597 0.3346, 0.495 2.3819 0.3346, 0.4921 2.4054 0.3346, 0.6861 2.3819 0.3346, 0.689 2.4054 0.3346, 0.6255 2.3134 0.3346, 0.6024 2.3077 0.3346, 0.5787 2.3077 0.3346, 0.6255 2.3134 0.0, 0.6465 2.3244 0.0, 0.5346 2.3244 0.0, 0.5169 2.3402 0.0, 0.5034 2.3597 0.0, 0.495 2.3819 0.0, 0.4921 2.4054 0.0, 0.5556 2.3134 0.0, 0.5787 2.3077 0.0, 0.6024 2.3077 0.0, 0.6642 2.3402 0.0, 0.6777 2.3597 0.0, 0.6861 2.3819 0.0, 0.689 2.4054 0.0, -2.1654 -2.0473 0.0, -2.4803 -2.0473 0.0, -2.1654 -2.0473 0.0079, -2.4803 -2.0473 0.0079, -2.1654 -2.2835 0.3307, -2.1654 -2.2835 0.3346, -2.1654 -2.4016 0.3307, -2.1654 -2.4056 0.3346, -2.1654 -2.4016 0.0079, -2.1654 -2.4056 0.0, -2.4803 -2.4016 0.0079, -2.4803 -2.4056 0.0, -2.4803 -2.4016 0.3307, -2.4803 -2.4056 0.3346, -2.4803 -2.2835 0.3307, -2.4803 -2.2835 0.3346, -2.4213 -2.4056 0.3346, -2.4184 -2.382 0.3346, -2.3965 -2.3403 0.3346, -2.3787 -2.3246 0.3346, -2.41 -2.3598 0.3346, -2.3577 -2.3136 0.3346, -2.3347 -2.3079 0.3346, -2.311 -2.3079 0.3346, -2.2879 -2.3136 0.3346, -2.2669 -2.3246 0.3346, -2.2492 -2.3403 0.3346, -2.2357 -2.3598 0.3346, -2.2273 -2.382 0.3346, -2.2244 -2.4056 0.3346, -2.4213 -2.4056 0.0, -2.2244 -2.4056 0.0, -2.2273 -2.382 0.0, -2.3577 -2.3136 0.0, -2.3787 -2.3246 0.0, -2.3965 -2.3403 0.0, -2.41 -2.3598 0.0, -2.4184 -2.382 0.0, -2.2492 -2.3403 0.0, -2.2669 -2.3246 0.0, -2.2357 -2.3598 0.0, -2.2879 -2.3136 0.0, -2.311 -2.3079 0.0, -2.3347 -2.3079 0.0, -1.7323 -2.0473 0.0, -2.0472 -2.0473 0.0, -1.7323 -2.0473 0.0079, -2.0472 -2.0473 0.0079, -1.7323 -2.2835 0.3307, -1.7323 -2.2835 0.3346, -1.7323 -2.4016 0.3307, -1.7323 -2.4056 0.3346, -1.7323 -2.4016 0.0079, -1.7323 -2.4056 0.0, -2.0472 -2.4016 0.0079, -2.0472 -2.4056 0.0, -2.0472 -2.4016 0.3307, -2.0472 -2.4056 0.3346, -2.0472 -2.2835 0.3307, -2.0472 -2.2835 0.3346, -1.9882 -2.4056 0.3346, -1.9853 -2.382 0.3346, -1.9634 -2.3403 0.3346, -1.9457 -2.3246 0.3346, -1.8549 -2.3136 0.3346, -1.8339 -2.3246 0.3346, -1.9769 -2.3598 0.3346, -1.9247 -2.3136 0.3346, -1.9016 -2.3079 0.3346, -1.8779 -2.3079 0.3346, -1.8161 -2.3403 0.3346, -1.8026 -2.3598 0.3346, -1.7942 -2.382 0.3346, -1.7913 -2.4056 0.3346, -1.9882 -2.4056 0.0, -1.7913 -2.4056 0.0, -1.7942 -2.382 0.0, -1.8161 -2.3403 0.0, -1.8339 -2.3246 0.0, -1.9247 -2.3136 0.0, -1.9457 -2.3246 0.0, -1.8026 -2.3598 0.0, -1.8549 -2.3136 0.0, -1.8779 -2.3079 0.0, -1.9016 -2.3079 0.0, -1.9634 -2.3403 0.0, -1.9769 -2.3598 0.0, -1.9853 -2.382 0.0, -1.2992 -2.0473 0.0, -1.6142 -2.0473 0.0, -1.2992 -2.0473 0.0079, -1.6142 -2.0473 0.0079, -1.2992 -2.2835 0.3307, -1.2992 -2.2835 0.3346, -1.2992 -2.4016 0.3307, -1.2992 -2.4056 0.3346, -1.2992 -2.4016 0.0079, -1.2992 -2.4056 0.0, -1.6142 -2.4016 0.0079, -1.6142 -2.4056 0.0, -1.6142 -2.4016 0.3307, -1.6142 -2.4056 0.3346, -1.6142 -2.2835 0.3307, -1.6142 -2.2835 0.3346, -1.5551 -2.4056 0.3346, -1.5523 -2.382 0.3346, -1.5438 -2.3598 0.3346, -1.5304 -2.3403 0.3346, -1.5126 -2.3246 0.3346, -1.4916 -2.3136 0.3346, -1.4686 -2.3079 0.3346, -1.4448 -2.3079 0.3346, -1.4218 -2.3136 0.3346, -1.4008 -2.3246 0.3346, -1.383 -2.3403 0.3346, -1.3695 -2.3598 0.3346, -1.3611 -2.382 0.3346, -1.3583 -2.4056 0.3346, -1.5551 -2.4056 0.0, -1.5438 -2.3598 0.0, -1.5523 -2.382 0.0, -1.3583 -2.4056 0.0, -1.3611 -2.382 0.0, -1.4916 -2.3136 0.0, -1.5126 -2.3246 0.0, -1.5304 -2.3403 0.0, -1.383 -2.3403 0.0, -1.4008 -2.3246 0.0, -1.4218 -2.3136 0.0, -1.4448 -2.3079 0.0, -1.4686 -2.3079 0.0, -1.3695 -2.3598 0.0, -0.8661 -2.0473 0.0, -1.1811 -2.0473 0.0, -0.8661 -2.0473 0.0079, -1.1811 -2.0473 0.0079, -0.8661 -2.2835 0.3307, -0.8661 -2.2835 0.3346, -0.8661 -2.4016 0.3307, -0.8661 -2.4056 0.3346, -0.8661 -2.4016 0.0079, -0.8661 -2.4056 0.0, -1.1811 -2.4016 0.0079, -1.1811 -2.4056 0.0, -1.1811 -2.4016 0.3307, -1.1811 -2.4056 0.3346, -1.1811 -2.2835 0.3307, -1.1811 -2.2835 0.3346, -1.122 -2.4056 0.3346, -1.1192 -2.382 0.3346, -1.1108 -2.3598 0.3346, -1.0973 -2.3403 0.3346, -1.0795 -2.3246 0.3346, -1.0585 -2.3136 0.3346, -1.0355 -2.3079 0.3346, -1.0118 -2.3079 0.3346, -0.9887 -2.3136 0.3346, -0.9365 -2.3598 0.3346, -0.9281 -2.382 0.3346, -0.9252 -2.4056 0.3346, -0.9677 -2.3246 0.3346, -0.9499 -2.3403 0.3346, -1.122 -2.4056 0.0, -0.9252 -2.4056 0.0, -0.9281 -2.382 0.0, -1.1108 -2.3598 0.0, -1.1192 -2.382 0.0, -0.9365 -2.3598 0.0, -0.9499 -2.3403 0.0, -0.9677 -2.3246 0.0, -0.9887 -2.3136 0.0, -1.0118 -2.3079 0.0, -1.0355 -2.3079 0.0, -1.0585 -2.3136 0.0, -1.0795 -2.3246 0.0, -1.0973 -2.3403 0.0, 0.315 -2.0473 0.0, 0.0 -2.0473 0.0, 0.315 -2.0473 0.0079, 0.0 -2.0473 0.0079, 0.315 -2.2835 0.3307, 0.315 -2.2835 0.3346, 0.315 -2.4016 0.3307, 0.315 -2.4056 0.3346, 0.315 -2.4016 0.0079, 0.315 -2.4056 0.0, 0.0 -2.4016 0.0079, 0.0 -2.4056 0.0, 0.0 -2.4016 0.3307, 0.0 -2.4056 0.3346, 0.0 -2.2835 0.3307, 0.0 -2.2835 0.3346, 0.1924 -2.3136 0.3346, 0.2134 -2.3246 0.3346, 0.0591 -2.4056 0.3346, 0.0619 -2.382 0.3346, 0.0838 -2.3403 0.3346, 0.1016 -2.3246 0.3346, 0.1226 -2.3136 0.3346, 0.1456 -2.3079 0.3346, 0.1693 -2.3079 0.3346, 0.2312 -2.3403 0.3346, 0.2446 -2.3598 0.3346, 0.253 -2.382 0.3346, 0.2559 -2.4056 0.3346, 0.0703 -2.3598 0.3346, 0.0591 -2.4056 0.0, 0.2446 -2.3598 0.0, 0.2312 -2.3403 0.0, 0.2134 -2.3246 0.0, 0.1226 -2.3136 0.0, 0.1016 -2.3246 0.0, 0.253 -2.382 0.0, 0.2559 -2.4056 0.0, 0.1924 -2.3136 0.0, 0.1693 -2.3079 0.0, 0.1456 -2.3079 0.0, 0.0838 -2.3403 0.0, 0.0703 -2.3598 0.0, 0.0619 -2.382 0.0, 0.748 -2.0473 0.0, 0.4331 -2.0473 0.0, 0.748 -2.0473 0.0079, 0.4331 -2.0473 0.0079, 0.748 -2.2835 0.3307, 0.748 -2.2835 0.3346, 0.748 -2.4016 0.3307, 0.748 -2.4056 0.3346, 0.748 -2.4016 0.0079, 0.748 -2.4056 0.0, 0.4331 -2.4016 0.0079, 0.4331 -2.4056 0.0, 0.4331 -2.4016 0.3307, 0.4331 -2.4056 0.3346, 0.4331 -2.2835 0.3307, 0.4331 -2.2835 0.3346, 0.6255 -2.3136 0.3346, 0.6465 -2.3246 0.3346, 0.5346 -2.3246 0.3346, 0.5169 -2.3403 0.3346, 0.5034 -2.3598 0.3346, 0.495 -2.382 0.3346, 0.4921 -2.4056 0.3346, 0.5556 -2.3136 0.3346, 0.5787 -2.3079 0.3346, 0.6024 -2.3079 0.3346, 0.6642 -2.3403 0.3346, 0.6777 -2.3598 0.3346, 0.6861 -2.382 0.3346, 0.689 -2.4056 0.3346, 0.4921 -2.4056 0.0, 0.6642 -2.3403 0.0, 0.6465 -2.3246 0.0, 0.6777 -2.3598 0.0, 0.5556 -2.3136 0.0, 0.5346 -2.3246 0.0, 0.6861 -2.382 0.0, 0.689 -2.4056 0.0, 0.6255 -2.3136 0.0, 0.6024 -2.3079 0.0, 0.5787 -2.3079 0.0, 0.5169 -2.3403 0.0, 0.5034 -2.3598 0.0, 0.495 -2.382 0.0, 1.1811 -2.0473 0.0, 0.8661 -2.0473 0.0, 1.1811 -2.0473 0.0079, 0.8661 -2.0473 0.0079, 1.1811 -2.2835 0.3307, 1.1811 -2.2835 0.3346, 1.1811 -2.4016 0.3307, 1.1811 -2.4056 0.3346, 1.1811 -2.4016 0.0079, 1.1811 -2.4056 0.0, 0.8661 -2.4016 0.0079, 0.8661 -2.4056 0.0, 0.8661 -2.4016 0.3307, 0.8661 -2.4056 0.3346, 0.8661 -2.2835 0.3307, 0.8661 -2.2835 0.3346, 1.0585 -2.3136 0.3346, 1.0795 -2.3246 0.3346, 0.9252 -2.4056 0.3346, 0.9281 -2.382 0.3346, 0.9499 -2.3403 0.3346, 0.9677 -2.3246 0.3346, 0.9365 -2.3598 0.3346, 0.9887 -2.3136 0.3346, 1.0118 -2.3079 0.3346, 1.0355 -2.3079 0.3346, 1.0973 -2.3403 0.3346, 1.1108 -2.3598 0.3346, 1.1192 -2.382 0.3346, 1.122 -2.4056 0.3346, 0.9252 -2.4056 0.0, 1.0973 -2.3403 0.0, 1.0795 -2.3246 0.0, 1.1108 -2.3598 0.0, 0.9887 -2.3136 0.0, 0.9677 -2.3246 0.0, 1.0585 -2.3136 0.0, 1.0355 -2.3079 0.0, 1.0118 -2.3079 0.0, 0.9499 -2.3403 0.0, 0.9365 -2.3598 0.0, 0.9281 -2.382 0.0, 1.1192 -2.382 0.0, 1.122 -2.4056 0.0, 1.6142 -2.0473 0.0, 1.2992 -2.0473 0.0, 1.6142 -2.0473 0.0079, 1.2992 -2.0473 0.0079, 1.6142 -2.2835 0.3307, 1.6142 -2.2835 0.3346, 1.6142 -2.4016 0.3307, 1.6142 -2.4056 0.3346, 1.6142 -2.4016 0.0079, 1.6142 -2.4056 0.0, 1.2992 -2.4016 0.0079, 1.2992 -2.4056 0.0, 1.2992 -2.4016 0.3307, 1.2992 -2.4056 0.3346, 1.2992 -2.2835 0.3307, 1.2992 -2.2835 0.3346, 1.3583 -2.4056 0.3346, 1.3611 -2.382 0.3346, 1.383 -2.3403 0.3346, 1.4008 -2.3246 0.3346, 1.3695 -2.3598 0.3346, 1.4916 -2.3136 0.3346, 1.5126 -2.3246 0.3346, 1.4218 -2.3136 0.3346, 1.4448 -2.3079 0.3346, 1.4686 -2.3079 0.3346, 1.5304 -2.3403 0.3346, 1.5438 -2.3598 0.3346, 1.5523 -2.382 0.3346, 1.5551 -2.4056 0.3346, 1.3583 -2.4056 0.0, 1.5438 -2.3598 0.0, 1.5304 -2.3403 0.0, 1.5126 -2.3246 0.0, 1.4218 -2.3136 0.0, 1.4008 -2.3246 0.0, 1.383 -2.3403 0.0, 1.3695 -2.3598 0.0, 1.3611 -2.382 0.0, 1.5523 -2.382 0.0, 1.5551 -2.4056 0.0, 1.4916 -2.3136 0.0, 1.4686 -2.3079 0.0, 1.4448 -2.3079 0.0, 2.0472 -2.0473 0.0, 1.7323 -2.0473 0.0, 2.0472 -2.0473 0.0079, 1.7323 -2.0473 0.0079, 2.0472 -2.2835 0.3307, 2.0472 -2.2835 0.3346, 2.0472 -2.4016 0.3307, 2.0472 -2.4056 0.3346, 2.0472 -2.4016 0.0079, 2.0472 -2.4056 0.0, 1.7323 -2.4016 0.0079, 1.7323 -2.4056 0.0, 1.7323 -2.4016 0.3307, 1.7323 -2.4056 0.3346, 1.7323 -2.2835 0.3307, 1.7323 -2.2835 0.3346, 1.7913 -2.4056 0.3346, 1.7942 -2.382 0.3346, 1.8161 -2.3403 0.3346, 1.8339 -2.3246 0.3346, 1.9769 -2.3598 0.3346, 1.9853 -2.382 0.3346, 1.9882 -2.4056 0.3346, 1.8026 -2.3598 0.3346, 1.9247 -2.3136 0.3346, 1.9457 -2.3246 0.3346, 1.9634 -2.3403 0.3346, 1.8549 -2.3136 0.3346, 1.8779 -2.3079 0.3346, 1.9016 -2.3079 0.3346, 1.7913 -2.4056 0.0, 1.9882 -2.4056 0.0, 1.9853 -2.382 0.0, 1.9769 -2.3598 0.0, 1.9634 -2.3403 0.0, 1.9457 -2.3246 0.0, 1.8549 -2.3136 0.0, 1.8339 -2.3246 0.0, 1.8161 -2.3403 0.0, 1.8026 -2.3598 0.0, 1.7942 -2.382 0.0, 1.9247 -2.3136 0.0, 1.9016 -2.3079 0.0, 1.8779 -2.3079 0.0, 2.4803 -2.0473 0.0, 2.1654 -2.0473 0.0, 2.4803 -2.0473 0.0079, 2.1654 -2.0473 0.0079, 2.4803 -2.2835 0.3307, 2.4803 -2.2835 0.3346, 2.4803 -2.4016 0.3307, 2.4803 -2.4056 0.3346, 2.4803 -2.4016 0.0079, 2.4803 -2.4056 0.0, 2.1654 -2.4016 0.0079, 2.1654 -2.4056 0.0, 2.1654 -2.4016 0.3307, 2.1654 -2.4056 0.3346, 2.1654 -2.2835 0.3307, 2.1654 -2.2835 0.3346, 2.2244 -2.4056 0.3346, 2.2273 -2.382 0.3346, 2.2492 -2.3403 0.3346, 2.2669 -2.3246 0.3346, 2.2357 -2.3598 0.3346, 2.3577 -2.3136 0.3346, 2.3787 -2.3246 0.3346, 2.2879 -2.3136 0.3346, 2.311 -2.3079 0.3346, 2.3347 -2.3079 0.3346, 2.3965 -2.3403 0.3346, 2.41 -2.3598 0.3346, 2.4184 -2.382 0.3346, 2.4213 -2.4056 0.3346, 2.2244 -2.4056 0.0, 2.41 -2.3598 0.0, 2.3965 -2.3403 0.0, 2.3787 -2.3246 0.0, 2.2879 -2.3136 0.0, 2.2669 -2.3246 0.0, 2.4184 -2.382 0.0, 2.4213 -2.4056 0.0, 2.3577 -2.3136 0.0, 2.3347 -2.3079 0.0, 2.311 -2.3079 0.0, 2.2492 -2.3403 0.0, 2.2357 -2.3598 0.0, 2.2273 -2.382 0.0, 2.9134 -2.0473 0.0, 2.5984 -2.0473 0.0, 2.9134 -2.0473 0.0079, 2.5984 -2.0473 0.0079, 2.5984 -2.4016 0.0079, 2.5984 -2.4056 0.0, 2.5984 -2.4016 0.3307, 2.5984 -2.4056 0.3346, 2.5984 -2.2835 0.3307, 2.5984 -2.2835 0.3346, 2.9134 -2.2835 0.3307, 2.9134 -2.2835 0.3346, 2.9134 -2.4016 0.3307, 2.9134 -2.4056 0.3346, 2.9134 -2.4016 0.0079, 2.9134 -2.4056 0.0, 2.6575 -2.4056 0.3346, 2.6603 -2.382 0.3346, 2.6822 -2.3403 0.3346, 2.7 -2.3246 0.3346, 2.6688 -2.3598 0.3346, 2.721 -2.3136 0.3346, 2.744 -2.3079 0.3346, 2.7678 -2.3079 0.3346, 2.7908 -2.3136 0.3346, 2.8118 -2.3246 0.3346, 2.8296 -2.3403 0.3346, 2.8431 -2.3598 0.3346, 2.8515 -2.382 0.3346, 2.8543 -2.4056 0.3346, 2.6575 -2.4056 0.0, 2.8431 -2.3598 0.0, 2.8296 -2.3403 0.0, 2.8118 -2.3246 0.0, 2.7908 -2.3136 0.0, 2.7678 -2.3079 0.0, 2.8515 -2.382 0.0, 2.8543 -2.4056 0.0, 2.744 -2.3079 0.0, 2.721 -2.3136 0.0, 2.7 -2.3246 0.0, 2.6822 -2.3403 0.0, 2.6688 -2.3598 0.0, 2.6603 -2.382 0.0, -1.1811 2.0472 0.0, -0.8661 2.0472 0.0, -1.1811 2.0472 0.0079, -0.8661 2.0472 0.0079, -1.1811 2.2834 0.3307, -1.1811 2.2834 0.3346, -1.1811 2.4015 0.3307, -1.1811 2.4054 0.3346, -1.1811 2.4015 0.0079, -1.1811 2.4054 0.0, -0.8661 2.4015 0.0079, -0.8661 2.4054 0.0, -0.8661 2.4015 0.3307, -0.8661 2.4054 0.3346, -0.8661 2.2834 0.3307, -0.8661 2.2834 0.3346, -0.9252 2.4054 0.3346, -0.9281 2.3819 0.3346, -0.9365 2.3597 0.3346, -0.9499 2.3402 0.3346, -0.9677 2.3244 0.3346, -0.9887 2.3134 0.3346, -1.0118 2.3077 0.3346, -1.0355 2.3077 0.3346, -1.0585 2.3134 0.3346, -1.1108 2.3597 0.3346, -1.1192 2.3819 0.3346, -1.122 2.4054 0.3346, -1.0795 2.3244 0.3346, -1.0973 2.3402 0.3346, -1.122 2.4054 0.0, -1.1192 2.3819 0.0, -0.9365 2.3597 0.0, -0.9281 2.3819 0.0, -0.9252 2.4054 0.0, -1.1108 2.3597 0.0, -1.0973 2.3402 0.0, -1.0795 2.3244 0.0, -1.0585 2.3134 0.0, -1.0355 2.3077 0.0, -1.0118 2.3077 0.0, -0.9887 2.3134 0.0, -0.9677 2.3244 0.0, -0.9499 2.3402 0.0, -2.9134 2.0472 0.0, -2.5984 2.0472 0.0, -2.9134 2.0472 0.0079, -2.5984 2.0472 0.0079, -2.5984 2.4015 0.0079, -2.5984 2.4054 0.0, -2.5984 2.4015 0.3307, -2.5984 2.4054 0.3346, -2.5984 2.2834 0.3307, -2.5984 2.2834 0.3346, -2.9134 2.2834 0.3307, -2.9134 2.2834 0.3346, -2.9134 2.4015 0.3307, -2.9134 2.4054 0.3346, -2.9134 2.4015 0.0079, -2.9134 2.4054 0.0, -2.6575 2.4054 0.3346, -2.6608 2.38 0.3346, -2.6863 2.3358 0.3346, -2.7067 2.3202 0.3346, -2.7304 2.3104 0.3346, -2.7559 2.307 0.3346, -2.7814 2.3104 0.3346, -2.8051 2.3202 0.3346, -2.6707 2.3562 0.3346, -2.8255 2.3358 0.3346, -2.8411 2.3562 0.3346, -2.851 2.38 0.3346, -2.8543 2.4054 0.3346, -2.8543 2.4054 0.0, -2.851 2.38 0.0, -2.8255 2.3358 0.0, -2.8051 2.3202 0.0, -2.7814 2.3104 0.0, -2.8411 2.3562 0.0, -2.7559 2.307 0.0, -2.7304 2.3104 0.0, -2.7067 2.3202 0.0, -2.6863 2.3358 0.0, -2.6707 2.3562 0.0, -2.6608 2.38 0.0, -2.6575 2.4054 0.0, -2.4803 2.0472 0.0, -2.1654 2.0472 0.0, -2.4803 2.0472 0.0079, -2.1654 2.0472 0.0079, -2.4803 2.2834 0.3307, -2.4803 2.2834 0.3346, -2.4803 2.4015 0.3307, -2.4803 2.4054 0.3346, -2.4803 2.4015 0.0079, -2.4803 2.4054 0.0, -2.1654 2.4015 0.0079, -2.1654 2.4054 0.0, -2.1654 2.4015 0.3307, -2.1654 2.4054 0.3346, -2.1654 2.2834 0.3307, -2.1654 2.2834 0.3346, -2.2244 2.4054 0.3346, -2.2273 2.3819 0.3346, -2.2492 2.3402 0.3346, -2.2669 2.3244 0.3346, -2.2357 2.3597 0.3346, -2.3577 2.3134 0.3346, -2.3787 2.3244 0.3346, -2.3965 2.3402 0.3346, -2.41 2.3597 0.3346, -2.4184 2.3819 0.3346, -2.4213 2.4054 0.3346, -2.2879 2.3134 0.3346, -2.311 2.3077 0.3346, -2.3347 2.3077 0.3346, -2.4213 2.4054 0.0, -2.4184 2.3819 0.0, -2.3965 2.3402 0.0, -2.3787 2.3244 0.0, -2.41 2.3597 0.0, -2.2879 2.3134 0.0, -2.2669 2.3244 0.0, -2.2492 2.3402 0.0, -2.2357 2.3597 0.0, -2.2273 2.3819 0.0, -2.2244 2.4054 0.0, -2.3577 2.3134 0.0, -2.3347 2.3077 0.0, -2.311 2.3077 0.0, 2.5984 2.0472 0.0, 2.9134 2.0472 0.0, 2.5984 2.0472 0.0079, 2.9134 2.0472 0.0079, 2.5984 2.2834 0.3307, 2.5984 2.2834 0.3346, 2.5984 2.4015 0.3307, 2.5984 2.4054 0.3346, 2.5984 2.4015 0.0079, 2.5984 2.4054 0.0, 2.9134 2.4015 0.0079, 2.9134 2.4054 0.0, 2.9134 2.4015 0.3307, 2.9134 2.4054 0.3346, 2.9134 2.2834 0.3307, 2.9134 2.2834 0.3346, 2.8543 2.4054 0.3346, 2.8515 2.3819 0.3346, 2.8296 2.3402 0.3346, 2.8118 2.3244 0.3346, 2.8431 2.3597 0.3346, 2.721 2.3134 0.3346, 2.7 2.3244 0.3346, 2.7908 2.3134 0.3346, 2.7678 2.3077 0.3346, 2.744 2.3077 0.3346, 2.6822 2.3402 0.3346, 2.6688 2.3597 0.3346, 2.6603 2.3819 0.3346, 2.6575 2.4054 0.3346, 2.6575 2.4054 0.0, 2.6603 2.3819 0.0, 2.7908 2.3134 0.0, 2.8118 2.3244 0.0, 2.6822 2.3402 0.0, 2.7 2.3244 0.0, 2.8296 2.3402 0.0, 2.8431 2.3597 0.0, 2.8515 2.3819 0.0, 2.8543 2.4054 0.0, 2.6688 2.3597 0.0, 2.721 2.3134 0.0, 2.744 2.3077 0.0, 2.7678 2.3077 0.0, 2.1654 2.0472 0.0, 2.4803 2.0472 0.0, 2.1654 2.0472 0.0079, 2.4803 2.0472 0.0079, 2.1654 2.2834 0.3307, 2.1654 2.2834 0.3346, 2.1654 2.4015 0.3307, 2.1654 2.4054 0.3346, 2.1654 2.4015 0.0079, 2.1654 2.4054 0.0, 2.4803 2.4015 0.0079, 2.4803 2.4054 0.0, 2.4803 2.4015 0.3307, 2.4803 2.4054 0.3346, 2.4803 2.2834 0.3307, 2.4803 2.2834 0.3346, 2.4213 2.4054 0.3346, 2.4184 2.3819 0.3346, 2.3965 2.3402 0.3346, 2.3787 2.3244 0.3346, 2.41 2.3597 0.3346, 2.2879 2.3134 0.3346, 2.2669 2.3244 0.3346, 2.3577 2.3134 0.3346, 2.3347 2.3077 0.3346, 2.311 2.3077 0.3346, 2.2492 2.3402 0.3346, 2.2357 2.3597 0.3346, 2.2273 2.3819 0.3346, 2.2244 2.4054 0.3346, 2.2244 2.4054 0.0, 2.2273 2.3819 0.0, 2.2492 2.3402 0.0, 2.2669 2.3244 0.0, 2.2357 2.3597 0.0, 2.3577 2.3134 0.0, 2.3787 2.3244 0.0, 2.2879 2.3134 0.0, 2.311 2.3077 0.0, 2.3347 2.3077 0.0, 2.3965 2.3402 0.0, 2.41 2.3597 0.0, 2.4184 2.3819 0.0, 2.4213 2.4054 0.0, 1.7323 2.0472 0.0, 2.0472 2.0472 0.0, 1.7323 2.0472 0.0079, 2.0472 2.0472 0.0079, 1.7323 2.2834 0.3307, 1.7323 2.2834 0.3346, 1.7323 2.4015 0.3307, 1.7323 2.4054 0.3346, 1.7323 2.4015 0.0079, 1.7323 2.4054 0.0, 2.0472 2.4015 0.0079, 2.0472 2.4054 0.0, 2.0472 2.4015 0.3307, 2.0472 2.4054 0.3346, 2.0472 2.2834 0.3307, 2.0472 2.2834 0.3346, 1.9882 2.4054 0.3346, 1.9853 2.3819 0.3346, 1.9769 2.3597 0.3346, 1.9634 2.3402 0.3346, 1.9457 2.3244 0.3346, 1.8549 2.3134 0.3346, 1.8339 2.3244 0.3346, 1.8161 2.3402 0.3346, 1.8026 2.3597 0.3346, 1.7942 2.3819 0.3346, 1.7913 2.4054 0.3346, 1.9247 2.3134 0.3346, 1.9016 2.3077 0.3346, 1.8779 2.3077 0.3346, 1.7913 2.4054 0.0, 1.7942 2.3819 0.0, 1.8026 2.3597 0.0, 1.8161 2.3402 0.0, 1.8339 2.3244 0.0, 1.9247 2.3134 0.0, 1.9457 2.3244 0.0, 1.9634 2.3402 0.0, 1.9769 2.3597 0.0, 1.9853 2.3819 0.0, 1.9882 2.4054 0.0, 1.8549 2.3134 0.0, 1.8779 2.3077 0.0, 1.9016 2.3077 0.0, 1.2992 2.0472 0.0, 1.6142 2.0472 0.0, 1.2992 2.0472 0.0079, 1.6142 2.0472 0.0079, 1.2992 2.2834 0.3307, 1.2992 2.2834 0.3346, 1.2992 2.4015 0.3307, 1.2992 2.4054 0.3346, 1.2992 2.4015 0.0079, 1.2992 2.4054 0.0, 1.6142 2.4015 0.0079, 1.6142 2.4054 0.0, 1.6142 2.4015 0.3307, 1.6142 2.4054 0.3346, 1.6142 2.2834 0.3307, 1.6142 2.2834 0.3346, 1.5551 2.4054 0.3346, 1.5523 2.3819 0.3346, 1.5304 2.3402 0.3346, 1.5126 2.3244 0.3346, 1.5438 2.3597 0.3346, 1.4916 2.3134 0.3346, 1.4686 2.3077 0.3346, 1.4448 2.3077 0.3346, 1.4218 2.3134 0.3346, 1.4008 2.3244 0.3346, 1.383 2.3402 0.3346, 1.3695 2.3597 0.3346, 1.3611 2.3819 0.3346, 1.3583 2.4054 0.3346, 1.3583 2.4054 0.0, 1.3611 2.3819 0.0, 1.3695 2.3597 0.0, 1.383 2.3402 0.0, 1.4008 2.3244 0.0, 1.4916 2.3134 0.0, 1.5126 2.3244 0.0, 1.4218 2.3134 0.0, 1.4448 2.3077 0.0, 1.4686 2.3077 0.0, 1.5304 2.3402 0.0, 1.5438 2.3597 0.0, 1.5523 2.3819 0.0, 1.5551 2.4054 0.0, 0.8661 2.0472 0.0, 1.1811 2.0472 0.0, 0.8661 2.0472 0.0079, 1.1811 2.0472 0.0079, 0.8661 2.2834 0.3307, 0.8661 2.2834 0.3346, 0.8661 2.4015 0.3307, 0.8661 2.4054 0.3346, 0.8661 2.4015 0.0079, 0.8661 2.4054 0.0, 1.1811 2.4015 0.0079, 1.1811 2.4054 0.0, 1.1811 2.4015 0.3307, 1.1811 2.4054 0.3346, 1.1811 2.2834 0.3307, 1.1811 2.2834 0.3346, 0.9887 2.3134 0.3346, 0.9677 2.3244 0.3346, 1.122 2.4054 0.3346, 1.1192 2.3819 0.3346, 1.0973 2.3402 0.3346, 1.0795 2.3244 0.3346, 1.0585 2.3134 0.3346, 1.0355 2.3077 0.3346, 1.0118 2.3077 0.3346, 0.9499 2.3402 0.3346, 0.9365 2.3597 0.3346, 0.9281 2.3819 0.3346, 0.9252 2.4054 0.3346, 1.1108 2.3597 0.3346, 0.9252 2.4054 0.0, 0.9281 2.3819 0.0, 0.9499 2.3402 0.0, 0.9677 2.3244 0.0, 1.0585 2.3134 0.0, 1.0795 2.3244 0.0, 0.9365 2.3597 0.0, 0.9887 2.3134 0.0, 1.0118 2.3077 0.0, 1.0355 2.3077 0.0, 1.0973 2.3402 0.0, 1.1108 2.3597 0.0, 1.1192 2.3819 0.0, 1.122 2.4054 0.0, -1.6142 2.0472 0.0, -1.2992 2.0472 0.0, -1.6142 2.0472 0.0079, -1.2992 2.0472 0.0079, -1.6142 2.2834 0.3307, -1.6142 2.2834 0.3346, -1.6142 2.4015 0.3307, -1.6142 2.4054 0.3346, -1.6142 2.4015 0.0079, -1.6142 2.4054 0.0, -1.2992 2.4015 0.0079, -1.2992 2.4054 0.0, -1.2992 2.4015 0.3307, -1.2992 2.4054 0.3346, -1.2992 2.2834 0.3307, -1.2992 2.2834 0.3346, -1.3583 2.4054 0.3346, -1.3611 2.3819 0.3346, -1.4916 2.3134 0.3346, -1.5126 2.3244 0.3346, -1.5304 2.3402 0.3346, -1.5438 2.3597 0.3346, -1.5523 2.3819 0.3346, -1.5551 2.4054 0.3346, -1.3695 2.3597 0.3346, -1.383 2.3402 0.3346, -1.4448 2.3077 0.3346, -1.4686 2.3077 0.3346, -1.4008 2.3244 0.3346, -1.4218 2.3134 0.3346, -1.5551 2.4054 0.0, -1.5523 2.3819 0.0, -1.5304 2.3402 0.0, -1.5126 2.3244 0.0, -1.5438 2.3597 0.0, -1.3695 2.3597 0.0, -1.3611 2.3819 0.0, -1.3583 2.4054 0.0, -1.4916 2.3134 0.0, -1.4686 2.3077 0.0, -1.4448 2.3077 0.0, -1.4218 2.3134 0.0, -1.4008 2.3244 0.0, -1.383 2.3402 0.0, -2.0472 2.0472 0.0, -1.7323 2.0472 0.0, -2.0472 2.0472 0.0079, -1.7323 2.0472 0.0079, -2.0472 2.2834 0.3307, -2.0472 2.2834 0.3346, -2.0472 2.4015 0.3307, -2.0472 2.4054 0.3346, -2.0472 2.4015 0.0079, -2.0472 2.4054 0.0, -1.7323 2.4015 0.0079, -1.7323 2.4054 0.0, -1.7323 2.4015 0.3307, -1.7323 2.4054 0.3346, -1.7323 2.2834 0.3307, -1.7323 2.2834 0.3346, -1.7913 2.4054 0.3346, -1.7942 2.3819 0.3346, -1.8161 2.3402 0.3346, -1.8339 2.3244 0.3346, -1.8549 2.3134 0.3346, -1.8026 2.3597 0.3346, -1.8779 2.3077 0.3346, -1.9016 2.3077 0.3346, -1.9247 2.3134 0.3346, -1.9457 2.3244 0.3346, -1.9634 2.3402 0.3346, -1.9769 2.3597 0.3346, -1.9853 2.3819 0.3346, -1.9882 2.4054 0.3346, -1.9882 2.4054 0.0, -1.9853 2.3819 0.0, -1.9634 2.3402 0.0, -1.9457 2.3244 0.0, -1.8549 2.3134 0.0, -1.8339 2.3244 0.0, -1.9769 2.3597 0.0, -1.9247 2.3134 0.0, -1.9016 2.3077 0.0, -1.8779 2.3077 0.0, -1.8161 2.3402 0.0, -1.8026 2.3597 0.0, -1.7942 2.3819 0.0, -1.7913 2.4054 0.0
            ]
        }
        coordIndex [
            0,1,2,-1,2,1,3,-1,4,5,6,-1,6,5,7,-1,6,7,8,-1,8,7,9,-1,8,9,2,-1,2,9,0,-1,3,1,10,-1,10,1,11,-1,10,11,12,-1,12,11,13,-1,12,13,14,-1,14,13,15,-1,13,16,17,-1,15,18,19,-1,19,20,15,-1,15,20,21,-1,15,21,5,-1,5,21,22,-1,5,22,23,-1,13,17,15,-1,15,17,24,-1,15,24,18,-1,23,25,5,-1,5,25,26,-1,5,26,7,-1,7,26,27,-1,7,27,28,-1,13,11,16,-1,16,11,29,-1,9,30,31,-1,9,31,0,-1,0,31,32,-1,0,32,33,-1,33,34,0,-1,0,34,35,-1,0,35,1,-1,35,36,1,-1,1,36,37,-1,1,37,38,-1,38,39,1,-1,1,39,40,-1,1,40,11,-1,11,40,41,-1,11,41,29,-1,42,43,44,-1,44,43,45,-1,46,47,48,-1,48,47,49,-1,48,49,50,-1,50,49,51,-1,50,51,44,-1,44,51,42,-1,45,43,52,-1,52,43,53,-1,52,53,54,-1,54,53,55,-1,54,55,56,-1,56,55,57,-1,47,58,59,-1,55,60,61,-1,57,62,63,-1,63,64,57,-1,57,64,65,-1,57,65,47,-1,47,65,66,-1,47,66,58,-1,59,67,47,-1,47,67,68,-1,47,68,49,-1,49,68,69,-1,49,69,70,-1,55,61,57,-1,57,61,71,-1,57,71,62,-1,51,72,73,-1,42,74,75,-1,43,76,77,-1,51,73,42,-1,42,73,78,-1,42,78,74,-1,75,79,42,-1,42,79,80,-1,42,80,43,-1,43,80,81,-1,43,81,76,-1,77,82,43,-1,43,82,83,-1,43,83,53,-1,53,83,84,-1,53,84,85,-1,86,87,88,-1,88,87,89,-1,90,91,92,-1,92,91,93,-1,92,93,94,-1,94,93,95,-1,94,95,88,-1,88,95,86,-1,89,87,96,-1,96,87,97,-1,96,97,98,-1,98,97,99,-1,98,99,100,-1,100,99,101,-1,102,103,91,-1,104,101,105,-1,105,101,106,-1,103,107,91,-1,91,107,108,-1,91,108,93,-1,93,108,109,-1,93,109,110,-1,106,101,111,-1,111,101,99,-1,111,99,112,-1,104,113,101,-1,101,113,114,-1,101,114,91,-1,91,114,115,-1,91,115,102,-1,116,117,87,-1,118,86,119,-1,119,86,120,-1,120,86,121,-1,121,86,95,-1,121,95,122,-1,118,123,86,-1,86,123,124,-1,86,124,87,-1,87,124,125,-1,87,125,116,-1,117,126,87,-1,87,126,127,-1,87,127,97,-1,97,127,128,-1,97,128,129,-1,130,131,132,-1,132,131,133,-1,134,135,136,-1,136,135,137,-1,136,137,138,-1,138,137,139,-1,138,139,132,-1,132,139,130,-1,133,131,140,-1,140,131,141,-1,140,141,142,-1,142,141,143,-1,142,143,144,-1,144,143,145,-1,143,146,147,-1,148,149,145,-1,143,147,145,-1,145,147,150,-1,145,150,148,-1,149,151,145,-1,145,151,152,-1,145,152,135,-1,152,153,135,-1,135,153,154,-1,135,154,155,-1,155,156,135,-1,135,156,157,-1,135,157,137,-1,137,157,158,-1,137,158,159,-1,143,141,146,-1,146,141,160,-1,139,161,162,-1,163,164,131,-1,164,165,131,-1,131,165,166,-1,131,166,141,-1,141,166,167,-1,141,167,160,-1,168,169,130,-1,139,162,130,-1,130,162,170,-1,130,170,168,-1,169,171,130,-1,130,171,172,-1,130,172,131,-1,131,172,173,-1,131,173,163,-1,174,175,176,-1,176,175,177,-1,178,179,180,-1,180,179,181,-1,180,181,182,-1,182,181,183,-1,182,183,176,-1,176,183,174,-1,177,175,184,-1,184,175,185,-1,184,185,186,-1,186,185,187,-1,186,187,188,-1,188,187,189,-1,187,190,191,-1,189,192,193,-1,194,195,179,-1,187,191,189,-1,189,191,196,-1,189,196,192,-1,193,197,189,-1,189,197,198,-1,189,198,179,-1,179,198,199,-1,179,199,194,-1,195,200,179,-1,179,200,201,-1,179,201,181,-1,181,201,202,-1,181,202,203,-1,187,185,190,-1,190,185,204,-1,183,205,206,-1,174,207,208,-1,209,210,175,-1,183,206,174,-1,174,206,211,-1,174,211,207,-1,208,212,174,-1,174,212,213,-1,174,213,175,-1,175,213,214,-1,175,214,209,-1,210,215,175,-1,175,215,216,-1,175,216,185,-1,185,216,217,-1,185,217,204,-1,218,219,220,-1,220,219,221,-1,222,223,224,-1,224,223,225,-1,224,225,226,-1,226,225,227,-1,226,227,220,-1,220,227,218,-1,221,219,228,-1,228,219,229,-1,228,229,230,-1,230,229,231,-1,230,231,232,-1,232,231,233,-1,231,234,235,-1,231,235,233,-1,235,236,233,-1,233,236,237,-1,233,237,238,-1,238,239,233,-1,233,239,240,-1,233,240,223,-1,240,241,223,-1,223,241,242,-1,223,242,243,-1,243,244,223,-1,223,244,245,-1,223,245,225,-1,225,245,246,-1,225,246,247,-1,231,229,234,-1,234,229,248,-1,219,249,229,-1,229,249,250,-1,229,250,248,-1,227,251,252,-1,253,254,219,-1,219,254,255,-1,219,255,249,-1,256,257,218,-1,257,258,218,-1,218,258,259,-1,218,259,219,-1,219,259,260,-1,219,260,253,-1,227,252,218,-1,218,252,261,-1,218,261,256,-1,262,263,264,-1,264,263,265,-1,266,267,268,-1,268,267,269,-1,268,269,270,-1,270,269,271,-1,270,271,264,-1,264,271,262,-1,265,263,272,-1,272,263,273,-1,272,273,274,-1,274,273,275,-1,274,275,276,-1,276,275,277,-1,275,278,279,-1,275,279,277,-1,279,280,277,-1,277,280,281,-1,277,281,282,-1,282,283,277,-1,277,283,284,-1,277,284,267,-1,267,284,285,-1,267,285,286,-1,267,287,269,-1,269,287,288,-1,269,288,289,-1,286,290,267,-1,267,290,291,-1,267,291,287,-1,275,273,278,-1,278,273,292,-1,271,293,294,-1,271,294,262,-1,263,295,273,-1,273,295,296,-1,273,296,292,-1,294,297,262,-1,262,297,298,-1,262,298,299,-1,299,300,262,-1,262,300,301,-1,262,301,263,-1,263,301,302,-1,263,302,303,-1,303,304,263,-1,263,304,305,-1,263,305,295,-1,306,307,308,-1,308,307,309,-1,310,311,312,-1,312,311,313,-1,312,313,314,-1,314,313,315,-1,314,315,308,-1,308,315,306,-1,309,307,316,-1,316,307,317,-1,316,317,318,-1,318,317,319,-1,318,319,320,-1,320,319,321,-1,311,322,323,-1,319,324,325,-1,321,326,327,-1,327,328,321,-1,321,328,329,-1,321,329,311,-1,311,329,330,-1,311,330,322,-1,323,331,311,-1,311,331,332,-1,311,332,313,-1,313,332,333,-1,313,333,334,-1,319,325,321,-1,321,325,335,-1,321,335,326,-1,319,317,324,-1,324,317,336,-1,337,338,306,-1,306,338,339,-1,307,340,341,-1,337,306,342,-1,342,306,315,-1,342,315,343,-1,339,344,306,-1,306,344,345,-1,306,345,307,-1,307,345,346,-1,307,346,340,-1,341,347,307,-1,307,347,348,-1,307,348,317,-1,317,348,349,-1,317,349,336,-1,350,351,352,-1,352,351,353,-1,354,355,356,-1,356,355,357,-1,356,357,358,-1,358,357,359,-1,358,359,352,-1,352,359,350,-1,353,351,360,-1,360,351,361,-1,360,361,362,-1,362,361,363,-1,362,363,364,-1,364,363,365,-1,366,367,355,-1,368,365,369,-1,369,365,370,-1,370,365,371,-1,371,365,363,-1,371,363,372,-1,368,373,365,-1,365,373,374,-1,365,374,355,-1,355,374,375,-1,355,375,366,-1,367,376,355,-1,355,376,377,-1,355,377,357,-1,357,377,378,-1,357,378,379,-1,363,361,372,-1,372,361,380,-1,381,382,350,-1,381,350,383,-1,384,385,351,-1,383,350,386,-1,386,350,359,-1,386,359,387,-1,382,388,350,-1,350,388,389,-1,350,389,351,-1,351,389,390,-1,351,390,384,-1,385,391,351,-1,351,391,392,-1,351,392,361,-1,361,392,393,-1,361,393,380,-1,394,395,396,-1,396,395,397,-1,398,399,400,-1,400,399,401,-1,400,401,402,-1,402,401,403,-1,402,403,396,-1,396,403,394,-1,397,395,404,-1,404,395,405,-1,404,405,406,-1,406,405,407,-1,406,407,408,-1,408,407,409,-1,410,411,399,-1,407,412,413,-1,409,414,415,-1,407,413,409,-1,409,413,416,-1,409,416,414,-1,415,417,409,-1,409,417,418,-1,409,418,399,-1,399,418,419,-1,399,419,410,-1,411,420,399,-1,399,420,421,-1,399,421,401,-1,401,421,422,-1,401,422,423,-1,407,405,412,-1,412,405,424,-1,425,426,394,-1,425,394,427,-1,395,428,429,-1,426,430,394,-1,394,430,431,-1,394,431,395,-1,395,431,432,-1,395,432,428,-1,429,433,395,-1,395,433,434,-1,395,434,405,-1,405,434,435,-1,405,435,424,-1,427,394,436,-1,436,394,403,-1,436,403,437,-1,438,439,440,-1,440,439,441,-1,442,443,444,-1,444,443,445,-1,444,445,446,-1,446,445,447,-1,446,447,440,-1,440,447,438,-1,441,439,448,-1,448,439,449,-1,448,449,450,-1,450,449,451,-1,450,451,452,-1,452,451,453,-1,451,454,455,-1,456,457,453,-1,451,455,453,-1,453,455,458,-1,453,458,456,-1,443,459,460,-1,457,461,453,-1,453,461,462,-1,453,462,443,-1,443,462,463,-1,443,463,459,-1,460,464,443,-1,443,464,465,-1,443,465,445,-1,445,465,466,-1,445,466,467,-1,451,449,454,-1,454,449,468,-1,469,470,438,-1,438,470,471,-1,439,472,473,-1,473,474,439,-1,439,474,475,-1,439,475,449,-1,449,475,476,-1,449,476,468,-1,469,438,477,-1,477,438,447,-1,477,447,478,-1,471,479,438,-1,438,479,480,-1,438,480,439,-1,439,480,481,-1,439,481,472,-1,482,483,484,-1,484,483,485,-1,486,487,488,-1,488,487,489,-1,488,489,490,-1,490,489,491,-1,490,491,484,-1,484,491,482,-1,485,483,492,-1,492,483,493,-1,492,493,494,-1,494,493,495,-1,494,495,496,-1,496,495,497,-1,495,498,499,-1,500,501,497,-1,487,502,489,-1,489,502,503,-1,489,503,504,-1,495,499,497,-1,497,499,505,-1,497,505,500,-1,506,507,487,-1,487,507,508,-1,487,508,502,-1,501,509,497,-1,497,509,510,-1,497,510,487,-1,487,510,511,-1,487,511,506,-1,495,493,498,-1,498,493,512,-1,491,513,514,-1,491,514,482,-1,514,515,482,-1,482,515,516,-1,482,516,517,-1,483,518,519,-1,519,520,483,-1,483,520,521,-1,483,521,493,-1,493,521,522,-1,493,522,512,-1,517,523,482,-1,482,523,524,-1,482,524,483,-1,483,524,525,-1,483,525,518,-1,526,527,528,-1,528,527,529,-1,530,531,532,-1,532,531,533,-1,532,533,534,-1,534,533,535,-1,534,535,528,-1,528,535,526,-1,529,527,536,-1,536,527,537,-1,536,537,538,-1,538,537,539,-1,538,539,540,-1,540,539,541,-1,539,542,543,-1,541,544,545,-1,539,543,541,-1,541,543,546,-1,541,546,544,-1,547,548,531,-1,545,549,541,-1,541,549,550,-1,541,550,531,-1,531,550,551,-1,531,551,547,-1,548,552,531,-1,531,552,553,-1,531,553,533,-1,533,553,554,-1,533,554,555,-1,539,537,542,-1,542,537,556,-1,557,558,526,-1,526,558,559,-1,560,561,527,-1,557,526,562,-1,562,526,535,-1,562,535,563,-1,559,564,526,-1,526,564,565,-1,526,565,527,-1,527,565,566,-1,527,566,560,-1,561,567,527,-1,527,567,568,-1,527,568,537,-1,537,568,569,-1,537,569,556,-1,570,571,572,-1,572,571,573,-1,573,571,574,-1,574,571,575,-1,574,575,576,-1,576,575,577,-1,576,577,578,-1,578,577,579,-1,580,581,582,-1,582,581,583,-1,582,583,584,-1,584,583,585,-1,584,585,572,-1,572,585,570,-1,577,586,587,-1,579,588,589,-1,577,587,579,-1,579,587,590,-1,579,590,588,-1,589,591,579,-1,579,591,592,-1,579,592,581,-1,592,593,581,-1,581,593,594,-1,581,594,595,-1,595,596,581,-1,581,596,597,-1,581,597,583,-1,583,597,598,-1,583,598,599,-1,577,575,586,-1,586,575,600,-1,601,602,570,-1,570,602,603,-1,603,604,570,-1,570,604,605,-1,570,605,571,-1,601,570,606,-1,606,570,585,-1,606,585,607,-1,605,608,571,-1,571,608,609,-1,571,609,610,-1,610,611,571,-1,571,611,612,-1,571,612,575,-1,575,612,613,-1,575,613,600,-1,614,615,616,-1,616,615,617,-1,618,619,620,-1,620,619,621,-1,620,621,622,-1,622,621,623,-1,622,623,616,-1,616,623,614,-1,617,615,624,-1,624,615,625,-1,624,625,626,-1,626,625,627,-1,626,627,628,-1,628,627,629,-1,627,630,631,-1,627,631,629,-1,631,632,629,-1,629,632,633,-1,629,633,634,-1,634,635,629,-1,629,635,636,-1,629,636,619,-1,619,636,637,-1,619,637,638,-1,619,639,621,-1,621,639,640,-1,621,640,641,-1,638,642,619,-1,619,642,643,-1,619,643,639,-1,623,644,645,-1,623,645,614,-1,615,646,625,-1,625,646,647,-1,625,647,648,-1,645,649,614,-1,614,649,650,-1,614,650,651,-1,651,652,614,-1,614,652,653,-1,614,653,615,-1,615,653,654,-1,615,654,655,-1,655,656,615,-1,615,656,657,-1,615,657,646,-1,658,659,660,-1,660,659,661,-1,661,659,662,-1,662,659,663,-1,662,663,664,-1,664,663,665,-1,664,665,666,-1,666,665,667,-1,668,669,670,-1,670,669,671,-1,670,671,672,-1,672,671,673,-1,672,673,660,-1,660,673,658,-1,665,674,675,-1,667,676,677,-1,677,678,667,-1,667,678,679,-1,667,679,669,-1,669,679,680,-1,669,680,681,-1,665,675,667,-1,667,675,682,-1,667,682,676,-1,681,683,669,-1,669,683,684,-1,669,684,671,-1,671,684,685,-1,671,685,686,-1,673,687,688,-1,689,690,658,-1,658,690,691,-1,658,691,659,-1,673,688,658,-1,658,688,692,-1,658,692,689,-1,691,693,659,-1,659,693,694,-1,659,694,695,-1,695,696,659,-1,659,696,697,-1,659,697,663,-1,663,697,698,-1,663,698,699,-1,700,701,702,-1,702,701,703,-1,704,705,706,-1,706,705,707,-1,706,707,708,-1,708,707,709,-1,708,709,702,-1,702,709,700,-1,703,701,710,-1,710,701,711,-1,710,711,712,-1,712,711,713,-1,712,713,714,-1,714,713,715,-1,713,716,717,-1,718,719,715,-1,713,717,715,-1,715,717,720,-1,715,720,718,-1,721,722,705,-1,722,723,705,-1,705,723,724,-1,705,724,707,-1,707,724,725,-1,707,725,726,-1,719,727,715,-1,715,727,728,-1,715,728,705,-1,705,728,729,-1,705,729,721,-1,709,730,731,-1,732,733,700,-1,709,731,700,-1,700,731,734,-1,700,734,732,-1,735,736,701,-1,736,737,701,-1,701,737,738,-1,701,738,711,-1,711,738,739,-1,711,739,740,-1,733,741,700,-1,700,741,742,-1,700,742,701,-1,701,742,743,-1,701,743,735,-1,744,745,746,-1,746,745,747,-1,748,749,750,-1,750,749,751,-1,750,751,752,-1,752,751,753,-1,752,753,746,-1,746,753,744,-1,747,745,754,-1,754,745,755,-1,754,755,756,-1,756,755,757,-1,756,757,758,-1,758,757,759,-1,757,760,761,-1,759,762,763,-1,757,761,759,-1,759,761,764,-1,759,764,762,-1,765,766,749,-1,763,767,759,-1,759,767,768,-1,759,768,749,-1,749,768,769,-1,749,769,765,-1,766,770,749,-1,749,770,771,-1,749,771,751,-1,751,771,772,-1,751,772,773,-1,753,774,775,-1,745,776,777,-1,744,778,779,-1,777,780,745,-1,745,780,781,-1,745,781,755,-1,755,781,782,-1,755,782,783,-1,753,775,744,-1,744,775,784,-1,744,784,778,-1,779,785,744,-1,744,785,786,-1,744,786,745,-1,745,786,787,-1,745,787,776,-1,788,789,790,-1,790,789,791,-1,792,793,794,-1,794,793,795,-1,794,795,796,-1,796,795,797,-1,796,797,790,-1,790,797,788,-1,791,789,798,-1,798,789,799,-1,798,799,800,-1,800,799,801,-1,800,801,802,-1,802,801,803,-1,801,804,805,-1,803,806,807,-1,801,805,803,-1,803,805,808,-1,803,808,806,-1,809,810,793,-1,807,811,803,-1,803,811,812,-1,803,812,793,-1,793,812,813,-1,793,813,809,-1,810,814,793,-1,793,814,815,-1,793,815,795,-1,795,815,816,-1,795,816,817,-1,797,818,819,-1,788,820,821,-1,797,819,788,-1,788,819,822,-1,788,822,820,-1,823,824,789,-1,821,825,788,-1,788,825,826,-1,788,826,789,-1,789,826,827,-1,789,827,823,-1,824,828,789,-1,789,828,829,-1,789,829,799,-1,799,829,830,-1,799,830,831,-1,832,833,834,-1,834,833,835,-1,836,837,838,-1,838,837,839,-1,838,839,840,-1,840,839,841,-1,840,841,834,-1,834,841,832,-1,835,833,842,-1,842,833,843,-1,842,843,844,-1,844,843,845,-1,844,845,846,-1,846,845,847,-1,845,848,849,-1,845,849,847,-1,849,850,847,-1,847,850,851,-1,847,851,852,-1,837,853,854,-1,854,855,837,-1,837,855,856,-1,837,856,839,-1,839,856,857,-1,839,857,858,-1,852,859,847,-1,847,859,860,-1,847,860,837,-1,837,860,861,-1,837,861,853,-1,841,862,863,-1,841,863,832,-1,863,864,832,-1,832,864,865,-1,832,865,866,-1,833,867,868,-1,868,869,833,-1,833,869,870,-1,833,870,843,-1,843,870,871,-1,843,871,872,-1,866,873,832,-1,832,873,874,-1,832,874,833,-1,833,874,875,-1,833,875,867,-1,876,877,878,-1,878,877,879,-1,880,881,882,-1,882,881,883,-1,882,883,884,-1,884,883,885,-1,884,885,878,-1,878,885,876,-1,879,877,886,-1,886,877,887,-1,886,887,888,-1,888,887,889,-1,888,889,890,-1,890,889,891,-1,889,892,893,-1,894,895,891,-1,889,893,891,-1,891,893,896,-1,891,896,894,-1,895,897,891,-1,891,897,898,-1,891,898,881,-1,898,899,881,-1,881,899,900,-1,881,900,901,-1,901,902,881,-1,881,902,903,-1,881,903,883,-1,883,903,904,-1,883,904,905,-1,885,906,907,-1,885,907,876,-1,907,908,876,-1,876,908,909,-1,876,909,910,-1,877,911,912,-1,910,913,876,-1,876,913,914,-1,876,914,877,-1,877,914,915,-1,877,915,911,-1,912,916,877,-1,877,916,917,-1,877,917,887,-1,887,917,918,-1,887,918,919,-1,920,921,922,-1,922,921,923,-1,924,925,926,-1,926,925,927,-1,926,927,928,-1,928,927,929,-1,928,929,922,-1,922,929,920,-1,923,921,930,-1,930,921,931,-1,930,931,932,-1,932,931,933,-1,932,933,934,-1,934,933,935,-1,925,936,937,-1,933,938,939,-1,935,940,941,-1,941,942,935,-1,935,942,943,-1,935,943,925,-1,925,943,944,-1,925,944,936,-1,937,945,925,-1,925,945,946,-1,925,946,927,-1,927,946,947,-1,927,947,948,-1,933,939,935,-1,935,939,949,-1,935,949,940,-1,929,950,951,-1,920,952,953,-1,921,954,955,-1,929,951,920,-1,920,951,956,-1,920,956,952,-1,953,957,920,-1,920,957,958,-1,920,958,921,-1,921,958,959,-1,921,959,954,-1,955,960,921,-1,921,960,961,-1,921,961,931,-1,931,961,962,-1,931,962,963,-1,964,965,966,-1,966,965,967,-1,968,969,970,-1,970,969,971,-1,970,971,972,-1,972,971,973,-1,972,973,966,-1,966,973,964,-1,967,965,974,-1,974,965,975,-1,974,975,976,-1,976,975,977,-1,976,977,978,-1,978,977,979,-1,977,980,981,-1,969,982,983,-1,983,984,969,-1,969,984,985,-1,969,985,971,-1,971,985,986,-1,971,986,987,-1,977,981,979,-1,979,981,988,-1,979,988,989,-1,979,990,969,-1,969,990,991,-1,969,991,982,-1,989,992,979,-1,979,992,993,-1,979,993,990,-1,973,994,995,-1,996,997,964,-1,973,995,964,-1,964,995,998,-1,964,998,996,-1,965,999,975,-1,975,999,1000,-1,975,1000,1001,-1,997,1002,964,-1,964,1002,1003,-1,964,1003,965,-1,965,1003,1004,-1,965,1004,1005,-1,1005,1006,965,-1,965,1006,1007,-1,965,1007,999,-1,1008,1009,1010,-1,1010,1009,1011,-1,1012,1013,1014,-1,1014,1013,1015,-1,1014,1015,1016,-1,1016,1015,1017,-1,1016,1017,1010,-1,1010,1017,1008,-1,1011,1009,1018,-1,1018,1009,1019,-1,1018,1019,1020,-1,1020,1019,1021,-1,1020,1021,1022,-1,1022,1021,1023,-1,1021,1024,1025,-1,1026,1027,1023,-1,1023,1027,1028,-1,1021,1025,1023,-1,1023,1025,1029,-1,1023,1029,1026,-1,1028,1030,1023,-1,1023,1030,1031,-1,1023,1031,1013,-1,1013,1031,1032,-1,1013,1032,1033,-1,1033,1034,1013,-1,1013,1034,1035,-1,1013,1035,1015,-1,1015,1035,1036,-1,1015,1036,1037,-1,1017,1038,1039,-1,1008,1040,1041,-1,1042,1043,1009,-1,1017,1039,1008,-1,1008,1039,1044,-1,1008,1044,1040,-1,1041,1045,1008,-1,1008,1045,1046,-1,1008,1046,1009,-1,1009,1046,1047,-1,1009,1047,1042,-1,1043,1048,1009,-1,1009,1048,1049,-1,1009,1049,1019,-1,1019,1049,1050,-1,1019,1050,1051,-1,1022,1023,1012,-1,1012,1023,1013,-1,978,979,968,-1,968,979,969,-1,934,935,924,-1,924,935,925,-1,890,891,880,-1,880,891,881,-1,846,847,836,-1,836,847,837,-1,802,803,792,-1,792,803,793,-1,758,759,748,-1,748,759,749,-1,714,715,704,-1,704,715,705,-1,669,668,667,-1,667,668,666,-1,628,629,618,-1,618,629,619,-1,581,580,579,-1,579,580,578,-1,540,541,530,-1,530,541,531,-1,496,497,486,-1,486,497,487,-1,452,453,442,-1,442,453,443,-1,408,409,398,-1,398,409,399,-1,364,365,354,-1,354,365,355,-1,320,321,310,-1,310,321,311,-1,276,277,266,-1,266,277,267,-1,232,233,222,-1,222,233,223,-1,188,189,178,-1,178,189,179,-1,144,145,134,-1,134,145,135,-1,100,101,90,-1,90,101,91,-1,56,57,46,-1,46,57,47,-1,14,15,4,-1,4,15,5,-1,607,599,606,-1,606,599,598,-1,606,598,601,-1,601,598,597,-1,601,597,602,-1,602,597,596,-1,602,596,603,-1,603,596,595,-1,603,595,604,-1,604,595,594,-1,604,594,605,-1,605,594,593,-1,605,593,608,-1,608,593,592,-1,608,592,609,-1,609,592,591,-1,609,591,610,-1,610,591,589,-1,610,589,611,-1,611,589,588,-1,611,588,612,-1,612,588,590,-1,612,590,613,-1,613,590,587,-1,613,587,600,-1,600,587,586,-1,563,555,562,-1,562,555,554,-1,562,554,557,-1,557,554,553,-1,557,553,558,-1,558,553,552,-1,558,552,559,-1,559,552,548,-1,559,548,564,-1,564,548,547,-1,564,547,565,-1,565,547,551,-1,565,551,566,-1,566,551,550,-1,566,550,560,-1,560,550,549,-1,560,549,561,-1,561,549,545,-1,561,545,567,-1,567,545,544,-1,567,544,568,-1,568,544,546,-1,568,546,569,-1,569,546,543,-1,569,543,556,-1,556,543,542,-1,513,504,514,-1,514,504,503,-1,514,503,515,-1,515,503,502,-1,515,502,516,-1,516,502,508,-1,516,508,517,-1,517,508,507,-1,517,507,523,-1,523,507,506,-1,523,506,524,-1,524,506,511,-1,524,511,525,-1,525,511,510,-1,525,510,518,-1,518,510,509,-1,518,509,519,-1,519,509,501,-1,519,501,520,-1,520,501,500,-1,520,500,521,-1,521,500,505,-1,521,505,522,-1,522,505,499,-1,522,499,512,-1,512,499,498,-1,478,467,477,-1,477,467,466,-1,477,466,469,-1,469,466,465,-1,469,465,470,-1,470,465,464,-1,470,464,471,-1,471,464,460,-1,471,460,479,-1,479,460,459,-1,479,459,480,-1,480,459,463,-1,480,463,481,-1,481,463,462,-1,481,462,472,-1,472,462,461,-1,472,461,473,-1,473,461,457,-1,473,457,474,-1,474,457,456,-1,474,456,475,-1,475,456,458,-1,475,458,476,-1,476,458,455,-1,476,455,468,-1,468,455,454,-1,437,423,436,-1,436,423,422,-1,436,422,427,-1,427,422,421,-1,427,421,425,-1,425,421,420,-1,425,420,426,-1,426,420,411,-1,426,411,430,-1,430,411,410,-1,430,410,431,-1,431,410,419,-1,431,419,432,-1,432,419,418,-1,432,418,428,-1,428,418,417,-1,428,417,429,-1,429,417,415,-1,429,415,433,-1,433,415,414,-1,433,414,434,-1,434,414,416,-1,434,416,435,-1,435,416,413,-1,435,413,424,-1,424,413,412,-1,387,379,386,-1,386,379,378,-1,386,378,383,-1,383,378,377,-1,383,377,381,-1,381,377,376,-1,381,376,382,-1,382,376,367,-1,382,367,388,-1,388,367,366,-1,388,366,389,-1,389,366,375,-1,389,375,390,-1,390,375,374,-1,390,374,384,-1,384,374,373,-1,384,373,385,-1,385,373,368,-1,385,368,391,-1,391,368,369,-1,391,369,392,-1,392,369,370,-1,392,370,393,-1,393,370,371,-1,393,371,380,-1,380,371,372,-1,343,334,342,-1,342,334,333,-1,342,333,337,-1,337,333,332,-1,337,332,338,-1,338,332,331,-1,338,331,339,-1,339,331,323,-1,339,323,344,-1,344,323,322,-1,344,322,345,-1,345,322,330,-1,345,330,346,-1,346,330,329,-1,346,329,340,-1,340,329,328,-1,340,328,341,-1,341,328,327,-1,341,327,347,-1,347,327,326,-1,347,326,348,-1,348,326,335,-1,348,335,349,-1,349,335,325,-1,349,325,336,-1,336,325,324,-1,293,289,294,-1,294,289,288,-1,294,288,297,-1,297,288,287,-1,297,287,298,-1,298,287,291,-1,298,291,299,-1,299,291,290,-1,299,290,300,-1,300,290,286,-1,300,286,301,-1,301,286,285,-1,301,285,302,-1,302,285,284,-1,302,284,303,-1,303,284,283,-1,303,283,304,-1,304,283,282,-1,304,282,305,-1,305,282,281,-1,305,281,295,-1,295,281,280,-1,295,280,296,-1,296,280,279,-1,296,279,292,-1,292,279,278,-1,251,247,252,-1,252,247,246,-1,252,246,261,-1,261,246,245,-1,261,245,256,-1,256,245,244,-1,256,244,257,-1,257,244,243,-1,257,243,258,-1,258,243,242,-1,258,242,259,-1,259,242,241,-1,259,241,260,-1,260,241,240,-1,260,240,253,-1,253,240,239,-1,253,239,254,-1,254,239,238,-1,254,238,255,-1,255,238,237,-1,255,237,249,-1,249,237,236,-1,249,236,250,-1,250,236,235,-1,250,235,248,-1,248,235,234,-1,205,203,206,-1,206,203,202,-1,206,202,211,-1,211,202,201,-1,211,201,207,-1,207,201,200,-1,207,200,208,-1,208,200,195,-1,208,195,212,-1,212,195,194,-1,212,194,213,-1,213,194,199,-1,213,199,214,-1,214,199,198,-1,214,198,209,-1,209,198,197,-1,209,197,210,-1,210,197,193,-1,210,193,215,-1,215,193,192,-1,215,192,216,-1,216,192,196,-1,216,196,217,-1,217,196,191,-1,217,191,204,-1,204,191,190,-1,161,159,162,-1,162,159,158,-1,162,158,170,-1,170,158,157,-1,170,157,168,-1,168,157,156,-1,168,156,169,-1,169,156,155,-1,169,155,171,-1,171,155,154,-1,171,154,172,-1,172,154,153,-1,172,153,173,-1,173,153,152,-1,173,152,163,-1,163,152,151,-1,163,151,164,-1,164,151,149,-1,164,149,165,-1,165,149,148,-1,165,148,166,-1,166,148,150,-1,166,150,167,-1,167,150,147,-1,167,147,160,-1,160,147,146,-1,30,28,31,-1,31,28,27,-1,31,27,32,-1,32,27,26,-1,32,26,33,-1,33,26,25,-1,33,25,34,-1,34,25,23,-1,34,23,35,-1,35,23,22,-1,35,22,36,-1,36,22,21,-1,36,21,37,-1,37,21,20,-1,37,20,38,-1,38,20,19,-1,38,19,39,-1,39,19,18,-1,39,18,40,-1,40,18,24,-1,40,24,41,-1,41,24,17,-1,41,17,29,-1,29,17,16,-1,1038,1037,1039,-1,1039,1037,1036,-1,1039,1036,1044,-1,1044,1036,1035,-1,1044,1035,1040,-1,1040,1035,1034,-1,1040,1034,1041,-1,1041,1034,1033,-1,1041,1033,1045,-1,1045,1033,1032,-1,1045,1032,1046,-1,1046,1032,1031,-1,1046,1031,1047,-1,1047,1031,1030,-1,1047,1030,1042,-1,1042,1030,1028,-1,1042,1028,1043,-1,1043,1028,1027,-1,1043,1027,1048,-1,1048,1027,1026,-1,1048,1026,1049,-1,1049,1026,1029,-1,1049,1029,1050,-1,1050,1029,1025,-1,1050,1025,1051,-1,1051,1025,1024,-1,994,987,995,-1,995,987,986,-1,995,986,998,-1,998,986,985,-1,998,985,996,-1,996,985,984,-1,996,984,997,-1,997,984,983,-1,997,983,1002,-1,1002,983,982,-1,1002,982,1003,-1,1003,982,991,-1,1003,991,1004,-1,1004,991,990,-1,1004,990,1005,-1,1005,990,993,-1,1005,993,1006,-1,1006,993,992,-1,1006,992,1007,-1,1007,992,989,-1,1007,989,999,-1,999,989,988,-1,999,988,1000,-1,1000,988,981,-1,1000,981,1001,-1,1001,981,980,-1,950,948,951,-1,951,948,947,-1,951,947,956,-1,956,947,946,-1,956,946,952,-1,952,946,945,-1,952,945,953,-1,953,945,937,-1,953,937,957,-1,957,937,936,-1,957,936,958,-1,958,936,944,-1,958,944,959,-1,959,944,943,-1,959,943,954,-1,954,943,942,-1,954,942,955,-1,955,942,941,-1,955,941,960,-1,960,941,940,-1,960,940,961,-1,961,940,949,-1,961,949,962,-1,962,949,939,-1,962,939,963,-1,963,939,938,-1,906,905,907,-1,907,905,904,-1,907,904,908,-1,908,904,903,-1,908,903,909,-1,909,903,902,-1,909,902,910,-1,910,902,901,-1,910,901,913,-1,913,901,900,-1,913,900,914,-1,914,900,899,-1,914,899,915,-1,915,899,898,-1,915,898,911,-1,911,898,897,-1,911,897,912,-1,912,897,895,-1,912,895,916,-1,916,895,894,-1,916,894,917,-1,917,894,896,-1,917,896,918,-1,918,896,893,-1,918,893,919,-1,919,893,892,-1,862,858,863,-1,863,858,857,-1,863,857,864,-1,864,857,856,-1,864,856,865,-1,865,856,855,-1,865,855,866,-1,866,855,854,-1,866,854,873,-1,873,854,853,-1,873,853,874,-1,874,853,861,-1,874,861,875,-1,875,861,860,-1,875,860,867,-1,867,860,859,-1,867,859,868,-1,868,859,852,-1,868,852,869,-1,869,852,851,-1,869,851,870,-1,870,851,850,-1,870,850,871,-1,871,850,849,-1,871,849,872,-1,872,849,848,-1,818,817,819,-1,819,817,816,-1,819,816,822,-1,822,816,815,-1,822,815,820,-1,820,815,814,-1,820,814,821,-1,821,814,810,-1,821,810,825,-1,825,810,809,-1,825,809,826,-1,826,809,813,-1,826,813,827,-1,827,813,812,-1,827,812,823,-1,823,812,811,-1,823,811,824,-1,824,811,807,-1,824,807,828,-1,828,807,806,-1,828,806,829,-1,829,806,808,-1,829,808,830,-1,830,808,805,-1,830,805,831,-1,831,805,804,-1,774,773,775,-1,775,773,772,-1,775,772,784,-1,784,772,771,-1,784,771,778,-1,778,771,770,-1,778,770,779,-1,779,770,766,-1,779,766,785,-1,785,766,765,-1,785,765,786,-1,786,765,769,-1,786,769,787,-1,787,769,768,-1,787,768,776,-1,776,768,767,-1,776,767,777,-1,777,767,763,-1,777,763,780,-1,780,763,762,-1,780,762,781,-1,781,762,764,-1,781,764,782,-1,782,764,761,-1,782,761,783,-1,783,761,760,-1,730,726,731,-1,731,726,725,-1,731,725,734,-1,734,725,724,-1,734,724,732,-1,732,724,723,-1,732,723,733,-1,733,723,722,-1,733,722,741,-1,741,722,721,-1,741,721,742,-1,742,721,729,-1,742,729,743,-1,743,729,728,-1,743,728,735,-1,735,728,727,-1,735,727,736,-1,736,727,719,-1,736,719,737,-1,737,719,718,-1,737,718,738,-1,738,718,720,-1,738,720,739,-1,739,720,717,-1,739,717,740,-1,740,717,716,-1,687,686,688,-1,688,686,685,-1,688,685,692,-1,692,685,684,-1,692,684,689,-1,689,684,683,-1,689,683,690,-1,690,683,681,-1,690,681,691,-1,691,681,680,-1,691,680,693,-1,693,680,679,-1,693,679,694,-1,694,679,678,-1,694,678,695,-1,695,678,677,-1,695,677,696,-1,696,677,676,-1,696,676,697,-1,697,676,682,-1,697,682,698,-1,698,682,675,-1,698,675,699,-1,699,675,674,-1,644,641,645,-1,645,641,640,-1,645,640,649,-1,649,640,639,-1,649,639,650,-1,650,639,643,-1,650,643,651,-1,651,643,642,-1,651,642,652,-1,652,642,638,-1,652,638,653,-1,653,638,637,-1,653,637,654,-1,654,637,636,-1,654,636,655,-1,655,636,635,-1,655,635,656,-1,656,635,634,-1,656,634,657,-1,657,634,633,-1,657,633,646,-1,646,633,632,-1,646,632,647,-1,647,632,631,-1,647,631,648,-1,648,631,630,-1,122,110,121,-1,121,110,109,-1,121,109,120,-1,120,109,108,-1,120,108,119,-1,119,108,107,-1,119,107,118,-1,118,107,103,-1,118,103,123,-1,123,103,102,-1,123,102,124,-1,124,102,115,-1,124,115,125,-1,125,115,114,-1,125,114,116,-1,116,114,113,-1,116,113,117,-1,117,113,104,-1,117,104,126,-1,126,104,105,-1,126,105,127,-1,127,105,106,-1,127,106,128,-1,128,106,111,-1,128,111,129,-1,129,111,112,-1,72,70,73,-1,73,70,69,-1,73,69,78,-1,78,69,68,-1,78,68,74,-1,74,68,67,-1,74,67,75,-1,75,67,59,-1,75,59,79,-1,79,59,58,-1,79,58,80,-1,80,58,66,-1,80,66,81,-1,81,66,65,-1,81,65,76,-1,76,65,64,-1,76,64,77,-1,77,64,63,-1,77,63,82,-1,82,63,62,-1,82,62,83,-1,83,62,71,-1,83,71,84,-1,84,71,61,-1,84,61,85,-1,85,61,60,-1,
        ]
    }
}
Shape{
    appearance Appearance {
        material  Material 	{
            diffuseColor 0.0 0.0 0.0
            specularColor 0.0 0.0 0.0
            ambientIntensity 0.0
            transparency 0.0
            shininess 0.5
        }
    }
    geometry IndexedFaceSet {
        ccw TRUE
        solid FALSE
        coord DEF co Coordinate {
            point [
                -0.5872 -0.0823 0.0118, -0.5739 -0.1255 0.0118, -0.7188 -0.0823 0.0118, -0.7365 -0.1255 0.0118, -0.6459 0.0821 0.0118, -0.6275 0.1577 0.0118, -0.4787 -0.236 0.0118, -0.5363 -0.236 0.0118, -0.6497 0.0958 0.0118, -0.6522 0.1097 0.0118, -0.6803 0.1577 0.0118, -0.6535 0.1097 0.0118, -0.656 0.0958 0.0118, -0.6595 0.0821 0.0118, -0.834 -0.236 0.0118, -0.7764 -0.236 0.0118, -0.7365 -0.1255 0.0079, -0.7764 -0.236 0.0079, -0.5739 -0.1255 0.0079, -0.5363 -0.236 0.0079, -0.4787 -0.236 0.0079, -0.6275 0.1577 0.0079, -0.6803 0.1577 0.0079, -0.834 -0.236 0.0079, -0.6595 0.0821 0.0079, -0.656 0.0958 0.0079, -0.6535 0.1097 0.0079, -0.6522 0.1097 0.0079, -0.6497 0.0958 0.0079, -0.6459 0.0821 0.0079, -0.5872 -0.0823 0.0079, -0.7188 -0.0823 0.0079, -0.2441 0.1577 0.0118, -0.2441 0.1577 0.0079, -0.133 0.1577 0.0118, -0.133 0.1577 0.0079, -0.301 0.1517 0.0118, -0.301 0.1517 0.0079, -0.347 0.1355 0.0118, -0.347 0.1355 0.0079, -0.3899 0.1068 0.0118, -0.3899 0.1068 0.0079, -0.3903 0.1064 0.0118, -0.3903 0.1064 0.0079, -0.4181 0.0755 0.0118, -0.4181 0.0755 0.0079, -0.4364 0.0417 0.0118, -0.4364 0.0417 0.0079, -0.447 0.0029 0.0118, -0.447 0.0029 0.0079, -0.4499 -0.0342 0.0118, -0.4499 -0.0342 0.0079, -0.4443 -0.0868 0.0118, -0.4443 -0.0868 0.0079, -0.4302 -0.1281 0.0118, -0.4302 -0.1281 0.0079, -0.4076 -0.1633 0.0118, -0.4076 -0.1633 0.0079, -0.3752 -0.1943 0.0118, -0.3752 -0.1943 0.0079, -0.3341 -0.2182 0.0118, -0.3341 -0.2182 0.0079, -0.2888 -0.2317 0.0118, -0.2888 -0.2317 0.0079, -0.24 -0.236 0.0118, -0.24 -0.236 0.0079, -0.133 -0.236 0.0118, -0.133 -0.236 0.0079, -0.3708 0.0593 0.0118, -0.3517 0.0796 0.0118, -0.323 0.0982 0.0118, -0.2905 0.1096 0.0118, -0.2439 0.1145 0.0118, -0.1858 0.1145 0.0118, -0.1858 -0.1928 0.0118, -0.2417 -0.1928 0.0118, -0.2832 -0.1889 0.0118, -0.3164 -0.1785 0.0118, -0.3432 -0.1626 0.0118, -0.3653 -0.1408 0.0118, -0.3819 -0.1136 0.0118, -0.3934 -0.0766 0.0118, -0.3971 -0.0353 0.0118, -0.3937 0.0039 0.0118, -0.3845 0.035 0.0118, -0.2417 -0.1928 0.0079, -0.1858 -0.1928 0.0079, -0.2832 -0.1889 0.0079, -0.3164 -0.1785 0.0079, -0.3432 -0.1626 0.0079, -0.3653 -0.1408 0.0079, -0.3819 -0.1136 0.0079, -0.3934 -0.0766 0.0079, -0.3971 -0.0353 0.0079, -0.3937 0.0039 0.0079, -0.3845 0.035 0.0079, -0.3708 0.0593 0.0079, -0.3517 0.0796 0.0079, -0.323 0.0982 0.0079, -0.2905 0.1096 0.0079, -0.2439 0.1145 0.0079, -0.1858 0.1145 0.0079, 0.1551 0.1577 0.0118, 0.1551 0.1577 0.0079, 0.1551 -0.236 0.0118, 0.1551 -0.236 0.0079, -0.0466 0.1577 0.0118, -0.0466 0.1577 0.0079, -0.0466 0.1145 0.0118, -0.0466 0.1145 0.0079, 0.1023 0.1145 0.0118, 0.1023 0.1145 0.0079, 0.1023 -0.0151 0.0118, 0.1023 -0.0151 0.0079, -0.037 -0.0151 0.0118, -0.037 -0.0151 0.0079, -0.037 -0.0583 0.0118, -0.037 -0.0583 0.0079, 0.1023 -0.0583 0.0118, 0.1023 -0.0583 0.0079, 0.1023 -0.1928 0.0118, 0.1023 -0.1928 0.0079, -0.0562 -0.1928 0.0118, -0.0562 -0.1928 0.0079, -0.0562 -0.236 0.0118, -0.0562 -0.236 0.0079, 0.3402 -0.2408 0.0079, 0.3402 -0.2408 0.0118, 0.3634 -0.2384 0.0079, 0.3887 -0.2357 0.0118, 0.3887 -0.2357 0.0079, 0.4269 -0.2226 0.0118, 0.4269 -0.2226 0.0079, 0.4586 -0.2024 0.0118, 0.4586 -0.2024 0.0079, 0.4881 -0.1712 0.0118, 0.4881 -0.1712 0.0079, 0.5091 -0.1338 0.0118, 0.5091 -0.1338 0.0079, 0.521 -0.0921 0.0118, 0.521 -0.0921 0.0079, 0.5248 -0.0465 0.0118, 0.5248 -0.0465 0.0079, 0.5191 0.0094 0.0118, 0.5191 0.0094 0.0079, 0.504 0.054 0.0118, 0.504 0.054 0.0079, 0.4809 0.0909 0.0118, 0.4809 0.0909 0.0079, 0.4454 0.125 0.0118, 0.4454 0.125 0.0079, 0.408 0.1466 0.0118, 0.408 0.1466 0.0079, 0.3641 0.1593 0.0118, 0.3641 0.1593 0.0079, 0.3246 0.1625 0.0118, 0.3246 0.1625 0.0079, 0.2774 0.1593 0.0118, 0.2774 0.1593 0.0079, 0.2319 0.1469 0.0118, 0.2319 0.1469 0.0079, 0.2319 0.0941 0.0118, 0.2319 0.0941 0.0079, 0.2763 0.1131 0.0118, 0.2763 0.1131 0.0079, 0.3241 0.1193 0.0118, 0.3241 0.1193 0.0079, 0.3629 0.115 0.0118, 0.3629 0.115 0.0079, 0.3923 0.1043 0.0118, 0.3923 0.1043 0.0079, 0.4196 0.0861 0.0118, 0.4196 0.0861 0.0079, 0.4434 0.0599 0.0118, 0.4434 0.0599 0.0079, 0.4596 0.0295 0.0118, 0.4596 0.0295 0.0079, 0.4701 -0.0127 0.0118, 0.4701 -0.0127 0.0079, 0.472 -0.0433 0.0118, 0.472 -0.0433 0.0079, 0.468 -0.0859 0.0118, 0.468 -0.0859 0.0079, 0.4573 -0.1198 0.0118, 0.4573 -0.1198 0.0079, 0.441 -0.1471 0.0118, 0.441 -0.1471 0.0079, 0.4225 -0.1666 0.0118, 0.4225 -0.1666 0.0079, 0.3984 -0.1829 0.0118, 0.3984 -0.1829 0.0079, 0.3697 -0.1934 0.0118, 0.3697 -0.1934 0.0079, 0.333 -0.1976 0.0118, 0.333 -0.1976 0.0079, 0.2807 -0.1918 0.0118, 0.2807 -0.1918 0.0079, 0.239 -0.1763 0.0118, 0.239 -0.1763 0.0079, 0.2319 -0.1723 0.0118, 0.2319 -0.1723 0.0079, 0.2319 -0.2156 0.0118, 0.2319 -0.2156 0.0079, 0.2739 -0.2328 0.0079, 0.2739 -0.2328 0.0118, 0.3137 -0.2384 0.0079, 0.3295 -0.2406 0.0118, 0.3295 -0.2406 0.0079, 0.76 0.1577 0.0118, 0.76 0.1577 0.0079, 0.76 -0.236 0.0118, 0.76 -0.236 0.0079, 0.7072 0.1577 0.0118, 0.7072 0.1577 0.0079, 0.7072 -0.1928 0.0118, 0.7072 -0.1928 0.0079, 0.5584 -0.1928 0.0118, 0.5584 -0.1928 0.0079, 0.5584 -0.236 0.0118, 0.5584 -0.236 0.0079
            ]
        }
        coordIndex [
            0,1,2,-1,2,1,3,-1,4,5,0,-1,0,5,6,-1,0,6,1,-1,1,6,7,-1,4,8,5,-1,5,8,9,-1,5,9,10,-1,10,9,11,-1,10,11,12,-1,12,13,10,-1,10,13,2,-1,10,2,14,-1,14,2,3,-1,14,3,15,-1,3,16,15,-1,15,16,17,-1,1,18,3,-1,3,18,16,-1,7,19,1,-1,1,19,18,-1,6,20,7,-1,7,20,19,-1,5,21,6,-1,6,21,20,-1,10,22,5,-1,5,22,21,-1,14,23,10,-1,10,23,22,-1,14,15,23,-1,23,15,17,-1,24,13,12,-1,24,12,25,-1,25,12,11,-1,25,11,26,-1,9,27,11,-1,11,27,26,-1,27,9,8,-1,27,8,28,-1,28,8,4,-1,28,4,29,-1,0,30,4,-1,4,30,29,-1,2,31,0,-1,0,31,30,-1,24,31,13,-1,13,31,2,-1,32,33,34,-1,34,33,35,-1,33,32,36,-1,33,36,37,-1,37,36,38,-1,37,38,39,-1,39,38,40,-1,39,40,41,-1,41,40,42,-1,41,42,43,-1,43,42,44,-1,43,44,45,-1,45,44,46,-1,45,46,47,-1,47,46,48,-1,47,48,49,-1,49,48,50,-1,49,50,51,-1,51,50,52,-1,51,52,53,-1,53,52,54,-1,53,54,55,-1,55,54,56,-1,55,56,57,-1,57,56,58,-1,57,58,59,-1,59,58,60,-1,59,60,61,-1,61,60,62,-1,61,62,63,-1,63,62,64,-1,63,64,65,-1,66,67,64,-1,64,67,65,-1,66,34,67,-1,67,34,35,-1,46,44,68,-1,68,44,42,-1,68,42,69,-1,69,42,40,-1,69,40,70,-1,70,40,38,-1,70,38,71,-1,71,38,36,-1,71,36,72,-1,72,36,32,-1,72,32,73,-1,73,32,34,-1,73,34,74,-1,74,34,66,-1,74,66,75,-1,75,66,64,-1,75,64,76,-1,76,64,62,-1,76,62,77,-1,77,62,60,-1,77,60,78,-1,78,60,58,-1,78,58,79,-1,79,58,56,-1,79,56,80,-1,80,56,54,-1,80,54,81,-1,81,54,52,-1,81,52,82,-1,82,52,50,-1,82,50,83,-1,83,50,48,-1,83,48,84,-1,84,48,46,-1,84,46,68,-1,75,85,74,-1,74,85,86,-1,85,75,76,-1,85,76,87,-1,87,76,77,-1,87,77,88,-1,88,77,78,-1,88,78,89,-1,89,78,79,-1,89,79,90,-1,90,79,80,-1,90,80,91,-1,91,80,81,-1,91,81,92,-1,92,81,82,-1,92,82,93,-1,93,82,83,-1,93,83,94,-1,94,83,84,-1,94,84,95,-1,95,84,68,-1,95,68,96,-1,96,68,69,-1,96,69,97,-1,97,69,70,-1,97,70,98,-1,98,70,71,-1,98,71,99,-1,99,71,72,-1,99,72,100,-1,73,101,72,-1,72,101,100,-1,86,101,74,-1,74,101,73,-1,102,103,104,-1,104,103,105,-1,106,107,102,-1,102,107,103,-1,108,109,106,-1,106,109,107,-1,110,111,108,-1,108,111,109,-1,112,113,110,-1,110,113,111,-1,114,115,112,-1,112,115,113,-1,116,117,114,-1,114,117,115,-1,118,119,116,-1,116,119,117,-1,120,121,118,-1,118,121,119,-1,122,123,120,-1,120,123,121,-1,124,125,122,-1,122,125,123,-1,124,104,125,-1,125,104,105,-1,104,124,122,-1,122,120,104,-1,104,120,118,-1,104,118,102,-1,108,106,110,-1,110,106,102,-1,110,102,112,-1,112,102,118,-1,112,118,114,-1,114,118,116,-1,126,127,128,-1,128,127,129,-1,128,129,130,-1,130,129,131,-1,130,131,132,-1,132,131,133,-1,132,133,134,-1,134,133,135,-1,134,135,136,-1,136,135,137,-1,136,137,138,-1,138,137,139,-1,138,139,140,-1,140,139,141,-1,140,141,142,-1,142,141,143,-1,142,143,144,-1,144,143,145,-1,144,145,146,-1,146,145,147,-1,146,147,148,-1,148,147,149,-1,148,149,150,-1,150,149,151,-1,150,151,152,-1,152,151,153,-1,152,153,154,-1,154,153,155,-1,154,155,156,-1,156,155,157,-1,156,157,158,-1,158,157,159,-1,158,159,160,-1,161,162,159,-1,159,162,160,-1,162,161,163,-1,162,163,164,-1,164,163,165,-1,164,165,166,-1,166,165,167,-1,166,167,168,-1,168,167,169,-1,168,169,170,-1,170,169,171,-1,170,171,172,-1,172,171,173,-1,172,173,174,-1,174,173,175,-1,174,175,176,-1,176,175,177,-1,176,177,178,-1,178,177,179,-1,178,179,180,-1,180,179,181,-1,180,181,182,-1,182,181,183,-1,182,183,184,-1,184,183,185,-1,184,185,186,-1,186,185,187,-1,186,187,188,-1,188,187,189,-1,188,189,190,-1,190,189,191,-1,190,191,192,-1,192,191,193,-1,192,193,194,-1,194,193,195,-1,194,195,196,-1,196,195,197,-1,196,197,198,-1,198,197,199,-1,198,199,200,-1,201,202,199,-1,199,202,200,-1,203,202,204,-1,204,202,201,-1,203,204,205,-1,205,204,206,-1,205,206,207,-1,207,206,127,-1,207,127,126,-1,191,127,193,-1,193,127,206,-1,193,206,195,-1,195,206,204,-1,195,204,197,-1,197,204,201,-1,197,201,199,-1,161,159,163,-1,163,159,157,-1,163,157,165,-1,165,157,155,-1,165,155,167,-1,167,155,153,-1,167,153,169,-1,169,153,151,-1,169,151,171,-1,171,151,149,-1,171,149,173,-1,173,149,147,-1,173,147,175,-1,175,147,145,-1,175,145,177,-1,177,145,143,-1,177,143,179,-1,179,143,141,-1,179,141,181,-1,181,141,139,-1,181,139,183,-1,183,139,137,-1,183,137,185,-1,185,137,135,-1,185,135,187,-1,187,135,133,-1,187,133,189,-1,189,133,131,-1,189,131,191,-1,191,131,129,-1,191,129,127,-1,208,209,210,-1,210,209,211,-1,212,213,208,-1,208,213,209,-1,214,215,212,-1,212,215,213,-1,216,217,214,-1,214,217,215,-1,218,219,216,-1,216,219,217,-1,218,210,219,-1,219,210,211,-1,212,208,214,-1,214,208,210,-1,214,210,216,-1,216,210,218,-1,
        ]
    }
}
Shape{
    appearance Appearance {
        material  Material 	{
            diffuseColor 0.0 0.5019607843137255 0.0
            specularColor 0.0 0.25098039215686274 0.0
            ambientIntensity 0.2947
            transparency 0.0
            shininess 0.5
        }
    }
    geometry IndexedFaceSet {
        ccw TRUE
        solid FALSE
        coord DEF co Coordinate {
            point [
                -0.5872 -0.0823 0.0079, -0.7188 -0.0823 0.0079, -0.6459 0.0821 0.0079, -0.6595 0.0821 0.0079, -0.6497 0.0958 0.0079, -0.656 0.0958 0.0079, -0.6522 0.1097 0.0079, -0.6535 0.1097 0.0079, -0.1858 0.1145 0.0079, -0.1858 -0.1928 0.0079, -0.2439 0.1145 0.0079, -0.2417 -0.1928 0.0079, -0.2832 -0.1889 0.0079, -0.3971 -0.0353 0.0079, -0.3937 0.0039 0.0079, -0.3845 0.035 0.0079, -0.2905 0.1096 0.0079, -0.3164 -0.1785 0.0079, -0.3432 -0.1626 0.0079, -0.3653 -0.1408 0.0079, -0.3819 -0.1136 0.0079, -0.3934 -0.0766 0.0079, -0.3708 0.0593 0.0079, -0.3517 0.0796 0.0079, -0.323 0.0982 0.0079
            ]
        }
        coordIndex [
            0,1,2,-1,2,1,3,-1,2,3,4,-1,4,3,5,-1,4,5,6,-1,6,5,7,-1,8,9,10,-1,10,9,11,-1,10,11,12,-1,13,14,10,-1,10,14,15,-1,10,15,16,-1,12,17,10,-1,10,17,18,-1,10,18,19,-1,19,20,10,-1,10,20,21,-1,10,21,13,-1,22,23,15,-1,15,23,24,-1,15,24,16,-1,
        ]
    }
}
Shape{
    appearance Appearance {
        material  Material 	{
            diffuseColor 0.25098039215686274 0.25098039215686274 0.25098039215686274
            specularColor 0.12549019607843137 0.12549019607843137 0.12549019607843137
            ambientIntensity 0.251
            transparency 0.0
            shininess 0.5
        }
    }
    geometry IndexedFaceSet {
        ccw TRUE
        solid FALSE
        coord DEF co Coordinate {
            point [
                2.5722 1.6305 0.9488, 2.5722 1.6305 0.9528, 2.5665 1.6737 0.9488, 2.5665 1.6737 0.9528, 2.5498 1.714 0.9488, 2.5498 1.714 0.9528, 2.5233 1.7486 0.9488, 2.5233 1.7486 0.9528, 2.4887 1.7752 0.9488, 2.4887 1.7752 0.9528, 2.4484 1.7919 0.9488, 2.4484 1.7919 0.9528, 2.4051 1.7976 0.9488, 2.4051 1.7976 0.9528, 2.3619 1.7919 0.9488, 2.3619 1.7919 0.9528, 2.3216 1.7752 0.9488, 2.3216 1.7752 0.9528, 2.287 1.7486 0.9488, 2.287 1.7486 0.9528, 2.2604 1.714 0.9488, 2.2604 1.714 0.9528, 2.2437 1.6737 0.9488, 2.2437 1.6737 0.9528, 2.2381 1.6305 0.9488, 2.2381 1.6305 0.9528, 2.2437 1.5872 0.9488, 2.2437 1.5872 0.9528, 2.2604 1.5469 0.9488, 2.2604 1.5469 0.9528, 2.287 1.5123 0.9488, 2.287 1.5123 0.9528, 2.3216 1.4858 0.9488, 2.3216 1.4858 0.9528, 2.3619 1.4691 0.9488, 2.3619 1.4691 0.9528, 2.4051 1.4634 0.9488, 2.4051 1.4634 0.9528, 2.4484 1.4691 0.9488, 2.4484 1.4691 0.9528, 2.4887 1.4858 0.9488, 2.4887 1.4858 0.9528, 2.5233 1.5123 0.9488, 2.5233 1.5123 0.9528, 2.5498 1.5469 0.9488, 2.5498 1.5469 0.9528, 2.5665 1.5872 0.9488, 2.5665 1.5872 0.9528, 2.4051 1.6305 0.9488
            ]
        }
        coordIndex [
            0,1,2,-1,2,1,3,-1,2,3,4,-1,4,3,5,-1,4,5,6,-1,6,5,7,-1,6,7,8,-1,8,7,9,-1,8,9,10,-1,10,9,11,-1,10,11,12,-1,12,11,13,-1,12,13,14,-1,14,13,15,-1,14,15,16,-1,16,15,17,-1,16,17,18,-1,18,17,19,-1,18,19,20,-1,20,19,21,-1,20,21,22,-1,22,21,23,-1,22,23,24,-1,24,23,25,-1,24,25,26,-1,26,25,27,-1,26,27,28,-1,28,27,29,-1,28,29,30,-1,30,29,31,-1,30,31,32,-1,32,31,33,-1,32,33,34,-1,34,33,35,-1,34,35,36,-1,36,35,37,-1,36,37,38,-1,38,37,39,-1,38,39,40,-1,40,39,41,-1,40,41,42,-1,42,41,43,-1,42,43,44,-1,44,43,45,-1,44,45,46,-1,46,45,47,-1,46,47,0,-1,0,47,1,-1,44,46,48,-1,48,46,0,-1,48,0,2,-1,38,40,48,-1,48,40,42,-1,48,42,44,-1,32,34,48,-1,48,34,36,-1,48,36,38,-1,26,28,48,-1,48,28,30,-1,48,30,32,-1,20,22,48,-1,48,22,24,-1,48,24,26,-1,14,16,48,-1,48,16,18,-1,48,18,20,-1,8,10,48,-1,48,10,12,-1,48,12,14,-1,2,4,48,-1,48,4,6,-1,48,6,8,-1,
        ]
    }
}