#VRML V2.0 utf8
# 3D model generated by easyeda2kicad.py (https://github.com/uPesy/easyeda2kicad.py)

Shape{
    appearance Appearance {
        material  Material 	{
            diffuseColor 0.20784313725490197 0.20784313725490197 0.20784313725490197
            specularColor 0.01568627450980392 0.01568627450980392 0.01568627450980392
            ambientIntensity 0.298
            transparency 0.0
            shininess 0.5
        }
    }
    geometry IndexedFaceSet {
        ccw TRUE
        solid FALSE
        coord DEF co Coordinate {
            point [
                -2.8996 0.9586 0.315, -3.1358 0.9586 0.315, -3.1358 0.6437 0.315, -2.3484 2.376 0.315, -2.3484 3.1634 0.315, -2.8996 3.0059 0.315, -3.1358 3.3602 0.315, -3.1358 3.0059 0.315, -3.1358 2.2185 0.315, -2.8996 2.2185 0.315, -3.1358 2.5334 0.315, -2.8996 2.5334 0.315, -2.7263 1.9232 0.315, -2.7075 1.9477 0.315, -2.7421 1.8642 0.315, -2.8996 0.6437 0.315, -2.8996 0.1712 0.315, -3.1358 0.1712 0.315, -3.1358 -0.1437 0.315, -2.8996 -0.1437 0.315, -2.8996 -0.6162 0.315, -2.7421 -3.0177 0.315, -2.8996 -1.4036 0.315, -3.1358 -1.4036 0.315, -3.1358 -1.7185 0.315, -3.1358 -0.6162 0.315, -3.1358 -0.9311 0.315, -2.8996 -0.9311 0.315, -2.8996 -1.7185 0.315, 2.9272 -1.7185 0.315, 3.1634 -1.7185 0.315, 3.1634 -1.4036 0.315, 2.6516 3.1634 0.315, 2.6821 3.1593 0.315, 3.1634 3.3602 0.315, 2.7106 3.1475 0.315, 2.7351 3.1288 0.315, -2.6831 1.9664 0.315, -2.6546 1.9782 0.315, -2.624 1.9823 0.315, -3.1358 -2.191 0.315, -3.1358 -2.5059 0.315, -2.8996 -2.191 0.315, -2.8996 -2.5059 0.315, 2.9272 -1.4036 0.315, 2.9272 -0.9311 0.315, 2.7697 3.0453 0.315, -0.739 3.1288 0.315, -0.7146 3.1475 0.315, -1.561 3.1634 0.315, -0.6861 3.1593 0.315, -0.6555 3.1634 0.315, -2.8996 1.746 0.315, -2.7381 1.8947 0.315, -1.561 2.376 0.315, 2.7539 -3.0768 0.315, 2.7351 -3.1013 0.315, 2.9272 -2.9784 0.315, -0.7736 3.0453 0.315, -0.7696 3.0758 0.315, -0.7578 3.1043 0.315, 2.9272 2.5334 0.315, 2.9272 3.0059 0.315, 3.1634 3.0059 0.315, 2.7657 3.0758 0.315, 2.7539 3.1043 0.315, -3.1358 1.746 0.315, -3.1358 1.4311 0.315, -2.8996 1.4311 0.315, -2.7075 -3.1013 0.315, -2.7263 -3.0768 0.315, -2.8996 -2.9784 0.315, -2.7381 -3.0483 0.315, 2.7657 -3.0483 0.315, 2.7106 -3.12 0.315, 3.1634 -3.3327 0.315, 3.1634 -2.9784 0.315, -3.1358 -3.3327 0.315, -2.6546 -3.1318 0.315, -2.6831 -3.12 0.315, 2.9272 -0.1437 0.315, 2.9272 -0.6162 0.315, 3.1634 -0.6162 0.315, 3.1634 -0.9311 0.315, 2.9272 0.9586 0.315, 2.9272 1.4311 0.315, -3.1358 -2.9784 0.315, 2.9272 0.6437 0.315, 3.1634 0.6437 0.315, 3.1634 0.9586 0.315, -0.7736 2.1004 0.315, -0.7777 2.0698 0.315, 2.6821 -3.1318 0.315, 2.6516 -3.1358 0.315, -2.624 -3.1358 0.315, 2.7697 -3.0177 0.315, 2.9272 -2.5059 0.315, 3.1634 -2.5059 0.315, 3.1634 -2.191 0.315, 2.9272 -2.191 0.315, 2.9272 0.1712 0.315, 3.1634 0.1712 0.315, 3.1634 -0.1437 0.315, 2.9272 2.2185 0.315, 3.1634 2.2185 0.315, 3.1634 2.5334 0.315, 2.9272 1.746 0.315, 3.1634 1.746 0.315, 3.1634 1.4311 0.315, -0.8917 1.9823 0.315, -0.8612 1.9863 0.315, -0.8327 1.9981 0.315, -0.8082 2.0169 0.315, -0.7895 2.0413 0.315, -0.5255 -0.0917 0.0, -0.6572 -0.0917 0.0, -0.5842 0.0727 0.0, -0.5979 0.0727 0.0, -0.588 0.0864 0.0, -0.5944 0.0864 0.0, -0.5905 0.1003 0.0, -0.5918 0.1003 0.0, -0.0329 3.3602 0.0, 0.0055 -0.2022 0.0, -0.0329 -0.2478 0.0, 0.0055 -0.2454 0.0, 0.2167 -0.2454 0.0, 0.0151 0.1051 0.0, 0.1639 0.1051 0.0, 0.1639 -0.0245 0.0, 0.2936 -0.225 0.0, 0.2936 -0.1818 0.0, 0.2167 0.1483 0.0, 0.3355 -0.2422 0.0, 0.3753 -0.2478 0.0, 0.1639 -0.0677 0.0, 0.1639 -0.2022 0.0, 0.0247 -0.0677 0.0, 0.0247 -0.0245 0.0, 2.6909 2.5334 0.0, 2.6909 3.0059 0.0, 3.1634 3.3602 0.0, 3.1634 3.0059 0.0, 2.6909 1.746 0.0, 3.1634 1.746 0.0, 3.1634 1.4311 0.0, 0.0151 0.1483 0.0, 0.3862 0.1531 0.0, 0.3391 0.1499 0.0, 0.2936 0.1375 0.0, 0.2936 0.0847 0.0, 0.3379 0.1037 0.0, 0.3006 -0.1857 0.0, 0.3858 0.1099 0.0, 0.4245 0.1056 0.0, 0.5657 0.0446 0.0, 0.5426 0.0814 0.0, 0.7689 0.1483 0.0, 0.454 0.0949 0.0, 0.4812 0.0767 0.0, 0.505 0.0504 0.0, 0.5336 -0.0527 0.0, 0.5296 -0.0954 0.0, 0.5189 -0.1292 0.0, 0.4313 -0.2029 0.0, 0.3946 -0.207 0.0, 0.46 -0.1923 0.0, 0.4842 -0.176 0.0, 0.5027 -0.1565 0.0, 0.3424 -0.2012 0.0, 0.5808 0.0 0.0, 0.5213 0.02 0.0, 0.5317 -0.0221 0.0, 3.1634 2.5334 0.0, 3.1634 2.2185 0.0, 2.6909 2.2185 0.0, 2.6909 0.9586 0.0, 0.8217 -0.2454 0.0, 2.6909 1.4311 0.0, 0.8217 0.1483 0.0, 0.507 0.1156 0.0, 0.4696 0.1371 0.0, 0.4258 0.1499 0.0, 2.6909 0.1712 0.0, 2.6909 0.6437 0.0, 3.1634 0.6437 0.0, 3.1634 0.9586 0.0, 0.5864 -0.056 0.0, 0.7689 -0.2022 0.0, 0.5826 -0.1016 0.0, 0.425 -0.2478 0.0, 0.62 -0.2454 0.0, 0.5708 -0.1432 0.0, 0.62 -0.2022 0.0, 0.5498 -0.1807 0.0, 0.5202 -0.2118 0.0, 0.4504 -0.2452 0.0, 0.4886 -0.232 0.0, 3.1634 0.1712 0.0, 3.1634 -0.1437 0.0, 2.6909 -0.1437 0.0, 2.6909 -0.2478 0.0, 0.4019 -0.2502 0.0, 2.6909 -1.4036 0.0, 3.1634 -1.4036 0.0, 3.1634 -1.7185 0.0, 0.3911 -0.25 0.0, -0.0329 -3.3327 0.0, 2.6909 -0.6162 0.0, 2.6909 -1.7185 0.0, 2.6909 -2.191 0.0, 2.6909 -0.9311 0.0, 3.1634 -0.9311 0.0, 3.1634 -0.6162 0.0, 3.1634 -2.9784 0.0, 3.1634 -3.3327 0.0, 2.6909 -2.9784 0.0, 2.6909 -2.5059 0.0, 3.1634 -2.5059 0.0, 3.1634 -2.191 0.0, -0.7723 -0.2454 0.0, -0.7147 -0.2454 0.0, -0.417 -0.2454 0.0, -0.3686 -0.1375 0.0, -0.346 -0.1727 0.0, -0.3136 -0.2037 0.0, -0.2725 -0.2276 0.0, -0.2271 -0.2411 0.0, -2.6634 -0.2478 0.0, -2.6634 -0.1437 0.0, -0.6187 0.1483 0.0, -0.5659 0.1483 0.0, -2.6634 0.6437 0.0, -2.6634 0.1712 0.0, -3.1358 0.1712 0.0, -3.1358 -0.1437 0.0, -0.1784 -0.2454 0.0, -0.4746 -0.2454 0.0, -0.5122 -0.135 0.0, -0.6749 -0.135 0.0, -0.0713 -0.2454 0.0, -0.0713 0.1483 0.0, -0.1824 0.1483 0.0, -0.3286 0.097 0.0, -0.3565 0.0661 0.0, -0.3748 0.0323 0.0, -2.6634 1.4311 0.0, -3.1358 1.4311 0.0, -3.1358 1.746 0.0, -0.2393 0.1422 0.0, -0.2854 0.1261 0.0, -0.3282 0.0973 0.0, -0.3854 -0.0065 0.0, -0.3882 -0.0436 0.0, -0.3827 -0.0963 0.0, -2.6634 1.746 0.0, -2.6634 2.2185 0.0, -2.6634 0.9586 0.0, -3.1358 0.9586 0.0, -3.1358 0.6437 0.0, -3.1358 3.0059 0.0, -3.1358 3.3602 0.0, -2.6634 3.0059 0.0, -2.6634 2.5334 0.0, -3.1358 2.5334 0.0, -3.1358 2.2185 0.0, -3.1358 -3.3327 0.0, -2.6634 -2.9784 0.0, -3.1358 -2.9784 0.0, -2.6634 -2.5059 0.0, -2.6634 -1.7185 0.0, -3.1358 -1.7185 0.0, -3.1358 -1.4036 0.0, -2.6634 -1.4036 0.0, -2.6634 -0.9311 0.0, -2.6634 -2.191 0.0, -3.1358 -2.191 0.0, -3.1358 -2.5059 0.0, -2.6634 -0.6162 0.0, -3.1358 -0.6162 0.0, -3.1358 -0.9311 0.0, -0.1241 0.1051 0.0, -0.1241 -0.2022 0.0, -0.1822 0.1051 0.0, -0.18 -0.2022 0.0, -0.2216 -0.1983 0.0, -0.3354 -0.0447 0.0, -0.3321 -0.0055 0.0, -0.3229 0.0256 0.0, -0.2288 0.1002 0.0, -0.2547 -0.188 0.0, -0.2816 -0.172 0.0, -0.3036 -0.1502 0.0, -0.3202 -0.1231 0.0, -0.3318 -0.0861 0.0, -0.3092 0.0499 0.0, -0.2901 0.0702 0.0, -0.2613 0.0888 0.0
            ]
        }
        coordIndex [
            0,1,2,-1,3,4,5,-1,6,7,5,-1,8,9,10,-1,10,9,11,-1,12,13,9,-1,14,15,16,-1,17,18,16,-1,16,18,19,-1,16,19,14,-1,14,19,20,-1,14,20,21,-1,22,23,24,-1,25,26,20,-1,20,26,27,-1,20,27,21,-1,21,27,22,-1,21,22,28,-1,28,22,24,-1,29,30,31,-1,32,33,34,-1,34,33,35,-1,34,35,36,-1,13,37,9,-1,9,37,38,-1,9,38,39,-1,40,41,42,-1,42,41,43,-1,44,45,46,-1,47,48,49,-1,49,48,50,-1,49,50,51,-1,5,4,6,-1,6,4,49,-1,6,49,34,-1,34,49,51,-1,34,51,32,-1,52,14,9,-1,9,14,53,-1,9,53,12,-1,5,11,3,-1,3,11,9,-1,3,9,54,-1,54,9,39,-1,55,56,57,-1,58,59,49,-1,49,59,60,-1,49,60,47,-1,61,62,46,-1,46,62,63,-1,46,63,64,-1,64,63,34,-1,64,34,65,-1,65,34,36,-1,66,67,52,-1,52,67,68,-1,52,68,14,-1,14,68,0,-1,14,0,15,-1,15,0,2,-1,69,70,71,-1,71,70,72,-1,71,72,43,-1,43,72,21,-1,43,21,42,-1,42,21,28,-1,55,57,73,-1,56,74,57,-1,57,74,75,-1,57,75,76,-1,77,78,79,-1,80,46,81,-1,81,46,45,-1,81,45,82,-1,82,45,83,-1,84,85,46,-1,69,71,79,-1,79,71,86,-1,79,86,77,-1,87,88,89,-1,58,49,90,-1,90,49,54,-1,90,54,91,-1,74,92,75,-1,75,92,93,-1,75,93,77,-1,77,93,94,-1,77,94,78,-1,73,57,95,-1,95,57,96,-1,95,96,46,-1,97,98,96,-1,96,98,99,-1,96,99,46,-1,46,99,29,-1,46,29,44,-1,44,29,31,-1,89,84,87,-1,87,84,46,-1,87,46,100,-1,100,46,80,-1,100,80,101,-1,101,80,102,-1,103,104,105,-1,105,61,103,-1,103,61,46,-1,103,46,106,-1,106,46,85,-1,106,85,107,-1,107,85,108,-1,39,109,54,-1,54,109,110,-1,54,110,111,-1,111,112,54,-1,54,112,113,-1,54,113,91,-1,114,115,116,-1,116,115,117,-1,116,117,118,-1,118,117,119,-1,118,119,120,-1,120,119,121,-1,122,123,124,-1,124,123,125,-1,124,125,126,-1,127,128,129,-1,130,126,131,-1,131,126,132,-1,130,133,126,-1,126,133,134,-1,126,134,124,-1,135,136,137,-1,137,136,123,-1,137,123,138,-1,139,122,140,-1,140,122,141,-1,140,141,142,-1,143,144,145,-1,129,138,127,-1,127,138,123,-1,127,123,146,-1,146,123,122,-1,146,122,132,-1,132,122,139,-1,147,148,139,-1,139,148,149,-1,139,149,132,-1,132,149,150,-1,132,150,131,-1,131,150,151,-1,131,151,152,-1,152,151,153,-1,152,153,154,-1,155,156,157,-1,154,158,152,-1,152,158,159,-1,152,159,160,-1,161,162,152,-1,152,162,163,-1,164,165,166,-1,166,165,167,-1,163,168,152,-1,152,168,167,-1,152,167,169,-1,169,167,165,-1,155,157,170,-1,160,171,152,-1,152,171,172,-1,152,172,161,-1,173,174,139,-1,139,174,175,-1,139,175,147,-1,176,177,178,-1,178,177,179,-1,156,180,157,-1,157,180,181,-1,157,181,182,-1,183,177,184,-1,184,177,176,-1,184,176,185,-1,185,176,186,-1,145,178,143,-1,143,178,179,-1,143,179,175,-1,175,179,157,-1,175,157,147,-1,147,157,182,-1,170,157,187,-1,187,157,188,-1,187,188,189,-1,190,191,177,-1,189,188,192,-1,192,188,193,-1,192,193,194,-1,194,193,191,-1,194,191,195,-1,190,196,191,-1,191,196,197,-1,191,197,195,-1,198,199,183,-1,183,199,200,-1,183,200,177,-1,177,200,201,-1,177,201,190,-1,190,201,202,-1,203,204,205,-1,134,206,207,-1,207,206,202,-1,207,202,208,-1,208,202,201,-1,209,210,207,-1,205,209,203,-1,203,209,207,-1,203,207,211,-1,211,207,208,-1,211,208,212,-1,212,208,213,-1,214,215,216,-1,216,215,207,-1,216,207,217,-1,217,207,210,-1,217,210,218,-1,218,210,219,-1,220,221,124,-1,222,223,224,-1,224,225,222,-1,222,225,226,-1,222,226,227,-1,228,229,230,-1,230,229,122,-1,230,122,231,-1,232,122,233,-1,233,122,229,-1,233,229,234,-1,234,229,235,-1,227,236,222,-1,222,236,124,-1,222,124,237,-1,237,124,221,-1,237,221,238,-1,238,221,239,-1,236,240,124,-1,124,240,241,-1,124,241,122,-1,122,241,242,-1,243,244,231,-1,231,244,245,-1,246,247,248,-1,242,249,122,-1,122,249,250,-1,122,250,231,-1,231,250,251,-1,231,251,243,-1,245,252,231,-1,231,252,253,-1,231,253,222,-1,222,253,254,-1,222,254,223,-1,255,256,122,-1,248,255,246,-1,246,255,122,-1,246,122,257,-1,257,122,232,-1,257,232,258,-1,258,232,259,-1,260,261,262,-1,262,261,122,-1,262,122,263,-1,263,122,256,-1,263,256,264,-1,264,256,265,-1,207,266,267,-1,267,266,268,-1,134,207,124,-1,124,207,267,-1,124,267,269,-1,270,271,272,-1,273,274,124,-1,272,273,270,-1,270,273,124,-1,270,124,275,-1,275,124,269,-1,275,269,276,-1,276,269,277,-1,230,220,228,-1,228,220,124,-1,228,124,278,-1,278,124,274,-1,278,274,279,-1,279,274,280,-1,281,282,283,-1,283,282,284,-1,283,284,285,-1,286,287,283,-1,283,287,288,-1,283,288,289,-1,285,290,283,-1,283,290,291,-1,283,291,292,-1,292,293,283,-1,283,293,294,-1,283,294,286,-1,295,296,288,-1,288,296,297,-1,288,297,289,-1,
        ]
    }
}
Shape{
    appearance Appearance {
        material  Material 	{
            diffuseColor 1.0 1.0 1.0
            specularColor 0.5019607843137255 0.5019607843137255 0.5019607843137255
            ambientIntensity 1.0
            transparency 0.0
            shininess 0.5
        }
    }
    geometry IndexedFaceSet {
        ccw TRUE
        solid FALSE
        coord DEF co Coordinate {
            point [
                -0.5255 -0.0917 0.0, -0.5122 -0.135 0.0, -0.6572 -0.0917 0.0, -0.6749 -0.135 0.0, -0.5842 0.0727 0.0, -0.5659 0.1483 0.0, -0.417 -0.2454 0.0, -0.4746 -0.2454 0.0, -0.588 0.0864 0.0, -0.5905 0.1003 0.0, -0.6187 0.1483 0.0, -0.5918 0.1003 0.0, -0.5944 0.0864 0.0, -0.5979 0.0727 0.0, -0.7723 -0.2454 0.0, -0.7147 -0.2454 0.0, -0.3748 0.0323 0.0, -0.3565 0.0661 0.0, -0.3092 0.0499 0.0, -0.3286 0.097 0.0, -0.2901 0.0702 0.0, -0.3282 0.0973 0.0, -0.2613 0.0888 0.0, -0.2854 0.1261 0.0, -0.2288 0.1002 0.0, -0.2393 0.1422 0.0, -0.1822 0.1051 0.0, -0.1824 0.1483 0.0, -0.1241 0.1051 0.0, -0.0713 0.1483 0.0, -0.1241 -0.2022 0.0, -0.0713 -0.2454 0.0, -0.18 -0.2022 0.0, -0.1784 -0.2454 0.0, -0.2216 -0.1983 0.0, -0.2271 -0.2411 0.0, -0.2547 -0.188 0.0, -0.2725 -0.2276 0.0, -0.2816 -0.172 0.0, -0.3136 -0.2037 0.0, -0.3036 -0.1502 0.0, -0.346 -0.1727 0.0, -0.3202 -0.1231 0.0, -0.3686 -0.1375 0.0, -0.3318 -0.0861 0.0, -0.3827 -0.0963 0.0, -0.3354 -0.0447 0.0, -0.3882 -0.0436 0.0, -0.3321 -0.0055 0.0, -0.3854 -0.0065 0.0, -0.3229 0.0256 0.0, 0.2167 -0.2454 0.0, 0.0055 -0.2454 0.0, 0.0055 -0.2022 0.0, 0.1639 -0.2022 0.0, 0.1639 -0.0677 0.0, 0.2167 0.1483 0.0, 0.0151 0.1051 0.0, 0.0151 0.1483 0.0, 0.1639 0.1051 0.0, 0.1639 -0.0245 0.0, 0.0247 -0.0245 0.0, 0.0247 -0.0677 0.0, 0.2936 -0.225 0.0, 0.2936 -0.1818 0.0, 0.3006 -0.1857 0.0, 0.3355 -0.2422 0.0, 0.3424 -0.2012 0.0, 0.3753 -0.2478 0.0, 0.3946 -0.207 0.0, 0.3911 -0.25 0.0, 0.4019 -0.2502 0.0, 0.4313 -0.2029 0.0, 0.425 -0.2478 0.0, 0.2936 0.0847 0.0, 0.2936 0.1375 0.0, 0.3379 0.1037 0.0, 0.3391 0.1499 0.0, 0.3858 0.1099 0.0, 0.3862 0.1531 0.0, 0.4245 0.1056 0.0, 0.4258 0.1499 0.0, 0.454 0.0949 0.0, 0.4696 0.1371 0.0, 0.4812 0.0767 0.0, 0.507 0.1156 0.0, 0.505 0.0504 0.0, 0.5426 0.0814 0.0, 0.5213 0.02 0.0, 0.5657 0.0446 0.0, 0.5317 -0.0221 0.0, 0.5808 0.0 0.0, 0.5336 -0.0527 0.0, 0.5864 -0.056 0.0, 0.5296 -0.0954 0.0, 0.5826 -0.1016 0.0, 0.5189 -0.1292 0.0, 0.5708 -0.1432 0.0, 0.5027 -0.1565 0.0, 0.5498 -0.1807 0.0, 0.4842 -0.176 0.0, 0.5202 -0.2118 0.0, 0.46 -0.1923 0.0, 0.4886 -0.232 0.0, 0.4504 -0.2452 0.0
            ]
        }
        coordIndex [
            0,1,2,-1,2,1,3,-1,4,5,0,-1,0,5,6,-1,0,6,1,-1,1,6,7,-1,4,8,5,-1,5,8,9,-1,5,9,10,-1,10,9,11,-1,10,11,12,-1,12,13,10,-1,10,13,2,-1,10,2,14,-1,14,2,3,-1,14,3,15,-1,16,17,18,-1,18,17,19,-1,18,19,20,-1,20,19,21,-1,20,21,22,-1,22,21,23,-1,22,23,24,-1,24,23,25,-1,24,25,26,-1,26,25,27,-1,26,27,28,-1,28,27,29,-1,28,29,30,-1,30,29,31,-1,30,31,32,-1,32,31,33,-1,32,33,34,-1,34,33,35,-1,34,35,36,-1,36,35,37,-1,36,37,38,-1,38,37,39,-1,38,39,40,-1,40,39,41,-1,40,41,42,-1,42,41,43,-1,42,43,44,-1,44,43,45,-1,44,45,46,-1,46,45,47,-1,46,47,48,-1,48,47,49,-1,48,49,50,-1,50,49,16,-1,50,16,18,-1,51,52,53,-1,53,54,51,-1,51,54,55,-1,51,55,56,-1,57,58,59,-1,59,58,56,-1,59,56,60,-1,60,56,55,-1,60,55,61,-1,61,55,62,-1,63,64,65,-1,63,65,66,-1,66,65,67,-1,66,67,68,-1,68,67,69,-1,68,69,70,-1,70,69,71,-1,71,69,72,-1,71,72,73,-1,74,75,76,-1,76,75,77,-1,76,77,78,-1,78,77,79,-1,78,79,80,-1,80,79,81,-1,80,81,82,-1,82,81,83,-1,82,83,84,-1,84,83,85,-1,84,85,86,-1,86,85,87,-1,86,87,88,-1,88,87,89,-1,88,89,90,-1,90,89,91,-1,90,91,92,-1,92,91,93,-1,92,93,94,-1,94,93,95,-1,94,95,96,-1,96,95,97,-1,96,97,98,-1,98,97,99,-1,98,99,100,-1,100,99,101,-1,100,101,102,-1,102,101,103,-1,102,103,72,-1,72,103,104,-1,72,104,73,-1,
        ]
    }
}
Shape{
    appearance Appearance {
        material  Material 	{
            diffuseColor 0.6470588235294118 0.6196078431372549 0.5882352941176471
            specularColor 0.45098039215686275 0.43529411764705883 0.4117647058823529
            ambientIntensity 0.6242
            transparency 0.0
            shininess 0.5
        }
    }
    geometry IndexedFaceSet {
        ccw TRUE
        solid FALSE
        coord DEF co Coordinate {
            point [
                -0.6555 3.0453 1.2598, -0.6555 2.1004 1.2598, 2.6516 3.0453 1.2598, -0.6636 2.0392 1.2598, 2.6516 -3.0177 1.2598, -0.6872 1.9823 1.2598, -0.7247 1.9333 1.2598, -0.7736 1.8958 1.2598, -0.8306 1.8722 1.2598, -2.624 -3.0177 1.2598, -0.8917 1.8642 1.2598, -2.624 1.8642 1.2598
            ]
        }
        coordIndex [
            0,1,2,-1,2,1,3,-1,2,3,4,-1,4,3,5,-1,4,5,6,-1,6,7,4,-1,4,7,8,-1,4,8,9,-1,9,8,10,-1,9,10,11,-1,
        ]
    }
}
Shape{
    appearance Appearance {
        material  Material 	{
            diffuseColor 0.20784313725490197 0.20784313725490197 0.20784313725490197
            specularColor 0.01568627450980392 0.01568627450980392 0.01568627450980392
            ambientIntensity 0.298
            transparency 0.0
            shininess 0.5
        }
    }
    geometry IndexedFaceSet {
        ccw TRUE
        solid FALSE
        coord DEF co Coordinate {
            point [
                -3.1358 -0.5374 0.315, -3.1358 -0.5374 0.0, -3.1358 -0.6162 0.315, -3.1358 -0.6162 0.0, -3.1358 -0.9311 0.315, -3.1358 -0.9311 0.0, -3.1358 -1.0099 0.315, -3.1358 -1.0099 0.0, -3.1358 -1.7973 0.0, -3.1358 -1.7973 0.315, -3.1358 -1.7185 0.0, -3.1358 -1.7185 0.315, -3.1358 -1.4036 0.0, -3.1358 -1.4036 0.315, -3.1358 -1.3248 0.0, -3.1358 -1.3248 0.315, -3.1358 -2.5847 0.0, -3.1358 -2.5847 0.315, -3.1358 -2.5059 0.0, -3.1358 -2.5059 0.315, -3.1358 -2.191 0.0, -3.1358 -2.191 0.315, -3.1358 -2.1122 0.0, -3.1358 -2.1122 0.315, -3.1358 0.25 0.315, -3.1358 0.25 0.0, -3.1358 0.1712 0.315, -3.1358 0.1712 0.0, -3.1358 -0.1437 0.315, -3.1358 -0.1437 0.0, -3.1358 -0.2225 0.315, -3.1358 -0.2225 0.0, -3.1358 1.0374 0.315, -3.1358 1.0374 0.0, -3.1358 0.9586 0.315, -3.1358 0.9586 0.0, -3.1358 0.6437 0.315, -3.1358 0.6437 0.0, -3.1358 0.5649 0.315, -3.1358 0.5649 0.0, -3.1358 1.8248 0.315, -3.1358 1.8248 0.0, -3.1358 1.746 0.315, -3.1358 1.746 0.0, -3.1358 1.4311 0.315, -3.1358 1.4311 0.0, -3.1358 1.3523 0.315, -3.1358 1.3523 0.0, -3.1358 2.6122 0.315, -3.1358 2.6122 0.0, -3.1358 2.5334 0.315, -3.1358 2.5334 0.0, -3.1358 2.2185 0.315, -3.1358 2.2185 0.0, -3.1358 2.1397 0.315, -3.1358 2.1397 0.0
            ]
        }
        coordIndex [
            0,1,2,-1,2,1,3,-1,2,3,4,-1,4,3,5,-1,4,5,6,-1,6,5,7,-1,8,9,10,-1,10,9,11,-1,10,11,12,-1,12,11,13,-1,12,13,14,-1,14,13,15,-1,16,17,18,-1,18,17,19,-1,18,19,20,-1,20,19,21,-1,20,21,22,-1,22,21,23,-1,24,25,26,-1,26,25,27,-1,26,27,28,-1,28,27,29,-1,28,29,30,-1,30,29,31,-1,32,33,34,-1,34,33,35,-1,34,35,36,-1,36,35,37,-1,36,37,38,-1,38,37,39,-1,40,41,42,-1,42,41,43,-1,42,43,44,-1,44,43,45,-1,44,45,46,-1,46,45,47,-1,48,49,50,-1,50,49,51,-1,50,51,52,-1,52,51,53,-1,52,53,54,-1,54,53,55,-1,
        ]
    }
}
Shape{
    appearance Appearance {
        material  Material 	{
            diffuseColor 0.0 0.2 0.8
            specularColor 0.0 0.058823529411764705 0.23921568627450981
            ambientIntensity 0.2086
            transparency 0.0
            shininess 0.5
        }
    }
    geometry IndexedFaceSet {
        ccw TRUE
        solid FALSE
        coord DEF co Coordinate {
            point [
                -3.1358 3.3602 0.315, -3.1358 3.3602 0.0, -3.1358 3.0059 0.315, -3.1358 3.0059 0.0, -3.1358 2.9271 0.315, -3.1358 2.9271 0.0
            ]
        }
        coordIndex [
            0,1,2,-1,2,1,3,-1,2,3,4,-1,4,3,5,-1,
        ]
    }
}
Shape{
    appearance Appearance {
        material  Material 	{
            diffuseColor 0.20784313725490197 0.20784313725490197 0.20784313725490197
            specularColor 0.01568627450980392 0.01568627450980392 0.01568627450980392
            ambientIntensity 0.298
            transparency 0.0
            shininess 0.5
        }
    }
    geometry IndexedFaceSet {
        ccw TRUE
        solid FALSE
        coord DEF co Coordinate {
            point [
                3.1634 2.1397 0.315, 3.1634 2.1397 0.0, 3.1634 2.2185 0.315, 3.1634 2.2185 0.0, 3.1634 2.5334 0.315, 3.1634 2.5334 0.0, 3.1634 2.6122 0.315, 3.1634 2.6122 0.0, 3.1634 0.5649 0.315, 3.1634 0.5649 0.0, 3.1634 0.6437 0.315, 3.1634 0.6437 0.0, 3.1634 0.9586 0.315, 3.1634 0.9586 0.0, 3.1634 1.0374 0.315, 3.1634 1.0374 0.0, 3.1634 -0.2225 0.315, 3.1634 -0.2225 0.0, 3.1634 -0.1437 0.315, 3.1634 -0.1437 0.0, 3.1634 0.1712 0.315, 3.1634 0.1712 0.0, 3.1634 0.25 0.315, 3.1634 0.25 0.0, 3.1634 -1.0099 0.315, 3.1634 -1.0099 0.0, 3.1634 -0.9311 0.315, 3.1634 -0.9311 0.0, 3.1634 -0.6162 0.315, 3.1634 -0.6162 0.0, 3.1634 -0.5374 0.315, 3.1634 -0.5374 0.0, 3.1634 1.8248 0.0, 3.1634 1.8248 0.315, 3.1634 1.746 0.0, 3.1634 1.746 0.315, 3.1634 1.4311 0.0, 3.1634 1.4311 0.315, 3.1634 1.3523 0.0, 3.1634 1.3523 0.315
            ]
        }
        coordIndex [
            0,1,2,-1,2,1,3,-1,2,3,4,-1,4,3,5,-1,4,5,6,-1,6,5,7,-1,8,9,10,-1,10,9,11,-1,10,11,12,-1,12,11,13,-1,12,13,14,-1,14,13,15,-1,16,17,18,-1,18,17,19,-1,18,19,20,-1,20,19,21,-1,20,21,22,-1,22,21,23,-1,24,25,26,-1,26,25,27,-1,26,27,28,-1,28,27,29,-1,28,29,30,-1,30,29,31,-1,32,33,34,-1,34,33,35,-1,34,35,36,-1,36,35,37,-1,36,37,38,-1,38,37,39,-1,
        ]
    }
}
Shape{
    appearance Appearance {
        material  Material 	{
            diffuseColor 0.0 0.2 0.8
            specularColor 0.0 0.058823529411764705 0.23921568627450981
            ambientIntensity 0.2086
            transparency 0.0
            shininess 0.5
        }
    }
    geometry IndexedFaceSet {
        ccw TRUE
        solid FALSE
        coord DEF co Coordinate {
            point [
                3.1634 -3.3327 0.315, 3.1634 -3.3327 0.0, 3.1634 -2.9784 0.315, 3.1634 -2.9784 0.0, 3.1634 -2.8996 0.315, 3.1634 -2.8996 0.0
            ]
        }
        coordIndex [
            0,1,2,-1,2,1,3,-1,2,3,4,-1,4,3,5,-1,
        ]
    }
}
Shape{
    appearance Appearance {
        material  Material 	{
            diffuseColor 0.20784313725490197 0.20784313725490197 0.20784313725490197
            specularColor 0.01568627450980392 0.01568627450980392 0.01568627450980392
            ambientIntensity 0.298
            transparency 0.0
            shininess 0.5
        }
    }
    geometry IndexedFaceSet {
        ccw TRUE
        solid FALSE
        coord DEF co Coordinate {
            point [
                3.1634 -2.1122 0.0, 3.1634 -2.1122 0.315, 3.1634 -2.191 0.0, 3.1634 -2.191 0.315, 3.1634 -2.5059 0.0, 3.1634 -2.5059 0.315, 3.1634 -2.5847 0.0, 3.1634 -2.5847 0.315, 3.1634 -1.3248 0.0, 3.1634 -1.3248 0.315, 3.1634 -1.4036 0.0, 3.1634 -1.4036 0.315, 3.1634 -1.7185 0.0, 3.1634 -1.7185 0.315, 3.1634 -1.7973 0.0, 3.1634 -1.7973 0.315
            ]
        }
        coordIndex [
            0,1,2,-1,2,1,3,-1,2,3,4,-1,4,3,5,-1,4,5,6,-1,6,5,7,-1,8,9,10,-1,10,9,11,-1,10,11,12,-1,12,11,13,-1,12,13,14,-1,14,13,15,-1,
        ]
    }
}
Shape{
    appearance Appearance {
        material  Material 	{
            diffuseColor 1.0 1.0 1.0
            specularColor 0.5019607843137255 0.5019607843137255 0.5019607843137255
            ambientIntensity 1.0
            transparency 0.0
            shininess 0.5
        }
    }
    geometry IndexedFaceSet {
        ccw TRUE
        solid FALSE
        coord DEF co Coordinate {
            point [
                0.7689 0.1483 0.0, 0.8217 0.1483 0.0, 0.7689 -0.2022 0.0, 0.8217 -0.2454 0.0, 0.62 -0.2022 0.0, 0.62 -0.2454 0.0
            ]
        }
        coordIndex [
            0,1,2,-1,2,1,3,-1,2,3,4,-1,4,3,5,-1,
        ]
    }
}
Shape{
    appearance Appearance {
        material  Material 	{
            diffuseColor 0.6470588235294118 0.5176470588235295 0.0
            specularColor 0.45098039215686275 0.3607843137254902 0.0
            ambientIntensity 0.4973
            transparency 0.0
            shininess 0.5
        }
    }
    geometry IndexedFaceSet {
        ccw TRUE
        solid FALSE
        coord DEF co Coordinate {
            point [
                -3.1358 0.9586 0.0, -3.1358 1.0374 0.0, -3.0951 1.0427 0.0, -2.6634 0.9586 0.0, -3.0571 1.0585 0.0, -3.0245 1.0835 0.0, -2.9995 1.1161 0.0, -2.9995 1.2736 0.0, -3.0245 1.3062 0.0, -2.6634 1.4311 0.0, -3.0571 1.3312 0.0, -3.1358 1.4311 0.0, -3.0951 1.347 0.0, -3.1358 1.3523 0.0, -2.9837 1.1541 0.0, -2.9784 1.1949 0.0, -2.9837 1.2356 0.0, -3.1358 0.1712 0.0, -3.1358 0.25 0.0, -3.0951 0.2553 0.0, -2.6634 0.1712 0.0, -3.0571 0.2711 0.0, -3.0245 0.2961 0.0, -2.9995 0.3287 0.0, -2.9995 0.4862 0.0, -3.0245 0.5188 0.0, -2.6634 0.6437 0.0, -3.0571 0.5438 0.0, -3.1358 0.6437 0.0, -3.0951 0.5596 0.0, -3.1358 0.5649 0.0, -2.9837 0.3667 0.0, -2.9784 0.4075 0.0, -2.9837 0.4482 0.0, -3.1358 -0.6162 0.0, -3.1358 -0.5374 0.0, -3.0951 -0.5321 0.0, -3.0245 -0.2686 0.0, -3.0571 -0.2436 0.0, -2.6634 -0.1437 0.0, -2.6634 -0.6162 0.0, -3.0571 -0.5163 0.0, -3.0245 -0.4913 0.0, -3.1358 -0.1437 0.0, -3.0951 -0.2278 0.0, -3.1358 -0.2225 0.0, -2.9995 -0.4587 0.0, -2.9837 -0.4207 0.0, -2.6634 -0.2478 0.0, -2.9784 -0.3799 0.0, -2.9837 -0.3392 0.0, -2.9995 -0.3012 0.0, -3.1358 -1.4036 0.0, -3.1358 -1.3248 0.0, -3.0951 -1.3195 0.0, -2.6634 -1.4036 0.0, -3.0571 -1.3037 0.0, -3.0245 -1.2787 0.0, -2.9995 -1.2461 0.0, -2.9995 -1.0886 0.0, -3.0245 -1.056 0.0, -2.6634 -0.9311 0.0, -3.0571 -1.031 0.0, -3.1358 -0.9311 0.0, -3.0951 -1.0152 0.0, -3.1358 -1.0099 0.0, -2.9837 -1.2081 0.0, -2.9784 -1.1673 0.0, -2.9837 -1.1266 0.0, -3.1358 -2.191 0.0, -3.1358 -2.1122 0.0, -3.0951 -2.1069 0.0, -2.6634 -2.191 0.0, -3.0245 -2.0661 0.0, -2.9995 -2.0335 0.0, -3.0571 -2.0911 0.0, -2.9995 -1.876 0.0, -3.0245 -1.8434 0.0, -2.6634 -1.7185 0.0, -3.0571 -1.8184 0.0, -3.1358 -1.7185 0.0, -3.0951 -1.8026 0.0, -3.1358 -1.7973 0.0, -2.9837 -1.9955 0.0, -2.9784 -1.9547 0.0, -2.9837 -1.914 0.0, -3.1358 -2.9784 0.0, -3.1358 -2.8996 0.0, -3.0951 -2.8943 0.0, -2.6634 -2.9784 0.0, -3.0245 -2.8535 0.0, -2.9995 -2.8209 0.0, -3.0571 -2.8785 0.0, -2.9995 -2.6634 0.0, -3.0245 -2.6308 0.0, -2.6634 -2.5059 0.0, -3.0571 -2.6058 0.0, -3.1358 -2.5059 0.0, -3.0951 -2.59 0.0, -3.1358 -2.5847 0.0, -2.9837 -2.7829 0.0, -2.9784 -2.7421 0.0, -2.9837 -2.7014 0.0, -3.1358 1.746 0.0, -3.1358 1.8248 0.0, -3.0951 1.8301 0.0, -2.6634 1.746 0.0, -3.0245 1.8709 0.0, -2.9995 1.9035 0.0, -3.0571 1.8459 0.0, -2.9995 2.061 0.0, -3.0245 2.0936 0.0, -2.6634 2.2185 0.0, -3.0571 2.1186 0.0, -3.1358 2.2185 0.0, -3.0951 2.1344 0.0, -3.1358 2.1397 0.0, -2.9837 1.9415 0.0, -2.9784 1.9823 0.0, -2.9837 2.023 0.0, 3.1634 -2.5059 0.0, 3.1634 -2.5847 0.0, 3.1226 -2.59 0.0, 2.6909 -2.5059 0.0, 3.0846 -2.6058 0.0, 3.052 -2.6308 0.0, 2.6909 -2.9784 0.0, 3.0846 -2.8785 0.0, 3.1634 -2.9784 0.0, 3.1226 -2.8943 0.0, 3.1634 -2.8996 0.0, 3.027 -2.6634 0.0, 3.0113 -2.7014 0.0, 3.0059 -2.7421 0.0, 3.0113 -2.7829 0.0, 3.027 -2.8209 0.0, 3.052 -2.8535 0.0, 3.1634 -1.7185 0.0, 3.1634 -1.7973 0.0, 3.1226 -1.8026 0.0, 2.6909 -1.7185 0.0, 3.0846 -1.8184 0.0, 3.052 -1.8434 0.0, 2.6909 -2.191 0.0, 3.0846 -2.0911 0.0, 3.1634 -2.191 0.0, 3.1226 -2.1069 0.0, 3.1634 -2.1122 0.0, 3.027 -1.876 0.0, 3.0113 -1.914 0.0, 3.0059 -1.9547 0.0, 3.0113 -1.9955 0.0, 3.027 -2.0335 0.0, 3.052 -2.0661 0.0, 3.1634 -0.9311 0.0, 3.1634 -1.0099 0.0, 3.1226 -1.0152 0.0, 2.6909 -0.9311 0.0, 3.0846 -1.031 0.0, 3.052 -1.056 0.0, 3.0113 -1.2081 0.0, 3.027 -1.2461 0.0, 2.6909 -1.4036 0.0, 3.027 -1.0886 0.0, 3.0113 -1.1266 0.0, 3.0059 -1.1673 0.0, 3.052 -1.2787 0.0, 3.0846 -1.3037 0.0, 3.1634 -1.4036 0.0, 3.1226 -1.3195 0.0, 3.1634 -1.3248 0.0, 3.0846 -0.2436 0.0, 2.6909 -0.1437 0.0, 3.1226 -0.2278 0.0, 3.1634 -0.1437 0.0, 3.1634 -0.2225 0.0, 2.6909 -0.2478 0.0, 3.0059 -0.3799 0.0, 2.6909 -0.6162 0.0, 3.0113 -0.4207 0.0, 3.027 -0.4587 0.0, 3.052 -0.4913 0.0, 3.0846 -0.5163 0.0, 3.1634 -0.6162 0.0, 3.1226 -0.5321 0.0, 3.1634 -0.5374 0.0, 3.052 -0.2686 0.0, 3.027 -0.3012 0.0, 3.0113 -0.3392 0.0, 3.0846 0.5438 0.0, 3.052 0.5188 0.0, 2.6909 0.6437 0.0, 3.1226 0.5596 0.0, 3.1634 0.6437 0.0, 3.1634 0.5649 0.0, 2.6909 0.1712 0.0, 3.0846 0.2711 0.0, 3.1634 0.1712 0.0, 3.1226 0.2553 0.0, 3.1634 0.25 0.0, 3.027 0.4862 0.0, 3.0113 0.4482 0.0, 3.0059 0.4075 0.0, 3.0113 0.3667 0.0, 3.027 0.3287 0.0, 3.052 0.2961 0.0, 3.1634 1.4311 0.0, 3.1634 1.3523 0.0, 3.1226 1.347 0.0, 2.6909 1.4311 0.0, 3.0846 1.3312 0.0, 3.052 1.3062 0.0, 3.0113 1.1541 0.0, 3.027 1.1161 0.0, 2.6909 0.9586 0.0, 3.027 1.2736 0.0, 3.0113 1.2356 0.0, 3.0059 1.1949 0.0, 3.052 1.0835 0.0, 3.0846 1.0585 0.0, 3.1634 0.9586 0.0, 3.1226 1.0427 0.0, 3.1634 1.0374 0.0, 3.1634 2.2185 0.0, 3.1634 2.1397 0.0, 3.1226 2.1344 0.0, 2.6909 2.2185 0.0, 3.0846 2.1186 0.0, 3.052 2.0936 0.0, 2.6909 1.746 0.0, 3.0846 1.8459 0.0, 3.1634 1.746 0.0, 3.1226 1.8301 0.0, 3.1634 1.8248 0.0, 3.027 2.061 0.0, 3.0113 2.023 0.0, 3.0059 1.9823 0.0, 3.0113 1.9415 0.0, 3.027 1.9035 0.0, 3.052 1.8709 0.0, 3.1634 3.0059 0.0, 3.1634 2.9271 0.0, 3.1226 2.9218 0.0, 2.6909 3.0059 0.0, 3.0846 2.906 0.0, 3.052 2.881 0.0, 2.6909 2.5334 0.0, 3.0846 2.6333 0.0, 3.1634 2.5334 0.0, 3.1226 2.6176 0.0, 3.1634 2.6122 0.0, 3.027 2.8484 0.0, 3.0113 2.8104 0.0, 3.0059 2.7697 0.0, 3.0113 2.7289 0.0, 3.027 2.6909 0.0, 3.052 2.6583 0.0, -3.1358 1.4311 0.315, -3.1358 1.3523 0.315, -3.0951 1.347 0.315, -2.8996 1.4311 0.315, -2.9995 1.1161 0.315, -3.0245 1.0835 0.315, -2.8996 0.9586 0.315, -3.0571 1.0585 0.315, -3.1358 0.9586 0.315, -3.0951 1.0427 0.315, -3.1358 1.0374 0.315, -3.0571 1.3312 0.315, -3.0245 1.3062 0.315, -2.9995 1.2736 0.315, -2.9837 1.2356 0.315, -2.9784 1.1949 0.315, -2.9837 1.1541 0.315, -3.0951 0.2553 0.315, -3.1358 0.25 0.315, -3.1358 0.1712 0.315, -3.1358 0.6437 0.315, -3.1358 0.5649 0.315, -3.0951 0.5596 0.315, -2.9784 0.4075 0.315, -2.8996 0.1712 0.315, -2.8996 0.6437 0.315, -3.0571 0.2711 0.315, -3.0245 0.2961 0.315, -3.0571 0.5438 0.315, -3.0245 0.5188 0.315, -2.9837 0.3667 0.315, -2.9995 0.3287 0.315, -2.9995 0.4862 0.315, -2.9837 0.4482 0.315, -3.1358 -0.1437 0.315, -3.1358 -0.2225 0.315, -3.0951 -0.2278 0.315, -2.8996 -0.1437 0.315, -2.9995 -0.4587 0.315, -3.0245 -0.4913 0.315, -2.8996 -0.6162 0.315, -3.0571 -0.5163 0.315, -3.1358 -0.6162 0.315, -3.0951 -0.5321 0.315, -3.1358 -0.5374 0.315, -3.0571 -0.2436 0.315, -3.0245 -0.2686 0.315, -2.9995 -0.3012 0.315, -2.9837 -0.3392 0.315, -2.9784 -0.3799 0.315, -2.9837 -0.4207 0.315, -3.1358 -0.9311 0.315, -3.1358 -1.0099 0.315, -3.0951 -1.0152 0.315, -2.8996 -0.9311 0.315, -2.9995 -1.2461 0.315, -3.0245 -1.2787 0.315, -2.8996 -1.4036 0.315, -3.0571 -1.3037 0.315, -3.1358 -1.4036 0.315, -3.0951 -1.3195 0.315, -3.1358 -1.3248 0.315, -3.0571 -1.031 0.315, -3.0245 -1.056 0.315, -2.9995 -1.0886 0.315, -2.9837 -1.1266 0.315, -2.9784 -1.1673 0.315, -2.9837 -1.2081 0.315, -3.1358 -1.7185 0.315, -3.1358 -1.7973 0.315, -3.0951 -1.8026 0.315, -2.8996 -1.7185 0.315, -3.0571 -1.8184 0.315, -3.0245 -1.8434 0.315, -2.9995 -1.876 0.315, -2.9995 -2.0335 0.315, -3.0245 -2.0661 0.315, -2.8996 -2.191 0.315, -3.0571 -2.0911 0.315, -3.1358 -2.191 0.315, -3.0951 -2.1069 0.315, -3.1358 -2.1122 0.315, -2.9837 -1.914 0.315, -2.9784 -1.9547 0.315, -2.9837 -1.9955 0.315, -3.1358 -2.5059 0.315, -3.1358 -2.5847 0.315, -3.0951 -2.59 0.315, -2.8996 -2.5059 0.315, -3.0571 -2.6058 0.315, -3.0245 -2.6308 0.315, -2.9995 -2.6634 0.315, -2.9995 -2.8209 0.315, -3.0245 -2.8535 0.315, -2.8996 -2.9784 0.315, -3.0571 -2.8785 0.315, -3.1358 -2.9784 0.315, -3.0951 -2.8943 0.315, -3.1358 -2.8996 0.315, -2.9837 -2.7014 0.315, -2.9784 -2.7421 0.315, -2.9837 -2.7829 0.315, -3.1358 2.2185 0.315, -3.1358 2.1397 0.315, -3.0951 2.1344 0.315, -2.8996 2.2185 0.315, -3.0571 2.1186 0.315, -3.0245 2.0936 0.315, -2.9995 2.061 0.315, -2.9995 1.9035 0.315, -3.0245 1.8709 0.315, -2.8996 1.746 0.315, -3.0571 1.8459 0.315, -3.1358 1.746 0.315, -3.0951 1.8301 0.315, -3.1358 1.8248 0.315, -2.9837 2.023 0.315, -2.9784 1.9823 0.315, -2.9837 1.9415 0.315, -3.1358 3.0059 0.315, -3.1358 2.9271 0.315, -3.0951 2.9218 0.315, -2.8996 3.0059 0.315, -3.0571 2.906 0.315, -3.0245 2.881 0.315, -2.9995 2.8484 0.315, -2.9995 2.6909 0.315, -3.0245 2.6583 0.315, -2.8996 2.5334 0.315, -3.0571 2.6333 0.315, -3.1358 2.5334 0.315, -3.0951 2.6176 0.315, -3.1358 2.6122 0.315, -2.9837 2.8104 0.315, -2.9784 2.7697 0.315, -2.9837 2.7289 0.315, 3.1634 -2.9784 0.315, 3.1634 -2.8996 0.315, 3.1226 -2.8943 0.315, 2.9272 -2.9784 0.315, 3.0846 -2.8785 0.315, 3.052 -2.8535 0.315, 3.027 -2.8209 0.315, 3.027 -2.6634 0.315, 3.052 -2.6308 0.315, 2.9272 -2.5059 0.315, 3.0846 -2.6058 0.315, 3.1634 -2.5059 0.315, 3.1226 -2.59 0.315, 3.1634 -2.5847 0.315, 3.0113 -2.7829 0.315, 3.0059 -2.7421 0.315, 3.0113 -2.7014 0.315, 3.1634 -2.191 0.315, 3.1634 -2.1122 0.315, 3.1226 -2.1069 0.315, 2.9272 -2.191 0.315, 3.0846 -2.0911 0.315, 3.052 -2.0661 0.315, 3.027 -2.0335 0.315, 3.027 -1.876 0.315, 3.052 -1.8434 0.315, 2.9272 -1.7185 0.315, 3.0846 -1.8184 0.315, 3.1634 -1.7185 0.315, 3.1226 -1.8026 0.315, 3.1634 -1.7973 0.315, 3.0113 -1.9955 0.315, 3.0059 -1.9547 0.315, 3.0113 -1.914 0.315, 3.1634 -1.4036 0.315, 3.1634 -1.3248 0.315, 3.1226 -1.3195 0.315, 2.9272 -1.4036 0.315, 3.027 -1.0886 0.315, 3.052 -1.056 0.315, 2.9272 -0.9311 0.315, 3.0846 -1.031 0.315, 3.1634 -0.9311 0.315, 3.1226 -1.0152 0.315, 3.1634 -1.0099 0.315, 3.0846 -1.3037 0.315, 3.052 -1.2787 0.315, 3.027 -1.2461 0.315, 3.0113 -1.2081 0.315, 3.0059 -1.1673 0.315, 3.0113 -1.1266 0.315, 3.1634 -0.6162 0.315, 3.1634 -0.5374 0.315, 3.1226 -0.5321 0.315, 2.9272 -0.6162 0.315, 3.0846 -0.5163 0.315, 3.052 -0.4913 0.315, 3.027 -0.4587 0.315, 3.027 -0.3012 0.315, 3.052 -0.2686 0.315, 2.9272 -0.1437 0.315, 3.0846 -0.2436 0.315, 3.1634 -0.1437 0.315, 3.1226 -0.2278 0.315, 3.1634 -0.2225 0.315, 3.0113 -0.4207 0.315, 3.0059 -0.3799 0.315, 3.0113 -0.3392 0.315, 3.1634 0.1712 0.315, 3.1634 0.25 0.315, 3.1226 0.2553 0.315, 2.9272 0.1712 0.315, 3.027 0.4862 0.315, 3.052 0.5188 0.315, 2.9272 0.6437 0.315, 3.0846 0.5438 0.315, 3.1634 0.6437 0.315, 3.1226 0.5596 0.315, 3.1634 0.5649 0.315, 3.0846 0.2711 0.315, 3.052 0.2961 0.315, 3.027 0.3287 0.315, 3.0113 0.3667 0.315, 3.0059 0.4075 0.315, 3.0113 0.4482 0.315, 3.1634 0.9586 0.315, 3.1634 1.0374 0.315, 3.1226 1.0427 0.315, 2.9272 0.9586 0.315, 3.027 1.2736 0.315, 3.052 1.3062 0.315, 2.9272 1.4311 0.315, 3.0846 1.3312 0.315, 3.1634 1.4311 0.315, 3.1226 1.347 0.315, 3.1634 1.3523 0.315, 3.0846 1.0585 0.315, 3.052 1.0835 0.315, 3.027 1.1161 0.315, 3.0113 1.1541 0.315, 3.0059 1.1949 0.315, 3.0113 1.2356 0.315, 3.1634 1.746 0.315, 3.1634 1.8248 0.315, 3.1226 1.8301 0.315, 2.9272 1.746 0.315, 3.0846 1.8459 0.315, 3.052 1.8709 0.315, 3.027 1.9035 0.315, 3.027 2.061 0.315, 3.052 2.0936 0.315, 2.9272 2.2185 0.315, 3.0846 2.1186 0.315, 3.1634 2.2185 0.315, 3.1226 2.1344 0.315, 3.1634 2.1397 0.315, 3.0113 1.9415 0.315, 3.0059 1.9823 0.315, 3.0113 2.023 0.315
            ]
        }
        coordIndex [
            0,1,2,-1,0,2,3,-1,2,4,3,-1,3,4,5,-1,3,5,6,-1,7,8,9,-1,9,8,10,-1,9,10,11,-1,11,10,12,-1,11,12,13,-1,6,14,3,-1,3,14,15,-1,3,15,9,-1,9,15,16,-1,9,16,7,-1,17,18,19,-1,17,19,20,-1,19,21,20,-1,20,21,22,-1,20,22,23,-1,24,25,26,-1,26,25,27,-1,26,27,28,-1,28,27,29,-1,28,29,30,-1,23,31,20,-1,20,31,32,-1,20,32,26,-1,26,32,33,-1,26,33,24,-1,34,35,36,-1,37,38,39,-1,34,36,40,-1,40,36,41,-1,40,41,42,-1,39,38,43,-1,43,38,44,-1,43,44,45,-1,42,46,40,-1,40,46,47,-1,40,47,48,-1,47,49,48,-1,48,49,50,-1,48,50,39,-1,39,50,51,-1,39,51,37,-1,52,53,54,-1,52,54,55,-1,54,56,55,-1,55,56,57,-1,55,57,58,-1,59,60,61,-1,61,60,62,-1,61,62,63,-1,63,62,64,-1,63,64,65,-1,58,66,55,-1,55,66,67,-1,55,67,61,-1,61,67,68,-1,61,68,59,-1,69,70,71,-1,72,73,74,-1,69,71,72,-1,72,71,75,-1,72,75,73,-1,76,77,78,-1,78,77,79,-1,78,79,80,-1,80,79,81,-1,80,81,82,-1,74,83,72,-1,72,83,84,-1,72,84,78,-1,78,84,85,-1,78,85,76,-1,86,87,88,-1,89,90,91,-1,86,88,89,-1,89,88,92,-1,89,92,90,-1,93,94,95,-1,95,94,96,-1,95,96,97,-1,97,96,98,-1,97,98,99,-1,91,100,89,-1,89,100,101,-1,89,101,95,-1,95,101,102,-1,95,102,93,-1,103,104,105,-1,106,107,108,-1,103,105,106,-1,106,105,109,-1,106,109,107,-1,110,111,112,-1,112,111,113,-1,112,113,114,-1,114,113,115,-1,114,115,116,-1,108,117,106,-1,106,117,118,-1,106,118,112,-1,112,118,119,-1,112,119,110,-1,120,121,122,-1,120,122,123,-1,123,122,124,-1,123,124,125,-1,126,127,128,-1,128,127,129,-1,128,129,130,-1,125,131,123,-1,123,131,132,-1,123,132,126,-1,126,132,133,-1,126,133,134,-1,134,135,126,-1,126,135,136,-1,126,136,127,-1,137,138,139,-1,137,139,140,-1,140,139,141,-1,140,141,142,-1,143,144,145,-1,145,144,146,-1,145,146,147,-1,142,148,140,-1,140,148,149,-1,140,149,143,-1,143,149,150,-1,143,150,151,-1,151,152,143,-1,143,152,153,-1,143,153,144,-1,154,155,156,-1,154,156,157,-1,157,156,158,-1,157,158,159,-1,160,161,162,-1,159,163,157,-1,157,163,164,-1,157,164,162,-1,162,164,165,-1,162,165,160,-1,161,166,162,-1,162,166,167,-1,162,167,168,-1,168,167,169,-1,168,169,170,-1,171,172,173,-1,173,172,174,-1,173,174,175,-1,176,177,178,-1,178,177,179,-1,178,179,180,-1,180,181,178,-1,178,181,182,-1,178,182,183,-1,183,182,184,-1,183,184,185,-1,171,186,172,-1,172,186,187,-1,172,187,176,-1,176,187,188,-1,176,188,177,-1,189,190,191,-1,189,191,192,-1,192,191,193,-1,192,193,194,-1,195,196,197,-1,197,196,198,-1,197,198,199,-1,190,200,191,-1,191,200,201,-1,191,201,195,-1,195,201,202,-1,195,202,203,-1,203,204,195,-1,195,204,205,-1,195,205,196,-1,206,207,208,-1,206,208,209,-1,209,208,210,-1,209,210,211,-1,212,213,214,-1,211,215,209,-1,209,215,216,-1,209,216,214,-1,214,216,217,-1,214,217,212,-1,213,218,214,-1,214,218,219,-1,214,219,220,-1,220,219,221,-1,220,221,222,-1,223,224,225,-1,223,225,226,-1,226,225,227,-1,226,227,228,-1,229,230,231,-1,231,230,232,-1,231,232,233,-1,228,234,226,-1,226,234,235,-1,226,235,229,-1,229,235,236,-1,229,236,237,-1,237,238,229,-1,229,238,239,-1,229,239,230,-1,240,241,242,-1,240,242,243,-1,243,242,244,-1,243,244,245,-1,246,247,248,-1,248,247,249,-1,248,249,250,-1,245,251,243,-1,243,251,252,-1,243,252,246,-1,246,252,253,-1,246,253,254,-1,254,255,246,-1,246,255,256,-1,246,256,247,-1,257,258,259,-1,257,259,260,-1,261,262,263,-1,263,262,264,-1,263,264,265,-1,265,264,266,-1,265,266,267,-1,259,268,260,-1,260,268,269,-1,260,269,270,-1,270,271,260,-1,260,271,272,-1,260,272,263,-1,263,272,273,-1,263,273,261,-1,274,275,276,-1,277,278,279,-1,280,281,282,-1,274,276,283,-1,283,276,281,-1,283,281,284,-1,277,279,282,-1,282,279,285,-1,282,285,286,-1,280,287,281,-1,281,287,288,-1,281,288,284,-1,286,289,282,-1,282,289,290,-1,282,290,280,-1,291,292,293,-1,291,293,294,-1,295,296,297,-1,297,296,298,-1,297,298,299,-1,299,298,300,-1,299,300,301,-1,293,302,294,-1,294,302,303,-1,294,303,304,-1,304,305,294,-1,294,305,306,-1,294,306,297,-1,297,306,307,-1,297,307,295,-1,308,309,310,-1,308,310,311,-1,312,313,314,-1,314,313,315,-1,314,315,316,-1,316,315,317,-1,316,317,318,-1,310,319,311,-1,311,319,320,-1,311,320,321,-1,321,322,311,-1,311,322,323,-1,311,323,314,-1,314,323,324,-1,314,324,312,-1,325,326,327,-1,325,327,328,-1,327,329,328,-1,328,329,330,-1,328,330,331,-1,332,333,334,-1,334,333,335,-1,334,335,336,-1,336,335,337,-1,336,337,338,-1,331,339,328,-1,328,339,340,-1,328,340,334,-1,334,340,341,-1,334,341,332,-1,342,343,344,-1,342,344,345,-1,344,346,345,-1,345,346,347,-1,345,347,348,-1,349,350,351,-1,351,350,352,-1,351,352,353,-1,353,352,354,-1,353,354,355,-1,348,356,345,-1,345,356,357,-1,345,357,351,-1,351,357,358,-1,351,358,349,-1,359,360,361,-1,359,361,362,-1,361,363,362,-1,362,363,364,-1,362,364,365,-1,366,367,368,-1,368,367,369,-1,368,369,370,-1,370,369,371,-1,370,371,372,-1,365,373,362,-1,362,373,374,-1,362,374,368,-1,368,374,375,-1,368,375,366,-1,376,377,378,-1,376,378,379,-1,378,380,379,-1,379,380,381,-1,379,381,382,-1,383,384,385,-1,385,384,386,-1,385,386,387,-1,387,386,388,-1,387,388,389,-1,382,390,379,-1,379,390,391,-1,379,391,385,-1,385,391,392,-1,385,392,383,-1,393,394,395,-1,393,395,396,-1,395,397,396,-1,396,397,398,-1,396,398,399,-1,400,401,402,-1,402,401,403,-1,402,403,404,-1,404,403,405,-1,404,405,406,-1,399,407,396,-1,396,407,408,-1,396,408,402,-1,402,408,409,-1,402,409,400,-1,410,411,412,-1,410,412,413,-1,412,414,413,-1,413,414,415,-1,413,415,416,-1,417,418,419,-1,419,418,420,-1,419,420,421,-1,421,420,422,-1,421,422,423,-1,416,424,413,-1,413,424,425,-1,413,425,419,-1,419,425,426,-1,419,426,417,-1,427,428,429,-1,427,429,430,-1,431,432,433,-1,433,432,434,-1,433,434,435,-1,435,434,436,-1,435,436,437,-1,429,438,430,-1,430,438,439,-1,430,439,440,-1,440,441,430,-1,430,441,442,-1,430,442,433,-1,433,442,443,-1,433,443,431,-1,444,445,446,-1,444,446,447,-1,446,448,447,-1,447,448,449,-1,447,449,450,-1,451,452,453,-1,453,452,454,-1,453,454,455,-1,455,454,456,-1,455,456,457,-1,450,458,447,-1,447,458,459,-1,447,459,453,-1,453,459,460,-1,453,460,451,-1,461,462,463,-1,461,463,464,-1,465,466,467,-1,467,466,468,-1,467,468,469,-1,469,468,470,-1,469,470,471,-1,463,472,464,-1,464,472,473,-1,464,473,474,-1,474,475,464,-1,464,475,476,-1,464,476,467,-1,467,476,477,-1,467,477,465,-1,478,479,480,-1,478,480,481,-1,482,483,484,-1,484,483,485,-1,484,485,486,-1,486,485,487,-1,486,487,488,-1,480,489,481,-1,481,489,490,-1,481,490,491,-1,491,492,481,-1,481,492,493,-1,481,493,484,-1,484,493,494,-1,484,494,482,-1,495,496,497,-1,495,497,498,-1,497,499,498,-1,498,499,500,-1,498,500,501,-1,502,503,504,-1,504,503,505,-1,504,505,506,-1,506,505,507,-1,506,507,508,-1,501,509,498,-1,498,509,510,-1,498,510,504,-1,504,510,511,-1,504,511,502,-1,
        ]
    }
}
Shape{
    appearance Appearance {
        material  Material 	{
            diffuseColor 0.0 0.2 0.8
            specularColor 0.0 0.058823529411764705 0.23921568627450981
            ambientIntensity 0.2086
            transparency 0.0
            shininess 0.5
        }
    }
    geometry IndexedFaceSet {
        ccw TRUE
        solid FALSE
        coord DEF co Coordinate {
            point [
                -3.1358 -3.3327 0.0, -3.1358 -3.3327 0.315, -3.1358 -2.9784 0.0, -3.1358 -2.9784 0.315, -3.1358 -2.8996 0.0, -3.1358 -2.8996 0.315
            ]
        }
        coordIndex [
            0,1,2,-1,2,1,3,-1,2,3,4,-1,4,3,5,-1,
        ]
    }
}
Shape{
    appearance Appearance {
        material  Material 	{
            diffuseColor 0.20784313725490197 0.20784313725490197 0.20784313725490197
            specularColor 0.01568627450980392 0.01568627450980392 0.01568627450980392
            ambientIntensity 0.298
            transparency 0.0
            shininess 0.5
        }
    }
    geometry IndexedFaceSet {
        ccw TRUE
        solid FALSE
        coord DEF co Coordinate {
            point [
                3.1634 -3.3327 0.0, 3.1634 -3.3327 0.315, -0.0329 -3.3327 0.0, -3.1358 -3.3327 0.315, -3.1358 -3.3327 0.0
            ]
        }
        coordIndex [
            0,1,2,-1,2,1,3,-1,2,3,4,-1,
        ]
    }
}
Shape{
    appearance Appearance {
        material  Material 	{
            diffuseColor 0.0 0.2 0.8
            specularColor 0.0 0.058823529411764705 0.23921568627450981
            ambientIntensity 0.2086
            transparency 0.0
            shininess 0.5
        }
    }
    geometry IndexedFaceSet {
        ccw TRUE
        solid FALSE
        coord DEF co Coordinate {
            point [
                3.1634 3.3602 0.0, 3.1634 3.3602 0.315, 3.1634 3.0059 0.0, 3.1634 3.0059 0.315, 3.1634 2.9271 0.0, 3.1634 2.9271 0.315
            ]
        }
        coordIndex [
            0,1,2,-1,2,1,3,-1,2,3,4,-1,4,3,5,-1,
        ]
    }
}
Shape{
    appearance Appearance {
        material  Material 	{
            diffuseColor 0.20784313725490197 0.20784313725490197 0.20784313725490197
            specularColor 0.01568627450980392 0.01568627450980392 0.01568627450980392
            ambientIntensity 0.298
            transparency 0.0
            shininess 0.5
        }
    }
    geometry IndexedFaceSet {
        ccw TRUE
        solid FALSE
        coord DEF co Coordinate {
            point [
                -3.1358 3.3602 0.0, -3.1358 3.3602 0.315, -0.0329 3.3602 0.0, 3.1634 3.3602 0.315, 3.1634 3.3602 0.0
            ]
        }
        coordIndex [
            0,1,2,-1,2,1,3,-1,2,3,4,-1,
        ]
    }
}
Shape{
    appearance Appearance {
        material  Material 	{
            diffuseColor 0.6470588235294118 0.5176470588235295 0.0
            specularColor 0.45098039215686275 0.3607843137254902 0.0
            ambientIntensity 0.4973
            transparency 0.0
            shininess 0.5
        }
    }
    geometry IndexedFaceSet {
        ccw TRUE
        solid FALSE
        coord DEF co Coordinate {
            point [
                3.1634 2.5334 0.315, 3.1634 2.6122 0.315, 3.1226 2.6176 0.315, 2.9272 2.5334 0.315, 3.0846 2.6333 0.315, 3.052 2.6583 0.315, 3.027 2.6909 0.315, 3.027 2.8484 0.315, 3.052 2.881 0.315, 2.9272 3.0059 0.315, 3.0846 2.906 0.315, 3.1634 3.0059 0.315, 3.1226 2.9218 0.315, 3.1634 2.9271 0.315, 3.0113 2.7289 0.315, 3.0059 2.7697 0.315, 3.0113 2.8104 0.315, -3.1358 2.5334 0.0, -3.1358 2.6122 0.0, -3.0951 2.6176 0.0, -2.6634 2.5334 0.0, -3.0245 2.6583 0.0, -2.9995 2.6909 0.0, -3.0571 2.6333 0.0, -2.9995 2.8484 0.0, -3.0245 2.881 0.0, -2.6634 3.0059 0.0, -3.0571 2.906 0.0, -3.1358 3.0059 0.0, -3.0951 2.9218 0.0, -3.1358 2.9271 0.0, -2.9837 2.7289 0.0, -2.9784 2.7697 0.0, -2.9837 2.8104 0.0, -3.1358 2.6122 0.315, -3.0951 2.6176 0.315, -3.0571 2.6333 0.315, -3.0245 2.6583 0.315, -2.9995 2.6909 0.315, -2.9837 2.7289 0.315, -2.9784 2.7697 0.315, -2.9837 2.8104 0.315, -2.9995 2.8484 0.315, -3.0245 2.881 0.315, -3.0571 2.906 0.315, -3.0951 2.9218 0.315, -3.1358 2.9271 0.315, 3.1634 2.9271 0.0, 3.1226 2.9218 0.0, 3.0846 2.906 0.0, 3.052 2.881 0.0, 3.027 2.8484 0.0, 3.0113 2.8104 0.0, 3.0059 2.7697 0.0, 3.0113 2.7289 0.0, 3.027 2.6909 0.0, 3.052 2.6583 0.0, 3.0846 2.6333 0.0, 3.1226 2.6176 0.0, 3.1634 2.6122 0.0, 3.1634 -1.0099 0.0, 3.1634 -1.0099 0.315, 3.1226 -1.0152 0.0, 3.1226 -1.0152 0.315, 3.0846 -1.031 0.0, 3.0846 -1.031 0.315, 3.052 -1.056 0.0, 3.052 -1.056 0.315, 3.027 -1.0886 0.0, 3.027 -1.0886 0.315, 3.0113 -1.1266 0.0, 3.0113 -1.1266 0.315, 3.0059 -1.1673 0.0, 3.0059 -1.1673 0.315, 3.0113 -1.2081 0.0, 3.0113 -1.2081 0.315, 3.027 -1.2461 0.0, 3.027 -1.2461 0.315, 3.052 -1.2787 0.0, 3.052 -1.2787 0.315, 3.0846 -1.3037 0.0, 3.0846 -1.3037 0.315, 3.1226 -1.3195 0.0, 3.1226 -1.3195 0.315, 3.1634 -1.3248 0.0, 3.1634 -1.3248 0.315, 3.1634 -1.7973 0.0, 3.1634 -1.7973 0.315, 3.1226 -1.8026 0.0, 3.1226 -1.8026 0.315, 3.0846 -1.8184 0.0, 3.0846 -1.8184 0.315, 3.052 -1.8434 0.0, 3.052 -1.8434 0.315, 3.027 -1.876 0.0, 3.027 -1.876 0.315, 3.0113 -1.914 0.0, 3.0113 -1.914 0.315, 3.0059 -1.9547 0.0, 3.0059 -1.9547 0.315, 3.0113 -1.9955 0.0, 3.0113 -1.9955 0.315, 3.027 -2.0335 0.0, 3.027 -2.0335 0.315, 3.052 -2.0661 0.0, 3.052 -2.0661 0.315, 3.0846 -2.0911 0.0, 3.0846 -2.0911 0.315, 3.1226 -2.1069 0.0, 3.1226 -2.1069 0.315, 3.1634 -2.1122 0.0, 3.1634 -2.1122 0.315, 3.1634 -2.5847 0.0, 3.1634 -2.5847 0.315, 3.1226 -2.59 0.0, 3.1226 -2.59 0.315, 3.0846 -2.6058 0.0, 3.0846 -2.6058 0.315, 3.052 -2.6308 0.0, 3.052 -2.6308 0.315, 3.027 -2.6634 0.0, 3.027 -2.6634 0.315, 3.0113 -2.7014 0.0, 3.0113 -2.7014 0.315, 3.0059 -2.7421 0.0, 3.0059 -2.7421 0.315, 3.0113 -2.7829 0.0, 3.0113 -2.7829 0.315, 3.027 -2.8209 0.0, 3.027 -2.8209 0.315, 3.052 -2.8535 0.0, 3.052 -2.8535 0.315, 3.0846 -2.8785 0.0, 3.0846 -2.8785 0.315, 3.1226 -2.8943 0.0, 3.1226 -2.8943 0.315, 3.1634 -2.8996 0.0, 3.1634 -2.8996 0.315, 3.1634 2.1397 0.0, 3.1634 2.1397 0.315, 3.1226 2.1344 0.0, 3.1226 2.1344 0.315, 3.0846 2.1186 0.0, 3.0846 2.1186 0.315, 3.052 2.0936 0.0, 3.052 2.0936 0.315, 3.027 2.061 0.0, 3.027 2.061 0.315, 3.0113 2.023 0.0, 3.0113 2.023 0.315, 3.0059 1.9823 0.0, 3.0059 1.9823 0.315, 3.0113 1.9415 0.0, 3.0113 1.9415 0.315, 3.027 1.9035 0.0, 3.027 1.9035 0.315, 3.052 1.8709 0.0, 3.052 1.8709 0.315, 3.0846 1.8459 0.0, 3.0846 1.8459 0.315, 3.1226 1.8301 0.0, 3.1226 1.8301 0.315, 3.1634 1.8248 0.0, 3.1634 1.8248 0.315, 3.1634 -0.2225 0.0, 3.1634 -0.2225 0.315, 3.1226 -0.2278 0.0, 3.1226 -0.2278 0.315, 3.0846 -0.2436 0.0, 3.0846 -0.2436 0.315, 3.052 -0.2686 0.0, 3.052 -0.2686 0.315, 3.027 -0.3012 0.0, 3.027 -0.3012 0.315, 3.0113 -0.3392 0.0, 3.0113 -0.3392 0.315, 3.0059 -0.3799 0.0, 3.0059 -0.3799 0.315, 3.0113 -0.4207 0.0, 3.0113 -0.4207 0.315, 3.027 -0.4587 0.0, 3.027 -0.4587 0.315, 3.052 -0.4913 0.0, 3.052 -0.4913 0.315, 3.0846 -0.5163 0.0, 3.0846 -0.5163 0.315, 3.1226 -0.5321 0.0, 3.1226 -0.5321 0.315, 3.1634 -0.5374 0.0, 3.1634 -0.5374 0.315, 3.1634 0.5649 0.0, 3.1634 0.5649 0.315, 3.1226 0.5596 0.0, 3.1226 0.5596 0.315, 3.0846 0.5438 0.0, 3.0846 0.5438 0.315, 3.052 0.5188 0.0, 3.052 0.5188 0.315, 3.027 0.4862 0.0, 3.027 0.4862 0.315, 3.0113 0.4482 0.0, 3.0113 0.4482 0.315, 3.0059 0.4075 0.0, 3.0059 0.4075 0.315, 3.0113 0.3667 0.0, 3.0113 0.3667 0.315, 3.027 0.3287 0.0, 3.027 0.3287 0.315, 3.052 0.2961 0.0, 3.052 0.2961 0.315, 3.0846 0.2711 0.0, 3.0846 0.2711 0.315, 3.1226 0.2553 0.0, 3.1226 0.2553 0.315, 3.1634 0.25 0.0, 3.1634 0.25 0.315, 3.1634 1.3523 0.0, 3.1634 1.3523 0.315, 3.1226 1.347 0.0, 3.1226 1.347 0.315, 3.0846 1.3312 0.0, 3.0846 1.3312 0.315, 3.052 1.3062 0.0, 3.052 1.3062 0.315, 3.027 1.2736 0.0, 3.027 1.2736 0.315, 3.0113 1.2356 0.0, 3.0113 1.2356 0.315, 3.0059 1.1949 0.0, 3.0059 1.1949 0.315, 3.0113 1.1541 0.0, 3.0113 1.1541 0.315, 3.027 1.1161 0.0, 3.027 1.1161 0.315, 3.052 1.0835 0.0, 3.052 1.0835 0.315, 3.0846 1.0585 0.0, 3.0846 1.0585 0.315, 3.1226 1.0427 0.0, 3.1226 1.0427 0.315, 3.1634 1.0374 0.0, 3.1634 1.0374 0.315, -3.1358 1.8248 0.0, -3.1358 1.8248 0.315, -3.0951 1.8301 0.0, -3.0951 1.8301 0.315, -3.0571 1.8459 0.0, -3.0571 1.8459 0.315, -3.0245 1.8709 0.0, -3.0245 1.8709 0.315, -2.9995 1.9035 0.0, -2.9995 1.9035 0.315, -2.9837 1.9415 0.0, -2.9837 1.9415 0.315, -2.9784 1.9823 0.0, -2.9784 1.9823 0.315, -2.9837 2.023 0.0, -2.9837 2.023 0.315, -2.9995 2.061 0.0, -2.9995 2.061 0.315, -3.0245 2.0936 0.0, -3.0245 2.0936 0.315, -3.0571 2.1186 0.0, -3.0571 2.1186 0.315, -3.0951 2.1344 0.0, -3.0951 2.1344 0.315, -3.1358 2.1397 0.0, -3.1358 2.1397 0.315, -3.1358 1.0374 0.0, -3.1358 1.0374 0.315, -3.0951 1.0427 0.0, -3.0951 1.0427 0.315, -3.0571 1.0585 0.0, -3.0571 1.0585 0.315, -3.0245 1.0835 0.0, -3.0245 1.0835 0.315, -2.9995 1.1161 0.0, -2.9995 1.1161 0.315, -2.9837 1.1541 0.0, -2.9837 1.1541 0.315, -2.9784 1.1949 0.0, -2.9784 1.1949 0.315, -2.9837 1.2356 0.0, -2.9837 1.2356 0.315, -2.9995 1.2736 0.0, -2.9995 1.2736 0.315, -3.0245 1.3062 0.0, -3.0245 1.3062 0.315, -3.0571 1.3312 0.0, -3.0571 1.3312 0.315, -3.0951 1.347 0.0, -3.0951 1.347 0.315, -3.1358 1.3523 0.0, -3.1358 1.3523 0.315, -3.1358 0.25 0.0, -3.1358 0.25 0.315, -3.0951 0.2553 0.0, -3.0951 0.2553 0.315, -3.0571 0.2711 0.0, -3.0571 0.2711 0.315, -3.0245 0.2961 0.0, -3.0245 0.2961 0.315, -2.9995 0.3287 0.0, -2.9995 0.3287 0.315, -2.9837 0.3667 0.0, -2.9837 0.3667 0.315, -2.9784 0.4075 0.0, -2.9784 0.4075 0.315, -2.9837 0.4482 0.0, -2.9837 0.4482 0.315, -2.9995 0.4862 0.0, -2.9995 0.4862 0.315, -3.0245 0.5188 0.0, -3.0245 0.5188 0.315, -3.0571 0.5438 0.0, -3.0571 0.5438 0.315, -3.0951 0.5596 0.0, -3.0951 0.5596 0.315, -3.1358 0.5649 0.0, -3.1358 0.5649 0.315, -3.1358 -0.5374 0.0, -3.1358 -0.5374 0.315, -3.0951 -0.5321 0.0, -3.0951 -0.5321 0.315, -3.0571 -0.5163 0.0, -3.0571 -0.5163 0.315, -3.0245 -0.4913 0.0, -3.0245 -0.4913 0.315, -2.9995 -0.4587 0.0, -2.9995 -0.4587 0.315, -2.9837 -0.4207 0.0, -2.9837 -0.4207 0.315, -2.9784 -0.3799 0.0, -2.9784 -0.3799 0.315, -2.9837 -0.3392 0.0, -2.9837 -0.3392 0.315, -2.9995 -0.3012 0.0, -2.9995 -0.3012 0.315, -3.0245 -0.2686 0.0, -3.0245 -0.2686 0.315, -3.0571 -0.2436 0.0, -3.0571 -0.2436 0.315, -3.0951 -0.2278 0.0, -3.0951 -0.2278 0.315, -3.1358 -0.2225 0.0, -3.1358 -0.2225 0.315, -3.1358 -2.8996 0.0, -3.1358 -2.8996 0.315, -3.0951 -2.8943 0.0, -3.0951 -2.8943 0.315, -3.0571 -2.8785 0.0, -3.0571 -2.8785 0.315, -3.0245 -2.8535 0.0, -3.0245 -2.8535 0.315, -2.9995 -2.8209 0.0, -2.9995 -2.8209 0.315, -2.9837 -2.7829 0.0, -2.9837 -2.7829 0.315, -2.9784 -2.7421 0.0, -2.9784 -2.7421 0.315, -2.9837 -2.7014 0.0, -2.9837 -2.7014 0.315, -2.9995 -2.6634 0.0, -2.9995 -2.6634 0.315, -3.0245 -2.6308 0.0, -3.0245 -2.6308 0.315, -3.0571 -2.6058 0.0, -3.0571 -2.6058 0.315, -3.0951 -2.59 0.0, -3.0951 -2.59 0.315, -3.1358 -2.5847 0.0, -3.1358 -2.5847 0.315, -3.1358 -2.1122 0.0, -3.1358 -2.1122 0.315, -3.0951 -2.1069 0.0, -3.0951 -2.1069 0.315, -3.0571 -2.0911 0.0, -3.0571 -2.0911 0.315, -3.0245 -2.0661 0.0, -3.0245 -2.0661 0.315, -2.9995 -2.0335 0.0, -2.9995 -2.0335 0.315, -2.9837 -1.9955 0.0, -2.9837 -1.9955 0.315, -2.9784 -1.9547 0.0, -2.9784 -1.9547 0.315, -2.9837 -1.914 0.0, -2.9837 -1.914 0.315, -2.9995 -1.876 0.0, -2.9995 -1.876 0.315, -3.0245 -1.8434 0.0, -3.0245 -1.8434 0.315, -3.0571 -1.8184 0.0, -3.0571 -1.8184 0.315, -3.0951 -1.8026 0.0, -3.0951 -1.8026 0.315, -3.1358 -1.7973 0.0, -3.1358 -1.7973 0.315, -3.1358 -1.3248 0.0, -3.1358 -1.3248 0.315, -3.0951 -1.3195 0.0, -3.0951 -1.3195 0.315, -3.0571 -1.3037 0.0, -3.0571 -1.3037 0.315, -3.0245 -1.2787 0.0, -3.0245 -1.2787 0.315, -2.9995 -1.2461 0.0, -2.9995 -1.2461 0.315, -2.9837 -1.2081 0.0, -2.9837 -1.2081 0.315, -2.9784 -1.1673 0.0, -2.9784 -1.1673 0.315, -2.9837 -1.1266 0.0, -2.9837 -1.1266 0.315, -2.9995 -1.0886 0.0, -2.9995 -1.0886 0.315, -3.0245 -1.056 0.0, -3.0245 -1.056 0.315, -3.0571 -1.031 0.0, -3.0571 -1.031 0.315, -3.0951 -1.0152 0.0, -3.0951 -1.0152 0.315, -3.1358 -1.0099 0.0, -3.1358 -1.0099 0.315
            ]
        }
        coordIndex [
            0,1,2,-1,0,2,3,-1,2,4,3,-1,3,4,5,-1,3,5,6,-1,7,8,9,-1,9,8,10,-1,9,10,11,-1,11,10,12,-1,11,12,13,-1,6,14,3,-1,3,14,15,-1,3,15,9,-1,9,15,16,-1,9,16,7,-1,17,18,19,-1,20,21,22,-1,17,19,20,-1,20,19,23,-1,20,23,21,-1,24,25,26,-1,26,25,27,-1,26,27,28,-1,28,27,29,-1,28,29,30,-1,22,31,20,-1,20,31,32,-1,20,32,26,-1,26,32,33,-1,26,33,24,-1,18,34,19,-1,19,34,35,-1,19,35,23,-1,23,35,36,-1,23,36,21,-1,21,36,37,-1,21,37,22,-1,22,37,38,-1,22,38,31,-1,31,38,39,-1,31,39,32,-1,32,39,40,-1,32,40,33,-1,33,40,41,-1,33,41,24,-1,24,41,42,-1,24,42,25,-1,25,42,43,-1,25,43,27,-1,27,43,44,-1,27,44,29,-1,29,44,45,-1,29,45,30,-1,30,45,46,-1,47,13,48,-1,48,13,12,-1,48,12,49,-1,49,12,10,-1,49,10,50,-1,50,10,8,-1,50,8,51,-1,51,8,7,-1,51,7,52,-1,52,7,16,-1,52,16,53,-1,53,16,15,-1,53,15,54,-1,54,15,14,-1,54,14,55,-1,55,14,6,-1,55,6,56,-1,56,6,5,-1,56,5,57,-1,57,5,4,-1,57,4,58,-1,58,4,2,-1,58,2,59,-1,59,2,1,-1,60,61,62,-1,62,61,63,-1,62,63,64,-1,64,63,65,-1,64,65,66,-1,66,65,67,-1,66,67,68,-1,68,67,69,-1,68,69,70,-1,70,69,71,-1,70,71,72,-1,72,71,73,-1,72,73,74,-1,74,73,75,-1,74,75,76,-1,76,75,77,-1,76,77,78,-1,78,77,79,-1,78,79,80,-1,80,79,81,-1,80,81,82,-1,82,81,83,-1,82,83,84,-1,84,83,85,-1,86,87,88,-1,88,87,89,-1,88,89,90,-1,90,89,91,-1,90,91,92,-1,92,91,93,-1,92,93,94,-1,94,93,95,-1,94,95,96,-1,96,95,97,-1,96,97,98,-1,98,97,99,-1,98,99,100,-1,100,99,101,-1,100,101,102,-1,102,101,103,-1,102,103,104,-1,104,103,105,-1,104,105,106,-1,106,105,107,-1,106,107,108,-1,108,107,109,-1,108,109,110,-1,110,109,111,-1,112,113,114,-1,114,113,115,-1,114,115,116,-1,116,115,117,-1,116,117,118,-1,118,117,119,-1,118,119,120,-1,120,119,121,-1,120,121,122,-1,122,121,123,-1,122,123,124,-1,124,123,125,-1,124,125,126,-1,126,125,127,-1,126,127,128,-1,128,127,129,-1,128,129,130,-1,130,129,131,-1,130,131,132,-1,132,131,133,-1,132,133,134,-1,134,133,135,-1,134,135,136,-1,136,135,137,-1,138,139,140,-1,140,139,141,-1,140,141,142,-1,142,141,143,-1,142,143,144,-1,144,143,145,-1,144,145,146,-1,146,145,147,-1,146,147,148,-1,148,147,149,-1,148,149,150,-1,150,149,151,-1,150,151,152,-1,152,151,153,-1,152,153,154,-1,154,153,155,-1,154,155,156,-1,156,155,157,-1,156,157,158,-1,158,157,159,-1,158,159,160,-1,160,159,161,-1,160,161,162,-1,162,161,163,-1,164,165,166,-1,166,165,167,-1,166,167,168,-1,168,167,169,-1,168,169,170,-1,170,169,171,-1,170,171,172,-1,172,171,173,-1,172,173,174,-1,174,173,175,-1,174,175,176,-1,176,175,177,-1,176,177,178,-1,178,177,179,-1,178,179,180,-1,180,179,181,-1,180,181,182,-1,182,181,183,-1,182,183,184,-1,184,183,185,-1,184,185,186,-1,186,185,187,-1,186,187,188,-1,188,187,189,-1,190,191,192,-1,192,191,193,-1,192,193,194,-1,194,193,195,-1,194,195,196,-1,196,195,197,-1,196,197,198,-1,198,197,199,-1,198,199,200,-1,200,199,201,-1,200,201,202,-1,202,201,203,-1,202,203,204,-1,204,203,205,-1,204,205,206,-1,206,205,207,-1,206,207,208,-1,208,207,209,-1,208,209,210,-1,210,209,211,-1,210,211,212,-1,212,211,213,-1,212,213,214,-1,214,213,215,-1,216,217,218,-1,218,217,219,-1,218,219,220,-1,220,219,221,-1,220,221,222,-1,222,221,223,-1,222,223,224,-1,224,223,225,-1,224,225,226,-1,226,225,227,-1,226,227,228,-1,228,227,229,-1,228,229,230,-1,230,229,231,-1,230,231,232,-1,232,231,233,-1,232,233,234,-1,234,233,235,-1,234,235,236,-1,236,235,237,-1,236,237,238,-1,238,237,239,-1,238,239,240,-1,240,239,241,-1,242,243,244,-1,244,243,245,-1,244,245,246,-1,246,245,247,-1,246,247,248,-1,248,247,249,-1,248,249,250,-1,250,249,251,-1,250,251,252,-1,252,251,253,-1,252,253,254,-1,254,253,255,-1,254,255,256,-1,256,255,257,-1,256,257,258,-1,258,257,259,-1,258,259,260,-1,260,259,261,-1,260,261,262,-1,262,261,263,-1,262,263,264,-1,264,263,265,-1,264,265,266,-1,266,265,267,-1,268,269,270,-1,270,269,271,-1,270,271,272,-1,272,271,273,-1,272,273,274,-1,274,273,275,-1,274,275,276,-1,276,275,277,-1,276,277,278,-1,278,277,279,-1,278,279,280,-1,280,279,281,-1,280,281,282,-1,282,281,283,-1,282,283,284,-1,284,283,285,-1,284,285,286,-1,286,285,287,-1,286,287,288,-1,288,287,289,-1,288,289,290,-1,290,289,291,-1,290,291,292,-1,292,291,293,-1,294,295,296,-1,296,295,297,-1,296,297,298,-1,298,297,299,-1,298,299,300,-1,300,299,301,-1,300,301,302,-1,302,301,303,-1,302,303,304,-1,304,303,305,-1,304,305,306,-1,306,305,307,-1,306,307,308,-1,308,307,309,-1,308,309,310,-1,310,309,311,-1,310,311,312,-1,312,311,313,-1,312,313,314,-1,314,313,315,-1,314,315,316,-1,316,315,317,-1,316,317,318,-1,318,317,319,-1,320,321,322,-1,322,321,323,-1,322,323,324,-1,324,323,325,-1,324,325,326,-1,326,325,327,-1,326,327,328,-1,328,327,329,-1,328,329,330,-1,330,329,331,-1,330,331,332,-1,332,331,333,-1,332,333,334,-1,334,333,335,-1,334,335,336,-1,336,335,337,-1,336,337,338,-1,338,337,339,-1,338,339,340,-1,340,339,341,-1,340,341,342,-1,342,341,343,-1,342,343,344,-1,344,343,345,-1,346,347,348,-1,348,347,349,-1,348,349,350,-1,350,349,351,-1,350,351,352,-1,352,351,353,-1,352,353,354,-1,354,353,355,-1,354,355,356,-1,356,355,357,-1,356,357,358,-1,358,357,359,-1,358,359,360,-1,360,359,361,-1,360,361,362,-1,362,361,363,-1,362,363,364,-1,364,363,365,-1,364,365,366,-1,366,365,367,-1,366,367,368,-1,368,367,369,-1,368,369,370,-1,370,369,371,-1,372,373,374,-1,374,373,375,-1,374,375,376,-1,376,375,377,-1,376,377,378,-1,378,377,379,-1,378,379,380,-1,380,379,381,-1,380,381,382,-1,382,381,383,-1,382,383,384,-1,384,383,385,-1,384,385,386,-1,386,385,387,-1,386,387,388,-1,388,387,389,-1,388,389,390,-1,390,389,391,-1,390,391,392,-1,392,391,393,-1,392,393,394,-1,394,393,395,-1,394,395,396,-1,396,395,397,-1,398,399,400,-1,400,399,401,-1,400,401,402,-1,402,401,403,-1,402,403,404,-1,404,403,405,-1,404,405,406,-1,406,405,407,-1,406,407,408,-1,408,407,409,-1,408,409,410,-1,410,409,411,-1,410,411,412,-1,412,411,413,-1,412,413,414,-1,414,413,415,-1,414,415,416,-1,416,415,417,-1,416,417,418,-1,418,417,419,-1,418,419,420,-1,420,419,421,-1,420,421,422,-1,422,421,423,-1,
        ]
    }
}
Shape{
    appearance Appearance {
        material  Material 	{
            diffuseColor 0.6470588235294118 0.6196078431372549 0.5882352941176471
            specularColor 0.45098039215686275 0.43529411764705883 0.4117647058823529
            ambientIntensity 0.6242
            transparency 0.0
            shininess 0.5
        }
    }
    geometry IndexedFaceSet {
        ccw TRUE
        solid FALSE
        coord DEF co Coordinate {
            point [
                -2.7421 1.8642 0.315, -2.7421 -3.0177 0.315, -2.7421 1.8642 1.1417, -2.7421 -3.0177 1.1417, -2.624 -3.1358 0.315, 2.6516 -3.1358 0.315, -2.624 -3.1358 1.1417, 2.6516 -3.1358 1.1417, 2.7697 3.0453 1.1417, 2.7697 -3.0177 1.1417, 2.7697 3.0453 0.315, 2.7697 -3.0177 0.315, -0.6555 3.1634 1.1417, 2.6516 3.1634 1.1417, -0.6555 3.1634 0.315, 2.6516 3.1634 0.315, -0.7736 3.0453 0.315, -0.7736 2.1004 0.315, -0.7736 3.0453 1.1417, -0.7736 2.1004 1.1417, -0.8917 1.9823 0.315, -2.624 1.9823 0.315, -0.8917 1.9823 1.1417, -2.624 1.9823 1.1417, 2.7657 3.0758 0.315, 2.7657 3.0758 1.1417, 2.7539 3.1043 0.315, 2.7539 3.1043 1.1417, 2.7351 3.1288 0.315, 2.7351 3.1288 1.1417, 2.7106 3.1475 0.315, 2.7106 3.1475 1.1417, 2.6821 3.1593 0.315, 2.6821 3.1593 1.1417, 2.6516 3.0453 1.2598, 2.6516 -3.0177 1.2598, 2.6821 -3.0177 1.2558, 2.6821 3.0453 1.2558, 2.7106 -3.0177 1.244, 2.7106 3.0453 1.244, 2.7351 -3.0177 1.2252, 2.7351 3.0453 1.2252, 2.7539 -3.0177 1.2008, 2.7539 3.0453 1.2008, 2.7657 -3.0177 1.1723, 2.7657 3.0453 1.1723, 2.6821 -3.1318 0.315, 2.6821 -3.1318 1.1417, 2.7106 -3.12 0.315, 2.7106 -3.12 1.1417, 2.7351 -3.1013 0.315, 2.7351 -3.1013 1.1417, 2.7539 -3.0768 0.315, 2.7539 -3.0768 1.1417, 2.7657 -3.0483 0.315, 2.7657 -3.0483 1.1417, 2.6516 3.1593 1.1723, 2.6811 3.1555 1.1723, 2.6811 3.0964 1.244, 2.6668 3.0717 1.2558, 2.6732 3.0669 1.2558, 2.6811 3.0532 1.2558, 2.6595 3.0748 1.2558, 2.6668 3.1023 1.244, 2.6732 3.1259 1.2252, 2.6516 3.0758 1.2558, 2.6933 3.087 1.244, 2.678 3.0605 1.2558, 2.7027 3.0748 1.244, 2.7086 3.0605 1.244, 2.6516 3.1043 1.244, 2.6516 3.1288 1.2252, 2.6516 3.1475 1.2008, 2.6933 3.1176 1.2252, 2.7106 3.1043 1.2252, 2.7239 3.087 1.2252, 2.7322 3.0669 1.2252, 2.678 3.1441 1.2008, 2.7027 3.1338 1.2008, 2.7239 3.1176 1.2008, 2.7401 3.0964 1.2008, 2.7504 3.0717 1.2008, 2.7086 3.1441 1.1723, 2.7322 3.1259 1.1723, 2.7504 3.1023 1.1723, 2.7618 3.0748 1.1723, 2.7618 -3.0473 1.1723, 2.7027 -3.0473 1.244, 2.678 -3.033 1.2558, 2.6732 -3.0394 1.2558, 2.6516 -3.0483 1.2558, 2.6595 -3.0473 1.2558, 2.6811 -3.0256 1.2558, 2.7086 -3.033 1.244, 2.7322 -3.0394 1.2252, 2.6933 -3.0595 1.244, 2.6668 -3.0442 1.2558, 2.6811 -3.0689 1.244, 2.6668 -3.0748 1.244, 2.6516 -3.0768 1.244, 2.7239 -3.0595 1.2252, 2.7106 -3.0768 1.2252, 2.6933 -3.0901 1.2252, 2.6732 -3.0984 1.2252, 2.6516 -3.1013 1.2252, 2.7504 -3.0442 1.2008, 2.7401 -3.0689 1.2008, 2.7239 -3.0901 1.2008, 2.7027 -3.1063 1.2008, 2.678 -3.1165 1.2008, 2.6516 -3.12 1.2008, 2.7504 -3.0748 1.1723, 2.7322 -3.0984 1.1723, 2.7086 -3.1165 1.1723, 2.6811 -3.1279 1.1723, 2.6516 -3.1318 1.1723, -0.6861 3.1593 0.315, -0.6861 3.1593 1.1417, -0.7146 3.1475 0.315, -0.7146 3.1475 1.1417, -0.739 3.1288 0.315, -0.739 3.1288 1.1417, -0.7578 3.1043 0.315, -0.7578 3.1043 1.1417, -0.7696 3.0758 0.315, -0.7696 3.0758 1.1417, -0.6555 3.0453 1.2598, -0.6555 3.0758 1.2558, -0.6555 3.1043 1.244, -0.6555 3.1288 1.2252, -0.6555 3.1475 1.2008, -0.6555 3.1593 1.1723, -2.624 -3.0177 1.2598, -2.624 -3.0483 1.2558, -2.624 -3.0768 1.244, -2.624 -3.1013 1.2252, -2.624 -3.12 1.2008, -2.624 -3.1318 1.1723, -2.7381 -3.0483 0.315, -2.7381 -3.0483 1.1417, -2.7263 -3.0768 0.315, -2.7263 -3.0768 1.1417, -2.7075 -3.1013 0.315, -2.7075 -3.1013 1.1417, -2.6831 -3.12 0.315, -2.6831 -3.12 1.1417, -2.6546 -3.1318 0.315, -2.6546 -3.1318 1.1417, -0.7696 3.0453 1.1723, -0.7657 3.0748 1.1723, -0.7067 3.0748 1.244, -0.682 3.0605 1.2558, -0.6771 3.0669 1.2558, -0.6634 3.0748 1.2558, -0.685 3.0532 1.2558, -0.7126 3.0605 1.244, -0.7362 3.0669 1.2252, -0.6861 3.0453 1.2558, -0.6973 3.087 1.244, -0.6708 3.0717 1.2558, -0.685 3.0964 1.244, -0.6708 3.1023 1.244, -0.7146 3.0453 1.244, -0.739 3.0453 1.2252, -0.7578 3.0453 1.2008, -0.7278 3.087 1.2252, -0.7146 3.1043 1.2252, -0.6973 3.1176 1.2252, -0.6771 3.1259 1.2252, -0.7543 3.0717 1.2008, -0.7441 3.0964 1.2008, -0.7278 3.1176 1.2008, -0.7067 3.1338 1.2008, -0.682 3.1441 1.2008, -0.7543 3.1023 1.1723, -0.7362 3.1259 1.1723, -0.7126 3.1441 1.1723, -0.685 3.1555 1.1723, -2.6536 -3.1279 1.1723, -2.6536 -3.0689 1.244, -2.6393 -3.0442 1.2558, -2.6456 -3.0394 1.2558, -2.6546 -3.0177 1.2558, -2.6536 -3.0256 1.2558, -2.6319 -3.0473 1.2558, -2.6393 -3.0748 1.244, -2.6456 -3.0984 1.2252, -2.6658 -3.0595 1.244, -2.6505 -3.033 1.2558, -2.6752 -3.0473 1.244, -2.6811 -3.033 1.244, -2.6831 -3.0177 1.244, -2.6658 -3.0901 1.2252, -2.6831 -3.0768 1.2252, -2.6964 -3.0595 1.2252, -2.7047 -3.0394 1.2252, -2.7075 -3.0177 1.2252, -2.6505 -3.1165 1.2008, -2.6752 -3.1063 1.2008, -2.6964 -3.0901 1.2008, -2.7126 -3.0689 1.2008, -2.7228 -3.0442 1.2008, -2.7263 -3.0177 1.2008, -2.6811 -3.1165 1.1723, -2.7047 -3.0984 1.1723, -2.7228 -3.0748 1.1723, -2.7342 -3.0473 1.1723, -2.7381 -3.0177 1.1723, -0.8612 1.9863 0.315, -0.8612 1.9863 1.1417, -0.8327 1.9981 0.315, -0.8327 1.9981 1.1417, -0.8082 2.0169 0.315, -0.8082 2.0169 1.1417, -0.7895 2.0413 0.315, -0.7895 2.0413 1.1417, -0.7777 2.0698 0.315, -0.7777 2.0698 1.1417, -0.6555 2.1004 1.2598, -0.6861 2.1004 1.2558, -0.7146 2.1004 1.244, -0.739 2.1004 1.2252, -0.7578 2.1004 1.2008, -0.7696 2.1004 1.1723, -2.624 1.8642 1.2598, -2.6546 1.8642 1.2558, -2.6831 1.8642 1.244, -2.7075 1.8642 1.2252, -2.7263 1.8642 1.2008, -2.7381 1.8642 1.1723, -2.6546 1.9782 0.315, -2.6546 1.9782 1.1417, -2.6831 1.9664 0.315, -2.6831 1.9664 1.1417, -2.7075 1.9477 0.315, -2.7075 1.9477 1.1417, -2.7263 1.9232 0.315, -2.7263 1.9232 1.1417, -2.7381 1.8947 0.315, -2.7381 1.8947 1.1417, -0.7738 2.0688 1.1723, -0.7624 2.0657 1.2008, -0.7442 2.0609 1.2252, -0.7206 2.0545 1.244, -0.6931 2.0471 1.2558, -0.6636 2.0392 1.2598, -0.786 2.0393 1.1723, -0.7758 2.0334 1.2008, -0.7595 2.024 1.2252, -0.7383 2.0118 1.244, -0.7136 1.9975 1.2558, -0.6872 1.9823 1.2598, -0.8054 2.014 1.1723, -0.797 2.0057 1.2008, -0.7838 1.9924 1.2252, -0.7665 1.9751 1.244, -0.7463 1.955 1.2558, -0.7247 1.9333 1.2598, -0.8307 1.9946 1.1723, -0.8248 1.9844 1.2008, -0.8154 1.9681 1.2252, -0.8032 1.9469 1.244, -0.7889 1.9223 1.2558, -0.7736 1.8958 1.2598, -0.8601 1.9824 1.1723, -0.8571 1.971 1.2008, -0.8522 1.9529 1.2252, -0.8459 1.9292 1.244, -0.8385 1.9017 1.2558, -0.8306 1.8722 1.2598, -0.8917 1.9782 1.1723, -0.8917 1.9664 1.2008, -0.8917 1.9477 1.2252, -0.8917 1.9232 1.244, -0.8917 1.8947 1.2558, -0.8917 1.8642 1.2598, -2.7342 1.8937 1.1723, -2.6752 1.8937 1.244, -2.6505 1.8794 1.2558, -2.6456 1.8858 1.2558, -2.624 1.8947 1.2558, -2.6319 1.8937 1.2558, -2.6536 1.8721 1.2558, -2.6811 1.8794 1.244, -2.7047 1.8858 1.2252, -2.6658 1.9059 1.244, -2.6393 1.8906 1.2558, -2.6536 1.9153 1.244, -2.6393 1.9212 1.244, -2.624 1.9232 1.244, -2.6964 1.9059 1.2252, -2.6831 1.9232 1.2252, -2.6658 1.9365 1.2252, -2.6456 1.9448 1.2252, -2.624 1.9477 1.2252, -2.7228 1.8906 1.2008, -2.7126 1.9153 1.2008, -2.6964 1.9365 1.2008, -2.6752 1.9527 1.2008, -2.6505 1.963 1.2008, -2.624 1.9664 1.2008, -2.7228 1.9212 1.1723, -2.7047 1.9448 1.1723, -2.6811 1.963 1.1723, -2.6536 1.9744 1.1723, -2.624 1.9782 1.1723
            ]
        }
        coordIndex [
            0,1,2,-1,2,1,3,-1,4,5,6,-1,6,5,7,-1,8,9,10,-1,10,9,11,-1,12,13,14,-1,14,13,15,-1,16,17,18,-1,18,17,19,-1,20,21,22,-1,22,21,23,-1,8,10,24,-1,8,24,25,-1,25,24,26,-1,25,26,27,-1,27,26,28,-1,27,28,29,-1,29,28,30,-1,29,30,31,-1,31,30,32,-1,31,32,33,-1,33,32,15,-1,33,15,13,-1,34,35,36,-1,34,36,37,-1,37,36,38,-1,37,38,39,-1,39,38,40,-1,39,40,41,-1,41,40,42,-1,41,42,43,-1,43,42,44,-1,43,44,45,-1,45,44,9,-1,45,9,8,-1,7,5,46,-1,7,46,47,-1,47,46,48,-1,47,48,49,-1,49,48,50,-1,49,50,51,-1,51,50,52,-1,51,52,53,-1,53,52,54,-1,53,54,55,-1,55,54,11,-1,55,11,9,-1,13,56,57,-1,58,59,60,-1,34,37,61,-1,60,59,34,-1,62,34,59,-1,62,59,63,-1,63,59,58,-1,63,58,64,-1,65,34,62,-1,66,67,68,-1,68,67,61,-1,68,61,69,-1,69,61,37,-1,69,37,39,-1,65,62,70,-1,70,62,63,-1,70,63,71,-1,71,63,64,-1,71,64,72,-1,73,66,74,-1,74,66,68,-1,74,68,75,-1,75,68,69,-1,75,69,76,-1,76,69,39,-1,76,39,41,-1,77,73,78,-1,78,73,74,-1,78,74,79,-1,79,74,75,-1,79,75,80,-1,80,75,76,-1,80,76,81,-1,81,76,41,-1,81,41,43,-1,56,77,57,-1,57,77,78,-1,57,78,82,-1,82,78,79,-1,82,79,83,-1,83,79,80,-1,83,80,84,-1,84,80,81,-1,84,81,85,-1,85,81,43,-1,85,43,45,-1,13,57,33,-1,33,57,82,-1,33,82,31,-1,31,82,83,-1,31,83,29,-1,29,83,84,-1,29,84,27,-1,27,84,85,-1,27,85,25,-1,25,85,45,-1,25,45,8,-1,67,34,61,-1,56,72,77,-1,77,72,64,-1,77,64,73,-1,73,64,58,-1,73,58,66,-1,66,58,60,-1,66,60,67,-1,67,60,34,-1,9,44,86,-1,87,88,89,-1,35,90,91,-1,89,88,35,-1,92,35,88,-1,92,88,93,-1,93,88,87,-1,93,87,94,-1,36,35,92,-1,95,96,97,-1,97,96,91,-1,97,91,98,-1,98,91,90,-1,98,90,99,-1,36,92,38,-1,38,92,93,-1,38,93,40,-1,40,93,94,-1,40,94,42,-1,100,95,101,-1,101,95,97,-1,101,97,102,-1,102,97,98,-1,102,98,103,-1,103,98,99,-1,103,99,104,-1,105,100,106,-1,106,100,101,-1,106,101,107,-1,107,101,102,-1,107,102,108,-1,108,102,103,-1,108,103,109,-1,109,103,104,-1,109,104,110,-1,44,105,86,-1,86,105,106,-1,86,106,111,-1,111,106,107,-1,111,107,112,-1,112,107,108,-1,112,108,113,-1,113,108,109,-1,113,109,114,-1,114,109,110,-1,114,110,115,-1,9,86,55,-1,55,86,111,-1,55,111,53,-1,53,111,112,-1,53,112,51,-1,51,112,113,-1,51,113,49,-1,49,113,114,-1,49,114,47,-1,47,114,115,-1,47,115,7,-1,96,35,91,-1,44,42,105,-1,105,42,94,-1,105,94,100,-1,100,94,87,-1,100,87,95,-1,95,87,89,-1,95,89,96,-1,96,89,35,-1,12,14,116,-1,12,116,117,-1,117,116,118,-1,117,118,119,-1,119,118,120,-1,119,120,121,-1,121,120,122,-1,121,122,123,-1,123,122,124,-1,123,124,125,-1,125,124,16,-1,125,16,18,-1,126,34,65,-1,126,65,127,-1,127,65,70,-1,127,70,128,-1,128,70,71,-1,128,71,129,-1,129,71,72,-1,129,72,130,-1,130,72,56,-1,130,56,131,-1,131,56,13,-1,131,13,12,-1,35,132,133,-1,35,133,90,-1,90,133,134,-1,90,134,99,-1,99,134,135,-1,99,135,104,-1,104,135,136,-1,104,136,110,-1,110,136,137,-1,110,137,115,-1,115,137,6,-1,115,6,7,-1,3,1,138,-1,3,138,139,-1,139,138,140,-1,139,140,141,-1,141,140,142,-1,141,142,143,-1,143,142,144,-1,143,144,145,-1,145,144,146,-1,145,146,147,-1,147,146,4,-1,147,4,6,-1,18,148,149,-1,150,151,152,-1,126,127,153,-1,152,151,126,-1,154,126,151,-1,154,151,155,-1,155,151,150,-1,155,150,156,-1,157,126,154,-1,158,159,160,-1,160,159,153,-1,160,153,161,-1,161,153,127,-1,161,127,128,-1,157,154,162,-1,162,154,155,-1,162,155,163,-1,163,155,156,-1,163,156,164,-1,165,158,166,-1,166,158,160,-1,166,160,167,-1,167,160,161,-1,167,161,168,-1,168,161,128,-1,168,128,129,-1,169,165,170,-1,170,165,166,-1,170,166,171,-1,171,166,167,-1,171,167,172,-1,172,167,168,-1,172,168,173,-1,173,168,129,-1,173,129,130,-1,148,169,149,-1,149,169,170,-1,149,170,174,-1,174,170,171,-1,174,171,175,-1,175,171,172,-1,175,172,176,-1,176,172,173,-1,176,173,177,-1,177,173,130,-1,177,130,131,-1,18,149,125,-1,125,149,174,-1,125,174,123,-1,123,174,175,-1,123,175,121,-1,121,175,176,-1,121,176,119,-1,119,176,177,-1,119,177,117,-1,117,177,131,-1,117,131,12,-1,159,126,153,-1,148,164,169,-1,169,164,156,-1,169,156,165,-1,165,156,150,-1,165,150,158,-1,158,150,152,-1,158,152,159,-1,159,152,126,-1,6,137,178,-1,179,180,181,-1,132,182,183,-1,181,180,132,-1,184,132,180,-1,184,180,185,-1,185,180,179,-1,185,179,186,-1,133,132,184,-1,187,188,189,-1,189,188,183,-1,189,183,190,-1,190,183,182,-1,190,182,191,-1,133,184,134,-1,134,184,185,-1,134,185,135,-1,135,185,186,-1,135,186,136,-1,192,187,193,-1,193,187,189,-1,193,189,194,-1,194,189,190,-1,194,190,195,-1,195,190,191,-1,195,191,196,-1,197,192,198,-1,198,192,193,-1,198,193,199,-1,199,193,194,-1,199,194,200,-1,200,194,195,-1,200,195,201,-1,201,195,196,-1,201,196,202,-1,137,197,178,-1,178,197,198,-1,178,198,203,-1,203,198,199,-1,203,199,204,-1,204,199,200,-1,204,200,205,-1,205,200,201,-1,205,201,206,-1,206,201,202,-1,206,202,207,-1,6,178,147,-1,147,178,203,-1,147,203,145,-1,145,203,204,-1,145,204,143,-1,143,204,205,-1,143,205,141,-1,141,205,206,-1,141,206,139,-1,139,206,207,-1,139,207,3,-1,188,132,183,-1,137,136,197,-1,197,136,186,-1,197,186,192,-1,192,186,179,-1,192,179,187,-1,187,179,181,-1,187,181,188,-1,188,181,132,-1,20,22,208,-1,208,22,209,-1,208,209,210,-1,210,209,211,-1,210,211,212,-1,212,211,213,-1,212,213,214,-1,214,213,215,-1,214,215,216,-1,216,215,217,-1,216,217,17,-1,17,217,19,-1,218,126,157,-1,218,157,219,-1,219,157,162,-1,219,162,220,-1,220,162,163,-1,220,163,221,-1,221,163,164,-1,221,164,222,-1,222,164,148,-1,222,148,223,-1,223,148,18,-1,223,18,19,-1,132,224,225,-1,132,225,182,-1,182,225,226,-1,182,226,191,-1,191,226,227,-1,191,227,196,-1,196,227,228,-1,196,228,202,-1,202,228,229,-1,202,229,207,-1,207,229,2,-1,207,2,3,-1,23,21,230,-1,23,230,231,-1,231,230,232,-1,231,232,233,-1,233,232,234,-1,233,234,235,-1,235,234,236,-1,235,236,237,-1,237,236,238,-1,237,238,239,-1,239,238,0,-1,239,0,2,-1,19,217,223,-1,223,217,240,-1,223,240,222,-1,222,240,241,-1,222,241,221,-1,221,241,242,-1,221,242,220,-1,220,242,243,-1,220,243,219,-1,219,243,244,-1,219,244,218,-1,218,244,245,-1,217,215,240,-1,240,215,246,-1,240,246,241,-1,241,246,247,-1,241,247,242,-1,242,247,248,-1,242,248,243,-1,243,248,249,-1,243,249,244,-1,244,249,250,-1,244,250,245,-1,245,250,251,-1,215,213,246,-1,246,213,252,-1,246,252,247,-1,247,252,253,-1,247,253,248,-1,248,253,254,-1,248,254,249,-1,249,254,255,-1,249,255,250,-1,250,255,256,-1,250,256,251,-1,251,256,257,-1,213,211,252,-1,252,211,258,-1,252,258,253,-1,253,258,259,-1,253,259,254,-1,254,259,260,-1,254,260,255,-1,255,260,261,-1,255,261,256,-1,256,261,262,-1,256,262,257,-1,257,262,263,-1,211,209,258,-1,258,209,264,-1,258,264,259,-1,259,264,265,-1,259,265,260,-1,260,265,266,-1,260,266,261,-1,261,266,267,-1,261,267,262,-1,262,267,268,-1,262,268,263,-1,263,268,269,-1,209,22,264,-1,264,22,270,-1,264,270,265,-1,265,270,271,-1,265,271,266,-1,266,271,272,-1,266,272,267,-1,267,272,273,-1,267,273,268,-1,268,273,274,-1,268,274,269,-1,269,274,275,-1,2,229,276,-1,277,278,279,-1,224,280,281,-1,279,278,224,-1,282,224,278,-1,282,278,283,-1,283,278,277,-1,283,277,284,-1,225,224,282,-1,285,286,287,-1,287,286,281,-1,287,281,288,-1,288,281,280,-1,288,280,289,-1,225,282,226,-1,226,282,283,-1,226,283,227,-1,227,283,284,-1,227,284,228,-1,290,285,291,-1,291,285,287,-1,291,287,292,-1,292,287,288,-1,292,288,293,-1,293,288,289,-1,293,289,294,-1,295,290,296,-1,296,290,291,-1,296,291,297,-1,297,291,292,-1,297,292,298,-1,298,292,293,-1,298,293,299,-1,299,293,294,-1,299,294,300,-1,229,295,276,-1,276,295,296,-1,276,296,301,-1,301,296,297,-1,301,297,302,-1,302,297,298,-1,302,298,303,-1,303,298,299,-1,303,299,304,-1,304,299,300,-1,304,300,305,-1,2,276,239,-1,239,276,301,-1,239,301,237,-1,237,301,302,-1,237,302,235,-1,235,302,303,-1,235,303,233,-1,233,303,304,-1,233,304,231,-1,231,304,305,-1,231,305,23,-1,286,224,281,-1,229,228,295,-1,295,228,284,-1,295,284,290,-1,290,284,277,-1,290,277,285,-1,285,277,279,-1,285,279,286,-1,286,279,224,-1,224,275,274,-1,224,274,280,-1,280,274,273,-1,280,273,289,-1,289,273,272,-1,289,272,294,-1,294,272,271,-1,294,271,300,-1,300,271,270,-1,300,270,305,-1,305,270,22,-1,305,22,23,-1,
        ]
    }
}
Shape{
    appearance Appearance {
        material  Material 	{
            diffuseColor 0.7019607843137254 0.7019607843137254 0.7019607843137254
            specularColor 0.050980392156862744 0.050980392156862744 0.050980392156862744
            ambientIntensity 1.0
            transparency 0.0
            shininess 0.5
        }
    }
    geometry IndexedFaceSet {
        ccw TRUE
        solid FALSE
        coord DEF co Coordinate {
            point [
                -2.3484 2.376 0.3937, -2.3484 3.1634 0.3937, -2.3484 2.376 0.315, -2.3484 3.1634 0.315, -1.561 2.376 0.3937, -1.561 2.376 0.315, -1.561 3.1634 0.3937, -1.561 3.1634 0.315, -2.1319 2.4628 0.3937, -2.2053 2.5191 0.3937, -2.2616 2.5925 0.3937, -1.7042 2.5191 0.3937, -1.7776 2.4628 0.3937, -1.6479 2.5925 0.3937, -1.7776 3.0765 0.3937, -1.7042 3.0202 0.3937, -1.6479 2.9468 0.3937, -1.863 2.4274 0.3937, -1.9547 2.4153 0.3937, -2.0464 2.4274 0.3937, -2.297 2.678 0.3937, -2.3091 2.7697 0.3937, -2.297 2.8614 0.3937, -2.2616 2.9468 0.3937, -2.2053 3.0202 0.3937, -2.1319 3.0765 0.3937, -1.6125 2.8614 0.3937, -1.6004 2.7697 0.3937, -1.6125 2.678 0.3937, -2.0464 3.1119 0.3937, -1.9547 3.124 0.3937, -1.863 3.1119 0.3937
            ]
        }
        coordIndex [
            0,1,2,-1,2,1,3,-1,4,0,5,-1,5,0,2,-1,6,4,7,-1,7,4,5,-1,1,6,3,-1,3,6,7,-1,8,9,0,-1,0,9,10,-1,11,12,4,-1,11,4,13,-1,14,15,6,-1,6,15,16,-1,12,17,4,-1,4,17,18,-1,4,18,0,-1,0,18,19,-1,0,19,8,-1,10,20,0,-1,0,20,21,-1,0,21,1,-1,1,21,22,-1,22,23,1,-1,1,23,24,-1,1,24,25,-1,16,26,6,-1,6,26,27,-1,6,27,4,-1,4,27,28,-1,4,28,13,-1,25,29,1,-1,1,29,30,-1,1,30,6,-1,6,30,31,-1,6,31,14,-1,
        ]
    }
}
Shape{
    appearance Appearance {
        material  Material 	{
            diffuseColor 0.6470588235294118 0.5176470588235295 0.0
            specularColor 0.45098039215686275 0.3607843137254902 0.0
            ambientIntensity 0.4973
            transparency 0.0
            shininess 0.5
        }
    }
    geometry IndexedFaceSet {
        ccw TRUE
        solid FALSE
        coord DEF co Coordinate {
            point [
                -2.2894 2.7697 0.7087, -2.2894 2.7697 0.3937, -2.278 2.8563 0.7087, -2.278 2.8563 0.3937, -2.2445 2.937 0.7087, -2.2445 2.937 0.3937, -2.1914 3.0063 0.7087, -2.1914 3.0063 0.3937, -2.1221 3.0595 0.7087, -2.1221 3.0595 0.3937, -2.0413 3.0929 0.7087, -2.0413 3.0929 0.3937, -1.9547 3.1043 0.7087, -1.9547 3.1043 0.3937, -1.8681 3.0929 0.7087, -1.8681 3.0929 0.3937, -1.7874 3.0595 0.7087, -1.7874 3.0595 0.3937, -1.7181 3.0063 0.7087, -1.7181 3.0063 0.3937, -1.6649 2.937 0.7087, -1.6649 2.937 0.3937, -1.6315 2.8563 0.7087, -1.6315 2.8563 0.3937, -1.6201 2.7697 0.7087, -1.6201 2.7697 0.3937, -1.6315 2.6831 0.7087, -1.6315 2.6831 0.3937, -1.6649 2.6023 0.7087, -1.6649 2.6023 0.3937, -1.7181 2.533 0.7087, -1.7181 2.533 0.3937, -1.7874 2.4799 0.7087, -1.7874 2.4799 0.3937, -1.8681 2.4464 0.7087, -1.8681 2.4464 0.3937, -1.9547 2.435 0.7087, -1.9547 2.435 0.3937, -2.0413 2.4464 0.7087, -2.0413 2.4464 0.3937, -2.1221 2.4799 0.7087, -2.1221 2.4799 0.3937, -2.1914 2.533 0.7087, -2.1914 2.533 0.3937, -2.2445 2.6023 0.7087, -2.2445 2.6023 0.3937, -2.278 2.6831 0.7087, -2.278 2.6831 0.3937, -2.3091 2.7697 0.3937, -2.297 2.8614 0.7087, -2.297 2.8614 0.3937, -2.2616 2.9468 0.7087, -2.2616 2.9468 0.3937, -2.2053 3.0202 0.7087, -2.2053 3.0202 0.3937, -2.1319 3.0765 0.7087, -2.1319 3.0765 0.3937, -2.0464 3.1119 0.7087, -2.0464 3.1119 0.3937, -1.9547 3.124 0.7087, -1.9547 3.124 0.3937, -1.863 3.1119 0.7087, -1.863 3.1119 0.3937, -1.7776 3.0765 0.7087, -1.7776 3.0765 0.3937, -1.7042 3.0202 0.7087, -1.7042 3.0202 0.3937, -1.6479 2.9468 0.7087, -1.6479 2.9468 0.3937, -1.6125 2.8614 0.7087, -1.6125 2.8614 0.3937, -1.6004 2.7697 0.7087, -1.6004 2.7697 0.3937, -1.6125 2.678 0.7087, -1.6125 2.678 0.3937, -1.6479 2.5925 0.7087, -1.6479 2.5925 0.3937, -1.7042 2.5191 0.7087, -1.7042 2.5191 0.3937, -1.7776 2.4628 0.7087, -1.7776 2.4628 0.3937, -1.863 2.4274 0.7087, -1.863 2.4274 0.3937, -1.9547 2.4153 0.7087, -1.9547 2.4153 0.3937, -2.0464 2.4274 0.7087, -2.0464 2.4274 0.3937, -2.1319 2.4628 0.7087, -2.1319 2.4628 0.3937, -2.2053 2.5191 0.7087, -2.2053 2.5191 0.3937, -2.2616 2.5925 0.7087, -2.2616 2.5925 0.3937, -2.297 2.678 0.7087, -2.297 2.678 0.3937, -2.3091 2.7697 0.7087, -1.9377 2.7598 0.7087, -1.9357 2.7646 0.7087, -1.9547 2.7697 0.7087, -1.935 2.7697 0.7087, -1.9357 2.7748 0.7087, -1.9496 2.7507 0.7087, -1.9449 2.7526 0.7087, -1.9408 2.7557 0.7087, -1.9646 2.7526 0.7087, -1.9598 2.7507 0.7087, -1.9547 2.75 0.7087, -1.9737 2.7646 0.7087, -1.9718 2.7598 0.7087, -1.9687 2.7557 0.7087, -1.9718 2.7795 0.7087, -1.9737 2.7748 0.7087, -1.9744 2.7697 0.7087, -1.9598 2.7887 0.7087, -1.9646 2.7867 0.7087, -1.9687 2.7836 0.7087, -1.9449 2.7867 0.7087, -1.9496 2.7887 0.7087, -1.9547 2.7894 0.7087, -1.9377 2.7795 0.7087, -1.9408 2.7836 0.7087, -2.0925 2.7697 0.3937, -2.0878 2.8053 0.5906, -2.0878 2.8053 0.3937, -2.0741 2.8386 0.5906, -2.0741 2.8386 0.3937, -2.0522 2.8671 0.5906, -2.0522 2.8671 0.3937, -2.0236 2.889 0.5906, -2.0236 2.889 0.3937, -1.9904 2.9028 0.5906, -1.9904 2.9028 0.3937, -1.9547 2.9075 0.5906, -1.9547 2.9075 0.3937, -1.9191 2.9028 0.5906, -1.9191 2.9028 0.3937, -1.8858 2.889 0.5906, -1.8858 2.889 0.3937, -1.8573 2.8671 0.5906, -1.8573 2.8671 0.3937, -1.8354 2.8386 0.5906, -1.8354 2.8386 0.3937, -1.8216 2.8053 0.5906, -1.8216 2.8053 0.3937, -1.8169 2.7697 0.5906, -1.8169 2.7697 0.3937, -1.8216 2.734 0.5906, -1.8216 2.734 0.3937, -1.8354 2.7008 0.5906, -1.8354 2.7008 0.3937, -1.8573 2.6722 0.5906, -1.8573 2.6722 0.3937, -1.8858 2.6503 0.5906, -1.8858 2.6503 0.3937, -1.9191 2.6366 0.5906, -1.9191 2.6366 0.3937, -1.9547 2.6319 0.5906, -1.9547 2.6319 0.3937, -1.9904 2.6366 0.5906, -1.9904 2.6366 0.3937, -2.0236 2.6503 0.5906, -2.0236 2.6503 0.3937, -2.0522 2.6722 0.5906, -2.0522 2.6722 0.3937, -2.0741 2.7008 0.5906, -2.0741 2.7008 0.3937, -2.0878 2.734 0.5906, -2.0878 2.734 0.3937, -2.0925 2.7697 0.5906
            ]
        }
        coordIndex [
            0,1,2,-1,2,1,3,-1,2,3,4,-1,4,3,5,-1,4,5,6,-1,6,5,7,-1,6,7,8,-1,8,7,9,-1,8,9,10,-1,10,9,11,-1,10,11,12,-1,12,11,13,-1,12,13,14,-1,14,13,15,-1,14,15,16,-1,16,15,17,-1,16,17,18,-1,18,17,19,-1,18,19,20,-1,20,19,21,-1,20,21,22,-1,22,21,23,-1,22,23,24,-1,24,23,25,-1,24,25,26,-1,26,25,27,-1,26,27,28,-1,28,27,29,-1,28,29,30,-1,30,29,31,-1,30,31,32,-1,32,31,33,-1,32,33,34,-1,34,33,35,-1,34,35,36,-1,36,35,37,-1,36,37,38,-1,38,37,39,-1,38,39,40,-1,40,39,41,-1,40,41,42,-1,42,41,43,-1,42,43,44,-1,44,43,45,-1,44,45,46,-1,46,45,47,-1,46,47,0,-1,0,47,1,-1,48,49,50,-1,50,49,51,-1,50,51,52,-1,52,51,53,-1,52,53,54,-1,54,53,55,-1,54,55,56,-1,56,55,57,-1,56,57,58,-1,58,57,59,-1,58,59,60,-1,60,59,61,-1,60,61,62,-1,62,61,63,-1,62,63,64,-1,64,63,65,-1,64,65,66,-1,66,65,67,-1,66,67,68,-1,68,67,69,-1,68,69,70,-1,70,69,71,-1,70,71,72,-1,72,71,73,-1,72,73,74,-1,74,73,75,-1,74,75,76,-1,76,75,77,-1,76,77,78,-1,78,77,79,-1,78,79,80,-1,80,79,81,-1,80,81,82,-1,82,81,83,-1,82,83,84,-1,84,83,85,-1,84,85,86,-1,86,85,87,-1,86,87,88,-1,88,87,89,-1,88,89,90,-1,90,89,91,-1,90,91,92,-1,92,91,93,-1,92,93,94,-1,94,93,95,-1,94,95,48,-1,48,95,49,-1,12,59,10,-1,10,59,57,-1,10,57,8,-1,8,57,55,-1,8,55,6,-1,6,55,53,-1,6,53,4,-1,4,53,51,-1,4,51,2,-1,2,51,49,-1,2,49,0,-1,0,49,95,-1,0,95,46,-1,46,95,93,-1,46,93,44,-1,44,93,91,-1,44,91,42,-1,42,91,89,-1,42,89,40,-1,40,89,87,-1,40,87,38,-1,38,87,85,-1,38,85,36,-1,36,85,83,-1,36,83,34,-1,34,83,81,-1,34,81,32,-1,32,81,79,-1,32,79,30,-1,30,79,77,-1,30,77,28,-1,28,77,75,-1,28,75,26,-1,26,75,73,-1,26,73,24,-1,24,73,71,-1,24,71,22,-1,22,71,69,-1,22,69,20,-1,20,69,67,-1,20,67,18,-1,18,67,65,-1,18,65,16,-1,16,65,63,-1,16,63,14,-1,14,63,61,-1,14,61,12,-1,12,61,59,-1,96,97,98,-1,98,97,99,-1,98,99,100,-1,101,102,98,-1,98,102,103,-1,98,103,96,-1,104,105,98,-1,98,105,106,-1,98,106,101,-1,107,108,98,-1,98,108,109,-1,98,109,104,-1,110,111,98,-1,98,111,112,-1,98,112,107,-1,113,114,98,-1,98,114,115,-1,98,115,110,-1,116,117,98,-1,98,117,118,-1,98,118,113,-1,100,119,98,-1,98,119,120,-1,98,120,116,-1,121,122,123,-1,123,122,124,-1,123,124,125,-1,125,124,126,-1,125,126,127,-1,127,126,128,-1,127,128,129,-1,129,128,130,-1,129,130,131,-1,131,130,132,-1,131,132,133,-1,133,132,134,-1,133,134,135,-1,135,134,136,-1,135,136,137,-1,137,136,138,-1,137,138,139,-1,139,138,140,-1,139,140,141,-1,141,140,142,-1,141,142,143,-1,143,142,144,-1,143,144,145,-1,145,144,146,-1,145,146,147,-1,147,146,148,-1,147,148,149,-1,149,148,150,-1,149,150,151,-1,151,150,152,-1,151,152,153,-1,153,152,154,-1,153,154,155,-1,155,154,156,-1,155,156,157,-1,157,156,158,-1,157,158,159,-1,159,158,160,-1,159,160,161,-1,161,160,162,-1,161,162,163,-1,163,162,164,-1,163,164,165,-1,165,164,166,-1,165,166,167,-1,167,166,168,-1,167,168,121,-1,121,168,122,-1,
        ]
    }
}
Shape{
    appearance Appearance {
        material  Material 	{
            diffuseColor 0.7019607843137254 0.7019607843137254 0.7019607843137254
            specularColor 0.050980392156862744 0.050980392156862744 0.050980392156862744
            ambientIntensity 1.0
            transparency 0.0
            shininess 0.5
        }
    }
    geometry IndexedFaceSet {
        ccw TRUE
        solid FALSE
        coord DEF co Coordinate {
            point [
                -1.8216 2.8053 0.3937, -1.6315 2.8563 0.3937, -1.8354 2.8386 0.3937, -1.6649 2.937 0.3937, -1.8573 2.8671 0.3937, -1.7181 3.0063 0.3937, -1.8858 2.889 0.3937, -1.7874 3.0595 0.3937, -1.9191 2.9028 0.3937, -1.8681 3.0929 0.3937, -1.9547 2.9075 0.3937, -1.9547 3.1043 0.3937, -1.9904 2.9028 0.3937, -2.0413 3.0929 0.3937, -2.0236 2.889 0.3937, -2.1221 3.0595 0.3937, -2.0522 2.8671 0.3937, -2.1914 3.0063 0.3937, -2.0741 2.8386 0.3937, -2.2445 2.937 0.3937, -2.0878 2.8053 0.3937, -2.278 2.8563 0.3937, -2.0925 2.7697 0.3937, -2.2894 2.7697 0.3937, -2.0878 2.734 0.3937, -2.278 2.6831 0.3937, -2.0741 2.7008 0.3937, -2.2445 2.6023 0.3937, -2.0522 2.6722 0.3937, -2.1914 2.533 0.3937, -2.0236 2.6503 0.3937, -2.1221 2.4799 0.3937, -1.9904 2.6366 0.3937, -2.0413 2.4464 0.3937, -1.9547 2.6319 0.3937, -1.9547 2.435 0.3937, -1.9191 2.6366 0.3937, -1.8681 2.4464 0.3937, -1.8858 2.6503 0.3937, -1.7874 2.4799 0.3937, -1.8573 2.6722 0.3937, -1.7181 2.533 0.3937, -1.8354 2.7008 0.3937, -1.6649 2.6023 0.3937, -1.8216 2.734 0.3937, -1.6315 2.6831 0.3937, -1.8169 2.7697 0.3937, -1.6201 2.7697 0.3937
            ]
        }
        coordIndex [
            0,1,2,-1,2,1,3,-1,2,3,4,-1,4,3,5,-1,4,5,6,-1,6,5,7,-1,6,7,8,-1,8,7,9,-1,8,9,10,-1,10,9,11,-1,10,11,12,-1,12,11,13,-1,12,13,14,-1,14,13,15,-1,14,15,16,-1,16,15,17,-1,16,17,18,-1,18,17,19,-1,18,19,20,-1,20,19,21,-1,20,21,22,-1,22,21,23,-1,22,23,24,-1,24,23,25,-1,24,25,26,-1,26,25,27,-1,26,27,28,-1,28,27,29,-1,28,29,30,-1,30,29,31,-1,30,31,32,-1,32,31,33,-1,32,33,34,-1,34,33,35,-1,34,35,36,-1,36,35,37,-1,36,37,38,-1,38,37,39,-1,38,39,40,-1,40,39,41,-1,40,41,42,-1,42,41,43,-1,42,43,44,-1,44,43,45,-1,44,45,46,-1,46,45,47,-1,46,47,0,-1,0,47,1,-1,
        ]
    }
}
Shape{
    appearance Appearance {
        material  Material 	{
            diffuseColor 0.6470588235294118 0.5176470588235295 0.0
            specularColor 0.45098039215686275 0.3607843137254902 0.0
            ambientIntensity 0.4973
            transparency 0.0
            shininess 0.5
        }
    }
    geometry IndexedFaceSet {
        ccw TRUE
        solid FALSE
        coord DEF co Coordinate {
            point [
                -1.935 2.7697 0.7087, -1.9062 2.7827 0.7046, -1.9357 2.7748 0.7087, -1.9112 2.7948 0.7046, -1.9377 2.7795 0.7087, -1.9192 2.8052 0.7046, -1.9408 2.7836 0.7087, -1.9296 2.8132 0.7046, -1.9449 2.7867 0.7087, -1.9417 2.8182 0.7046, -1.9496 2.7887 0.7087, -1.9547 2.8199 0.7046, -1.9547 2.7894 0.7087, -1.9677 2.8182 0.7046, -1.9598 2.7887 0.7087, -1.9799 2.8132 0.7046, -1.9646 2.7867 0.7087, -1.9903 2.8052 0.7046, -1.9687 2.7836 0.7087, -1.9983 2.7948 0.7046, -1.9718 2.7795 0.7087, -2.0033 2.7827 0.7046, -1.9737 2.7748 0.7087, -2.005 2.7697 0.7046, -1.9744 2.7697 0.7087, -2.0033 2.7567 0.7046, -1.9737 2.7646 0.7087, -1.9983 2.7445 0.7046, -1.9718 2.7598 0.7087, -1.9903 2.7341 0.7046, -1.9687 2.7557 0.7087, -1.9799 2.7261 0.7046, -1.9646 2.7526 0.7087, -1.9677 2.7211 0.7046, -1.9598 2.7507 0.7087, -1.9547 2.7194 0.7046, -1.9547 2.75 0.7087, -1.9417 2.7211 0.7046, -1.9496 2.7507 0.7087, -1.9296 2.7261 0.7046, -1.9449 2.7526 0.7087, -1.9192 2.7341 0.7046, -1.9408 2.7557 0.7087, -1.9112 2.7445 0.7046, -1.9377 2.7598 0.7087, -1.9062 2.7567 0.7046, -1.9357 2.7646 0.7087, -1.9045 2.7697 0.7046, -1.8787 2.79 0.6928, -1.8865 2.809 0.6928, -1.8991 2.8253 0.6928, -1.9154 2.8379 0.6928, -1.9344 2.8457 0.6928, -1.9547 2.8484 0.6928, -1.9751 2.8457 0.6928, -1.9941 2.8379 0.6928, -2.0104 2.8253 0.6928, -2.0229 2.809 0.6928, -2.0308 2.79 0.6928, -2.0335 2.7697 0.6928, -2.0308 2.7493 0.6928, -2.0229 2.7303 0.6928, -2.0104 2.714 0.6928, -1.9941 2.7015 0.6928, -1.9751 2.6936 0.6928, -1.9547 2.6909 0.6928, -1.9344 2.6936 0.6928, -1.9154 2.7015 0.6928, -1.8991 2.714 0.6928, -1.8865 2.7303 0.6928, -1.8787 2.7493 0.6928, -1.876 2.7697 0.6928, -1.855 2.7964 0.6741, -1.8654 2.8213 0.6741, -1.8818 2.8426 0.6741, -1.9031 2.859 0.6741, -1.928 2.8694 0.6741, -1.9547 2.8729 0.6741, -1.9814 2.8694 0.6741, -2.0063 2.859 0.6741, -2.0277 2.8426 0.6741, -2.0441 2.8213 0.6741, -2.0544 2.7964 0.6741, -2.0579 2.7697 0.6741, -2.0544 2.743 0.6741, -2.0441 2.7181 0.6741, -2.0277 2.6967 0.6741, -2.0063 2.6803 0.6741, -1.9814 2.67 0.6741, -1.9547 2.6665 0.6741, -1.928 2.67 0.6741, -1.9031 2.6803 0.6741, -1.8818 2.6967 0.6741, -1.8654 2.7181 0.6741, -1.855 2.743 0.6741, -1.8515 2.7697 0.6741, -1.8369 2.8012 0.6496, -1.8491 2.8307 0.6496, -1.8685 2.8559 0.6496, -1.8937 2.8753 0.6496, -1.9232 2.8875 0.6496, -1.9547 2.8916 0.6496, -1.9863 2.8875 0.6496, -2.0157 2.8753 0.6496, -2.041 2.8559 0.6496, -2.0604 2.8307 0.6496, -2.0725 2.8012 0.6496, -2.0767 2.7697 0.6496, -2.0725 2.7381 0.6496, -2.0604 2.7087 0.6496, -2.041 2.6834 0.6496, -2.0157 2.664 0.6496, -1.9863 2.6519 0.6496, -1.9547 2.6477 0.6496, -1.9232 2.6519 0.6496, -1.8937 2.664 0.6496, -1.8685 2.6834 0.6496, -1.8491 2.7087 0.6496, -1.8369 2.7381 0.6496, -1.8328 2.7697 0.6496, -1.8255 2.8043 0.6211, -1.8389 2.8366 0.6211, -1.8601 2.8643 0.6211, -1.8878 2.8855 0.6211, -1.9201 2.8989 0.6211, -1.9547 2.9034 0.6211, -1.9894 2.8989 0.6211, -2.0216 2.8855 0.6211, -2.0493 2.8643 0.6211, -2.0706 2.8366 0.6211, -2.0839 2.8043 0.6211, -2.0885 2.7697 0.6211, -2.0839 2.735 0.6211, -2.0706 2.7028 0.6211, -2.0493 2.6751 0.6211, -2.0216 2.6538 0.6211, -1.9894 2.6405 0.6211, -1.9547 2.6359 0.6211, -1.9201 2.6405 0.6211, -1.8878 2.6538 0.6211, -1.8601 2.6751 0.6211, -1.8389 2.7028 0.6211, -1.8255 2.735 0.6211, -1.821 2.7697 0.6211, -1.8216 2.8053 0.5906, -1.8354 2.8386 0.5906, -1.8573 2.8671 0.5906, -1.8858 2.889 0.5906, -1.9191 2.9028 0.5906, -1.9547 2.9075 0.5906, -1.9904 2.9028 0.5906, -2.0236 2.889 0.5906, -2.0522 2.8671 0.5906, -2.0741 2.8386 0.5906, -2.0878 2.8053 0.5906, -2.0925 2.7697 0.5906, -2.0878 2.734 0.5906, -2.0741 2.7008 0.5906, -2.0522 2.6722 0.5906, -2.0236 2.6503 0.5906, -1.9904 2.6366 0.5906, -1.9547 2.6319 0.5906, -1.9191 2.6366 0.5906, -1.8858 2.6503 0.5906, -1.8573 2.6722 0.5906, -1.8354 2.7008 0.5906, -1.8216 2.734 0.5906, -1.8169 2.7697 0.5906
            ]
        }
        coordIndex [
            0,1,2,-1,2,1,3,-1,2,3,4,-1,4,3,5,-1,4,5,6,-1,6,5,7,-1,6,7,8,-1,8,7,9,-1,8,9,10,-1,10,9,11,-1,10,11,12,-1,12,11,13,-1,12,13,14,-1,14,13,15,-1,14,15,16,-1,16,15,17,-1,16,17,18,-1,18,17,19,-1,18,19,20,-1,20,19,21,-1,20,21,22,-1,22,21,23,-1,22,23,24,-1,24,23,25,-1,24,25,26,-1,26,25,27,-1,26,27,28,-1,28,27,29,-1,28,29,30,-1,30,29,31,-1,30,31,32,-1,32,31,33,-1,32,33,34,-1,34,33,35,-1,34,35,36,-1,36,35,37,-1,36,37,38,-1,38,37,39,-1,38,39,40,-1,40,39,41,-1,40,41,42,-1,42,41,43,-1,42,43,44,-1,44,43,45,-1,44,45,46,-1,46,45,47,-1,46,47,0,-1,0,47,1,-1,47,48,1,-1,1,48,49,-1,1,49,3,-1,3,49,50,-1,3,50,5,-1,5,50,51,-1,5,51,7,-1,7,51,52,-1,7,52,9,-1,9,52,53,-1,9,53,11,-1,11,53,54,-1,11,54,13,-1,13,54,55,-1,13,55,15,-1,15,55,56,-1,15,56,17,-1,17,56,57,-1,17,57,19,-1,19,57,58,-1,19,58,21,-1,21,58,59,-1,21,59,23,-1,23,59,60,-1,23,60,25,-1,25,60,61,-1,25,61,27,-1,27,61,62,-1,27,62,29,-1,29,62,63,-1,29,63,31,-1,31,63,64,-1,31,64,33,-1,33,64,65,-1,33,65,35,-1,35,65,66,-1,35,66,37,-1,37,66,67,-1,37,67,39,-1,39,67,68,-1,39,68,41,-1,41,68,69,-1,41,69,43,-1,43,69,70,-1,43,70,45,-1,45,70,71,-1,45,71,47,-1,47,71,48,-1,71,72,48,-1,48,72,73,-1,48,73,49,-1,49,73,74,-1,49,74,50,-1,50,74,75,-1,50,75,51,-1,51,75,76,-1,51,76,52,-1,52,76,77,-1,52,77,53,-1,53,77,78,-1,53,78,54,-1,54,78,79,-1,54,79,55,-1,55,79,80,-1,55,80,56,-1,56,80,81,-1,56,81,57,-1,57,81,82,-1,57,82,58,-1,58,82,83,-1,58,83,59,-1,59,83,84,-1,59,84,60,-1,60,84,85,-1,60,85,61,-1,61,85,86,-1,61,86,62,-1,62,86,87,-1,62,87,63,-1,63,87,88,-1,63,88,64,-1,64,88,89,-1,64,89,65,-1,65,89,90,-1,65,90,66,-1,66,90,91,-1,66,91,67,-1,67,91,92,-1,67,92,68,-1,68,92,93,-1,68,93,69,-1,69,93,94,-1,69,94,70,-1,70,94,95,-1,70,95,71,-1,71,95,72,-1,95,96,72,-1,72,96,97,-1,72,97,73,-1,73,97,98,-1,73,98,74,-1,74,98,99,-1,74,99,75,-1,75,99,100,-1,75,100,76,-1,76,100,101,-1,76,101,77,-1,77,101,102,-1,77,102,78,-1,78,102,103,-1,78,103,79,-1,79,103,104,-1,79,104,80,-1,80,104,105,-1,80,105,81,-1,81,105,106,-1,81,106,82,-1,82,106,107,-1,82,107,83,-1,83,107,108,-1,83,108,84,-1,84,108,109,-1,84,109,85,-1,85,109,110,-1,85,110,86,-1,86,110,111,-1,86,111,87,-1,87,111,112,-1,87,112,88,-1,88,112,113,-1,88,113,89,-1,89,113,114,-1,89,114,90,-1,90,114,115,-1,90,115,91,-1,91,115,116,-1,91,116,92,-1,92,116,117,-1,92,117,93,-1,93,117,118,-1,93,118,94,-1,94,118,119,-1,94,119,95,-1,95,119,96,-1,119,120,96,-1,96,120,121,-1,96,121,97,-1,97,121,122,-1,97,122,98,-1,98,122,123,-1,98,123,99,-1,99,123,124,-1,99,124,100,-1,100,124,125,-1,100,125,101,-1,101,125,126,-1,101,126,102,-1,102,126,127,-1,102,127,103,-1,103,127,128,-1,103,128,104,-1,104,128,129,-1,104,129,105,-1,105,129,130,-1,105,130,106,-1,106,130,131,-1,106,131,107,-1,107,131,132,-1,107,132,108,-1,108,132,133,-1,108,133,109,-1,109,133,134,-1,109,134,110,-1,110,134,135,-1,110,135,111,-1,111,135,136,-1,111,136,112,-1,112,136,137,-1,112,137,113,-1,113,137,138,-1,113,138,114,-1,114,138,139,-1,114,139,115,-1,115,139,140,-1,115,140,116,-1,116,140,141,-1,116,141,117,-1,117,141,142,-1,117,142,118,-1,118,142,143,-1,118,143,119,-1,119,143,120,-1,143,144,120,-1,120,144,145,-1,120,145,121,-1,121,145,146,-1,121,146,122,-1,122,146,147,-1,122,147,123,-1,123,147,148,-1,123,148,124,-1,124,148,149,-1,124,149,125,-1,125,149,150,-1,125,150,126,-1,126,150,151,-1,126,151,127,-1,127,151,152,-1,127,152,128,-1,128,152,153,-1,128,153,129,-1,129,153,154,-1,129,154,130,-1,130,154,155,-1,130,155,131,-1,131,155,156,-1,131,156,132,-1,132,156,157,-1,132,157,133,-1,133,157,158,-1,133,158,134,-1,134,158,159,-1,134,159,135,-1,135,159,160,-1,135,160,136,-1,136,160,161,-1,136,161,137,-1,137,161,162,-1,137,162,138,-1,138,162,163,-1,138,163,139,-1,139,163,164,-1,139,164,140,-1,140,164,165,-1,140,165,141,-1,141,165,166,-1,141,166,142,-1,142,166,167,-1,142,167,143,-1,143,167,144,-1,
        ]
    }
}